<svg width="675" height="325" viewBox="0 0 675 325" fill="none" xmlns="http://www.w3.org/2000/svg">
<path d="M580.454 185.211L578.836 183.323L574.924 176.983L574.654 176.646L574.384 176.376L573.979 176.241L565.886 176.646L562.311 177.387L553.543 177.725L551.856 178.197L548.619 179.816L546.326 175.566L545.179 173.88L544.64 173.273L544.033 172.734L543.493 172.329L542.886 171.992L540.795 171.115L540.458 170.912L540.121 170.643L539.918 170.238L539.716 169.698L539.648 168.957L539.716 166.731L540.323 161.605L540.188 160.863L539.918 160.526L539.514 160.188L536.141 158.367L527.44 151.353L515.907 148.79L512.197 147.036L511.185 146.834H510.646L510.106 146.901L509.432 147.103L506.194 148.857L506.397 145.485L506.194 142.922L505.385 139.347L504.576 137.661L504.373 137.256L503.362 135.3L502.889 130.444L503.159 128.488L503.631 127.274V125.588L503.429 123.969L503.092 122.822L501.945 119.922L498.236 112.975L497.494 111.221L497.156 110.209L497.359 109.535L497.831 108.119V107.579L497.763 106.77L497.021 104.611L496.414 100.699L496.347 99.3504L496.414 99.2155L496.482 99.0806L496.819 98.8108L496.954 98.541L497.021 98.3387V98.2038L496.954 98.0014L495.538 95.978V95.9106L501.338 93.2801L502.147 93.1452L504.238 93.3475L505.925 94.2244L506.464 94.3593H507.071L507.881 94.0895L509.634 93.2126L510.781 92.2009L511.185 91.8637L511.59 91.6613L511.995 91.5939L513.007 91.5265L513.344 91.3241L513.546 90.6496V89.6379L513.614 89.1658L513.816 88.6262L515.165 85.9283L515.637 85.2538L516.177 84.6468L520.089 81.6791L520.561 80.9372L520.898 80.6674L521.91 79.9254L522.247 79.5882L523.191 78.7788L526.496 77.0252L526.901 76.9577L527.71 77.0926H528.115L528.385 76.9577L530.678 74.5971L531.083 74.3273L531.892 74.1249L532.297 73.9226L533.443 72.7085L535.062 71.7643L536.681 71.1572L537.558 71.2921L539.311 72.1689L540.255 72.4387L543.763 71.8992L545.584 72.3713L550.238 75.0692L550.575 75.4064L550.845 75.8111L551.249 76.6879L551.519 77.0926L554.285 80.1952L557.32 82.4885L557.657 82.6233L558.871 82.5559L559.276 82.6908L559.95 82.7582L561.299 82.4885L563.323 82.9606H563.93L564.604 82.7582L570.337 79.3859L571.956 78.9137L573.507 78.9812L575.059 79.5882L580.319 81.6791L581.129 82.421L581.803 83.4327L582.41 84.5793L578.363 93.6173L578.094 94.3593L574.047 103.465L570.067 112.503L570 112.975L570.27 113.987V114.526L569.932 115.403L565.211 122.755L565.279 123.497V123.969L565.683 129.634L565.616 130.241L562.85 131.995L562.783 132.063L562.041 132.535L560.49 133.209L560.085 133.749V134.019L560.355 135.84V135.975L560.962 139.617L561.164 139.752L561.232 140.089L561.704 140.696L566.56 145.889L567.707 146.496L568.853 145.754L570.944 142.989L572.833 141.775L573.979 141.37L577.487 142.18H578.836L583.692 141.101L585.041 141.033L585.58 141.101L587.874 142.112L589.29 142.652L589.762 142.922L594.416 147.306L595.293 147.373L596.035 146.429L596.372 145.822L596.507 145.687L597.114 144.675L597.451 144.406L598.463 143.529L602.51 138.133L603.049 137.661L603.926 137.324L606.961 137.526H607.433L608.715 136.919L609.794 136.716H610.941L611.413 136.851L612.29 137.391L612.829 137.526L616.471 137.796L617.82 138.47L619.034 139.954L621.058 143.326L622.07 144.406L625.982 146.159L627.668 146.766L628.14 147.103L628.41 147.508L628.545 148.048L628.747 150.071L628.882 150.543L629.084 150.881L629.287 151.015V151.083L629.489 151.15H629.556L631.31 151.892L632.052 152.095L632.457 152.364L632.591 152.769L632.457 153.039L632.052 153.646L631.917 154.051L632.659 154.32L635.627 157.018L635.896 157.355L636.166 157.895L636.301 158.367L636.571 158.704L637.043 158.839L637.11 158.974L637.38 158.907L637.718 159.042L638.527 159.649L639.876 161.267L640.415 162.077L640.888 163.089L641.022 163.628V165.247L641.09 165.584L641.157 165.786L641.225 165.921L641.495 166.326L642.102 167.001L642.371 167.338L642.506 167.54V167.81L642.641 168.012L642.776 168.215L642.978 168.282H643.316L643.518 168.349L643.585 168.552L643.518 168.822L643.383 169.024L643.316 169.226V169.631L643.383 169.766L643.451 169.833L643.518 169.968H643.653L643.72 170.103V170.238L643.653 170.44V170.643V171.25L643.383 172.127V172.599L643.451 172.868L643.72 173.341L643.788 173.543V173.813L643.653 174.015L643.518 174.217L643.383 174.42L643.316 174.487L643.181 174.824L642.911 175.094L642.439 174.892L641.764 174.824L641.629 175.229L641.495 175.432L641.157 175.904L641.022 176.039L640.55 176.308L640.281 176.443L639.741 176.983L639.674 177.05H639.471L639.066 176.983L638.392 176.376L637.987 176.308H637.515L636.099 176.039L635.155 176.106L633.468 176.511H632.591L627.735 175.162L627.263 174.959L626.791 174.555L626.251 173.408L625.914 172.936L625.509 173.071L625.037 173.61L624.768 173.813L624.43 173.678L624.228 173.341L624.161 172.868L624.026 172.464L623.621 172.261L623.014 172.464L622.542 173.003L622.339 173.408L622.205 173.543V173.61L621.935 174.15L621.53 174.217L621.463 174.15L621.395 174.622L621.193 174.69L620.518 174.555L619.776 174.15L619.102 173.88L618.832 174.015L618.293 174.352L617.955 174.487H616.471L615.73 174.285L614.515 173.678L613.841 173.476L613.234 173.408H612.627L612.02 173.61L611.413 174.015L610.671 174.69L610.401 174.757L609.389 174.824L609.052 174.959L607.568 176.106L606.961 176.173L606.017 176.443L605.545 176.646L605.14 176.915L604.938 177.253H604.803L604.398 177.86L603.994 178.197H603.926L603.859 178.264V178.939L603.589 179.074L602.577 179.209L602.51 179.141L602.442 179.209L601.7 179.276L601.228 179.209L600.419 178.669L600.284 178.534L600.082 177.995L599.744 177.522L599.677 177.455L599.475 177.05L599.205 176.78H599.002L598.193 177.387L597.856 177.455H597.788L597.451 177.253L595.9 177.657L596.237 178.534V178.939L596.102 179.343L595.428 180.288L595.225 181.03L595.158 182.581L594.686 183.39V183.525L593.944 183.728L587.604 183.323L585.176 182.783H584.838L584.704 182.851L584.299 183.323L583.085 184.335L582.815 184.469L581.668 184.604L580.859 184.874L580.454 185.211Z" fill="#A0B6BA" stroke="white" stroke-width="0.337239" stroke-linecap="round" stroke-linejoin="round"/>
<path d="M73.6522 79.251L74.1244 79.5208L75.1361 80.1278L75.3384 80.3301L75.4733 80.465L75.6082 80.6674L76.0803 81.9489L76.6199 83.77L76.8223 84.7142V84.8491V85.5911L76.8897 85.7934L76.9572 86.1306L77.0246 86.4004L78.3061 88.4239L78.5759 89.0984L78.9132 90.5148L78.9806 90.6496L79.1155 90.9869L79.2504 91.2567L79.3178 91.5939L79.4527 91.9312L79.5876 92.0661L79.79 92.2684L80.2621 92.808L83.8368 94.5616L85.8603 96.2478L86.0626 96.7199L86.1975 97.1921L86.1301 97.5293V97.6642V97.934L86.1975 98.0015L86.265 98.3387L86.6022 99.0806L86.6696 99.2155L86.7371 99.283L87.2767 99.5528L88.3558 99.6202L90.2444 99.89L90.7165 99.9574L90.8514 100.025L90.9863 100.16L91.0538 100.497L91.1212 101.306V101.509V101.644L91.0538 101.981V102.116V102.318V102.453L91.1212 102.723L91.2561 102.925L92.4702 104.814L92.6051 105.016L92.8074 105.151L92.8748 105.218L93.2795 106.5L94.4261 109.063L94.6959 109.333L95.1681 109.67L96.5845 110.142L96.8543 110.277L96.9892 110.412L97.1241 110.614L97.5287 111.356L98.1358 111.963L98.3381 112.233L98.4056 112.368L98.6754 113.042L99.3498 115.403L99.4173 115.673L99.4847 115.875V116.077L99.4173 116.819V117.359L98.473 117.426L96.5845 116.954L94.6285 117.359L88.8954 120.057L86.872 120.462L86.8045 120.799L86.872 121.069L87.0069 121.338L87.2092 121.541L88.5582 122.148L88.8954 122.418L89.1652 122.957L89.8397 125.115L89.9071 125.722L89.8397 126.127L89.0978 127.274L88.828 127.881V128.623L88.8954 129.5L89.0978 130.242L89.5025 132.737L89.5699 133.412L89.6373 133.816L89.7722 134.288L90.1095 134.626L91.0538 135.3L91.3235 135.637L91.9306 136.312L92.1329 136.582L92.3353 137.054L93.0772 139.752L94.6285 144.473L95.1681 145.485L95.5728 145.957L95.9774 146.496L96.3147 147.238L97.5962 151.15L97.7311 151.757V152.499V153.039L97.5962 153.511L97.4613 153.848L97.3264 154.253L97.3938 154.792L97.866 155.602L100.496 158.839L101.711 160.728L101.643 161.672L100.766 163.965L100.631 164.572L100.564 165.179V165.786L100.766 166.394L101.171 167.135L102.048 167.877L102.587 168.282L103.329 168.552L104.881 169.631L106.837 171.452L108.185 173.408L109.737 174.42V175.094L109.602 175.634L109.13 176.039L108.793 176.241L106.027 175.836L103.666 176.106L103.329 175.971L102.79 175.566L102.385 175.701L102.183 175.904L101.913 176.376L101.576 177.387L101.238 177.792L100.766 177.927L100.159 177.792L99.5522 177.387L99.08 176.78L98.3381 175.566L97.9334 175.162H97.3264L96.7868 175.229H96.1798L94.9657 174.69L93.6168 174.352V174.285L93.4819 173.813L93.1446 173.003L92.8748 172.936L92.3353 171.992H92.2678L92.1329 171.722L91.9306 171.115L91.6608 170.71L91.9306 169.901L91.8631 169.698L91.6608 169.226L91.2561 168.754L91.1886 168.012L90.784 167.338L90.5142 167.135L90.3118 166.798L89.9071 166.461L89.5025 166.191L89.0978 166.056L88.6256 166.124L88.2209 165.989L87.0743 164.505L86.6696 163.83L86.1301 163.223L85.6579 162.347L85.3881 161.672L84.9835 161.133L84.916 161.065L83.5671 158.637L83.2973 157.963L83.0949 157.76L82.7577 157.288V157.018L83.0275 156.681L83.0949 156.007L83.3647 155.602L83.0275 155.265L82.6902 154.725L82.2855 154.388V154.32L82.353 153.309L82.6228 152.837L82.5553 152.229V152.095L81.8809 151.285L81.4087 151.083L80.4645 149.262L80.3296 149.059L80.1272 148.655L80.2621 147.643L80.397 147.508L80.3296 147.171L79.9249 146.834L79.5202 146.631L78.9806 146.496L78.8457 146.362L78.5759 146.294L78.1712 146.227L77.6991 146.159L76.8223 145.754L76.0129 145.147L75.3384 144.406L75.0686 144.068L74.9337 143.664L75.0012 142.787L75.271 142.112L74.8663 141.977L74.9337 141.775L74.8663 141.235L74.5965 140.898H73.7871L73.0452 140.628L72.708 140.831L72.5731 141.168V141.573L72.5056 141.91L72.2358 142.247L71.6288 142.517L69.6054 142.652L68.9983 142.517L68.796 142.18L68.5936 141.37L68.5262 141.101V141.033H68.4587L67.8517 140.628L67.7168 140.561L67.6494 140.494H67.3796L67.1772 140.359L66.9749 139.954L66.7726 139.482L66.6377 139.077L66.3679 138.942L66.0306 138.875L65.7608 138.605L65.6259 138.2V137.728V137.661L66.0306 137.256L65.6259 137.324L65.5585 136.919L65.0189 136.582L64.277 136.649L63.7374 136.851H62.7931H62.4559L61.714 136.379H61.4442L61.0395 136.582L60.0952 137.324L59.758 137.661L59.3533 138.065L58.8137 138.133L57.8694 137.931H56.1158L55.5762 137.728V137.661H55.5088L55.3064 137.324L55.1041 136.919L54.632 136.379L53.3504 134.761L53.0806 134.491L52.5411 134.356L51.4619 134.491H51.1921L51.0572 134.423L50.9898 134.491L50.3827 134.086L49.1012 132.737L48.5617 132.535L48.0895 132.602L47.7523 132.467L47.4825 132.265L47.415 131.995L47.2801 131.725L46.6057 130.444L46.5382 129.837L46.4033 129.432L46.6731 128.96L46.8755 128.218L46.4708 127.948L46.4033 127.678L45.3242 126.397L45.2567 126.195L45.1893 126.262L44.7171 126.06L44.3799 126.127L43.9752 126.262L43.5705 126.195L42.9635 125.857V125.79H42.896L42.0867 124.643L41.8843 124.104L41.6145 123.901L40.9401 123.564H40.8052H40.4005L38.7817 123.362L38.377 122.687L38.0398 122.35L37.0955 121.878L36.1513 121.676L35.2744 121.069L35.1395 120.866L34.9372 120.596V120.192L35.4768 119.585L36.0164 119.18V118.91L35.8815 118.708L36.6234 118.168L36.8257 117.899L36.7583 117.561L36.8257 117.494H36.7583V117.157L36.2187 116.55L35.1395 115.808L34.7349 115.673L33.9255 115.74L33.7231 115.605L32.9138 114.594L32.5091 114.121L32.2393 113.919L32.1044 113.717L31.7672 113.447L31.6997 113.38L31.5648 113.177L31.3625 113.042L30.9578 112.84L30.688 112.57V112.165L30.8229 111.828V111.761L30.8903 111.424L31.2276 110.884L32.5091 110.277L33.1836 109.67V108.995L33.3185 108.861L33.1836 108.726V108.591L32.9138 108.254L32.5091 108.119H32.4416V107.174L32.5765 106.567L32.3742 106.163L32.4416 105.825V105.151L32.1718 104.274L32.1044 103.869L32.5091 104.072H32.8463L34.8023 103.802L35.1395 103.6L35.4768 103.127L36.1513 102.453L37.7026 101.509L38.377 100.834L38.4445 100.092L38.0398 99.2155L37.8375 98.3387L38.1747 97.4619L38.377 97.1246L38.7143 96.1804L38.9166 95.7757L39.3888 95.4384L42.8286 94.8314H43.3007L44.1775 95.1687H44.6497L45.8637 95.1012L46.2684 94.9663L47.0103 94.4267L47.3476 94.3593H47.6848L47.9546 94.6291L48.4942 95.3036L48.8989 95.7082L49.3036 95.7757L52.2038 95.978L52.2713 95.8431L51.934 94.8989V93.7522L52.0015 93.3476L52.1364 93.0103L52.5411 92.8754L52.9458 93.0778L53.1481 93.415L53.283 93.8871L53.4853 94.3593L53.6877 94.6291L53.8226 94.9663L53.9575 95.2361L54.2273 95.4384L54.9692 95.3036L57.7345 94.022L58.409 93.4825L58.8137 92.808L58.5439 92.0661L58.0718 91.2567L58.2741 90.5148L58.8137 90.1775L59.4882 90.3124L60.5674 91.3916L61.1069 91.7288H61.7814L62.2536 91.1892L62.6582 90.4473L63.0629 89.9077H63.7374L64.6142 89.3007L66.4353 88.6937L67.6494 88.0192L68.0541 87.6819L68.2564 87.2098L68.0541 86.6702L67.7168 86.4679L66.84 85.9958L66.6377 85.6585V85.3887L66.9074 85.0515V84.7142L66.84 84.5794L66.5028 84.2421L66.3679 84.0398V83.7025L66.5028 82.5559L66.5702 82.2861L66.7726 82.0838L67.3796 81.5442L68.3913 81.1395L71.1567 81.0721L72.2358 80.8023L73.1801 80.3301L73.6522 79.5882V79.251Z" fill="#A0B6BA" stroke="white" stroke-width="0.337239" stroke-linecap="round" stroke-linejoin="round"/>
<path d="M93.6172 174.353L94.9661 174.69L96.1802 175.229H96.7872L97.3268 175.162H97.9338L98.3385 175.567L99.0804 176.781L99.5526 177.388L100.16 177.793L100.767 177.927L101.239 177.793L101.576 177.388L101.913 176.376L102.183 175.904L102.385 175.702L102.79 175.567L103.33 175.971L103.667 176.106L106.028 175.837L108.793 176.241L109.13 176.039L109.602 175.634L109.737 175.095V174.42L108.186 173.408L106.837 171.452L104.881 169.631L103.33 168.552L102.588 168.282L102.048 167.878L101.171 167.136L100.767 166.394L100.564 165.787V165.18L100.632 164.573L100.767 163.966L101.643 161.672L101.711 160.728L100.497 158.84L97.8664 155.602L97.3942 154.793L97.3268 154.253L97.4617 153.849L97.5966 153.511L97.7315 153.039V152.5V151.758L97.5966 151.151L96.3151 147.239L95.9778 146.497L95.5732 145.957L95.1685 145.485L94.6289 144.473L93.0776 139.752L92.3357 137.054L92.1333 136.582L91.931 136.312L91.3239 135.638L91.0542 135.3L90.1099 134.626L89.7727 134.289L89.6377 133.817L89.5703 133.412L89.5029 132.737L89.0982 130.242L88.8958 129.5L88.8284 128.623V127.881L89.0982 127.274L89.8401 126.128L89.9075 125.723L89.8401 125.116L89.1656 122.957L88.8958 122.418L88.5586 122.148L87.2096 121.541L87.0073 121.339L86.8724 121.069L86.8049 120.799L86.8724 120.462L88.8958 120.057L94.6289 117.359L96.5849 116.955L98.4734 117.427L99.4177 117.359L100.294 117.022L101.374 116.078L103.195 113.582L104.409 111.559L105.016 110.952L106.904 109.805L107.781 109.468L108.456 109.333L109.13 109.468L109.602 109.805L109.94 110.142L110.142 110.615L111.423 115.606L111.828 115.875H112.165L112.637 115.673L112.975 115.606L113.447 115.673L113.986 116.28L114.391 117.09L115.066 119.045L115.47 119.855L115.807 120.125L116.28 120.057L117.156 119.383L117.426 119.248L124.373 120.934L126.464 121.474L127.409 121.069L128.285 120.327L129.095 119.383L130.039 118.641L130.781 118.371L131.388 118.304L132.332 118.506L132.535 118.573L132.669 118.708L132.737 118.776L133.007 118.978L134.558 119.787L134.895 120.192L135.03 120.394L135.098 120.529L135.165 120.732V120.867L135.3 121.609L135.435 122.35L135.502 122.688L135.57 122.823L135.705 123.025L135.772 123.16L136.244 123.497L137.458 124.846L137.863 125.183L139.617 126.128L140.224 126.6L140.426 126.802L140.493 126.937V127.139V127.274L140.426 127.342L140.358 127.409V127.544L140.224 127.814V128.016V128.286V128.825L140.156 129.095L140.089 129.298L139.819 129.905L139.212 130.781L136.919 133.21L135.907 134.086L134.558 134.963L135.367 137.594L135.772 138.673L135.974 139.685L136.042 140.494V141.236L136.244 141.775L138.537 144.945L140.224 147.981L140.291 149.464L140.358 149.937L140.426 150.476L141.235 151.555L142.652 152.904L146.631 156.546L149.329 158.3L150.611 158.907L150.88 159.379L151.015 159.919L150.948 160.661V161.47L151.218 162.482L151.555 163.561L152.634 165.517L154.388 168.08L155.062 169.496L154.995 170.508L154.86 171.048L154.32 171.79L153.511 172.397L149.666 174.15L147.913 175.229L145.822 177.253L144.81 177.59L144.203 177.725L142.247 177.523L141.775 177.388H141.37L141.1 177.658L141.168 178.197L141.37 178.737L142.584 181.097L142.854 181.974L142.989 182.919L142.921 183.795L142.652 184.537L140.426 188.449L138.605 193.103L138.537 193.575L138.74 194.992V195.464L138.47 195.936L137.998 196.273L137.728 196.61L137.054 198.162L136.649 198.701L136.177 199.106L134.018 200.455L133.546 200.927L133.142 201.534L133.007 202.478L133.479 208.481L133.411 211.719L132.4 220.352V220.487H131.928L131.523 220.419L131.186 220.352H130.781L130.579 220.419L129.634 220.082H129.095L128.285 219.61L128.016 219.543L127.409 219.678H127.071L126.194 219.543L124.036 220.15L122.755 220.217L120.934 220.689L120.596 220.622L119.719 220.285L119.382 220.217L118.505 220.419L117.966 220.217L117.831 220.285L117.291 220.082H116.954L116.01 220.352L115.807 220.285L115.538 220.015L114.661 219.071L113.717 218.936L113.312 218.733L112.705 218.598L112.03 218.531L111.356 218.598L110.344 218.801L107.039 218.666H106.635L105.825 218.936L105.421 219.003L103.532 218.531L103.33 218.598L103.127 218.666H103.06L102.655 218.261L102.183 217.587L101.576 216.98L101.509 216.912L101.171 216.642H100.767L100.429 216.912L100.092 217.249L99.8224 217.519L99.2153 217.182H98.5409L97.7315 217.047H97.3942L96.3151 216.44L96.0453 216.238V215.698L95.5057 215.361L95.3708 215.226L94.6963 214.889L93.887 214.754L93.0101 214.686L92.3357 214.821L90.9867 215.563H90.3797L90.3122 215.361L90.8518 214.619L90.5146 213.337L89.4354 212.73L89.2331 212.056L89.0307 210.842L88.4237 209.628L88.4911 209.493L87.9516 208.886L87.8167 208.751L87.5469 208.481L87.1422 207.942L87.0073 207.874L86.5352 206.93L86.8049 203.895L87.6818 200.725L90.4471 195.869L92.6055 193.845L92.6729 193.575L93.2799 192.294L93.3474 191.08V191.012V190.945L92.8078 189.528L92.2682 188.854L92.2008 188.247L92.1333 188.045L91.7961 187.37L91.4588 186.561L91.3914 186.358L90.8518 185.414L91.3239 184.47L92.0659 183.998L92.538 182.244L93.0101 181.637L93.0776 180.625L93.4823 180.288L93.887 178.669L93.9544 178.602V178.332L93.8195 177.927L93.6846 177.86V177.793L93.4148 177.388L93.0101 177.253L93.6172 174.42V174.353Z" fill="#A0B6BA" stroke="white" stroke-width="0.337239" stroke-linecap="round" stroke-linejoin="round"/>
<path d="M506.194 142.922L506.397 145.485L506.194 148.857L509.432 147.104L510.106 146.901L510.646 146.834H511.185L512.197 147.036L515.907 148.79L527.44 151.353L536.141 158.367L539.514 160.189L539.918 160.526L540.188 160.863L540.323 161.605L539.716 166.731L539.648 168.957L539.716 169.699L539.918 170.238L540.121 170.643L540.458 170.913L540.795 171.115L542.886 171.992L543.493 172.329L544.032 172.734L544.64 173.273L545.179 173.88L546.326 175.567L548.619 179.816L551.856 178.197L553.543 177.725L562.311 177.388L565.886 176.646L573.979 176.241L574.384 176.376L574.654 176.646L574.924 176.983L578.836 183.323L580.454 185.212L580.185 185.414L579.78 186.291V186.358L578.903 187.64L578.836 187.707L576.138 190.473L573.44 195.936L573.305 196.678L573.575 197.487L573.979 198.162L574.114 198.769L573.71 199.713L572.563 201.332L572.091 201.736L571.349 202.141L570.809 202.208H570.405L570.27 202.276L569.595 202.208L569.393 202.276L568.988 202.681L568.314 203.288L568.179 203.423L564.941 206.255L563.592 207.807L563.188 208.144L557.994 209.695L556.713 209.898H554.757H554.419H554.352L553.273 209.965L553.205 209.898L552.463 209.965L551.519 210.032L550.642 210.235L550.305 210.302H549.833L549.428 210.437H548.821L548.484 210.37L545.247 209.088H545.179L544.909 208.886L544.572 208.953L544.37 209.088L543.965 209.156L542.481 209.763H542.009L541.672 210.032L541.402 210.167L541.2 210.302L541.132 210.572L540.997 211.786L540.795 212.393L540.255 213.607L539.176 215.158L535.264 218.936L534.32 219.543L534.05 219.812L533.848 220.082L533.511 220.757L532.904 221.633L532.297 222.173L531.959 222.375H531.622L531.15 222.645L530.678 222.78L529.599 222.847L529.127 223.05L528.924 223.252L528.857 223.32L528.722 223.455L528.115 224.129L527.912 224.331L527.305 224.534L526.564 224.871L526.361 225.073L525.619 226.018L523.933 227.501L522.854 227.232H522.179H521.842L521.505 226.894L521.168 226.759L517.93 226.49L517.66 226.422H517.053L514.153 226.152L512.467 225.411H511.658L507.341 224.196L504.778 223.05L504.238 222.645L503.834 222.106L503.092 220.757L501.54 219.205L500.933 218.801L500.326 218.666L495.133 218.801L493.312 218.261H493.042L492.772 218.194V218.126L492.705 216.575V215.361L492.772 214.012L492.705 213.405L492.57 212.933L492.03 212.258L491.626 211.921L491.153 211.584L490.749 211.179L490.344 210.639L490.142 208.953L489.939 208.279L489.332 207.672L488.793 207.402L488.523 207.065L488.388 206.862V205.986L488.725 198.769L488.456 197.352L488.051 196.071L486.365 192.361L486.027 191.214L485.825 190.742L485.488 190.338L478.406 187.1L478.338 186.223L478.406 185.886L478.608 185.414L479.822 183.66L479.957 183.188L480.092 182.649L480.025 182.109L479.89 181.502L479.283 179.411L479.08 178.534V177.927L479.148 175.769L479.418 174.69L479.89 173.678L481.643 170.575L482.992 167.945L483.464 165.989L484.139 160.796L484.341 159.986L484.611 159.244L485.285 158.098L487.241 155.872L487.781 155.332L488.658 154.793L489.467 154.455L489.737 154.388H490.142L492.57 154.86L494.796 154.995L494.458 153.309L494.324 152.027V151.151L494.458 149.734L494.526 149.195L494.661 148.722L494.796 148.318L494.998 147.913L495.268 147.508L495.605 147.104L496.01 146.699L497.089 145.957L502.957 143.731L503.969 143.596L504.238 143.529L504.71 143.192L504.845 143.124L506.194 142.922Z" fill="#A0B6BA" stroke="white" stroke-width="0.337239" stroke-linecap="round" stroke-linejoin="round"/>
<path d="M478.406 187.1L485.488 190.338L485.825 190.742L486.028 191.214L486.365 192.361L488.051 196.071L488.456 197.352L488.726 198.768L488.388 205.985V206.862L488.523 207.065L488.793 207.402L489.333 207.672L489.94 208.279L490.142 208.953L490.344 210.639L490.749 211.179L491.154 211.584L491.626 211.921L492.03 212.258L492.57 212.933L492.705 213.405L492.772 214.012L492.705 215.361V216.575L492.772 218.126V218.193H492.705L492.503 218.261L492.3 218.328L492.098 218.531L491.221 219.138L490.479 219.34L490.142 219.542L488.995 220.352L488.523 220.891L488.119 221.498L484.544 228.85L484.341 229.525V229.929L484.409 230.874V231.278L484.274 231.818L484.139 232.155L483.734 232.762L483.262 233.841L483.06 234.111L482.992 234.179L482.52 234.651L482.116 235.393L481.778 236.269L481.576 237.011V238.091L481.846 238.63L483.06 239.372L483.397 239.844L483.532 240.316L483.667 241.328L483.937 242.34L484.409 243.149L486.095 245.577L486.77 246.252L488.928 247.668L489.467 248.275L490.007 248.95L491.761 252.052L492.03 252.997L492.098 253.738L492.03 254.615L491.828 255.357L491.356 255.627L491.086 255.694L490.142 256.099L488.793 256.032L488.388 256.234L485.421 259.876L484.881 260.483L484.207 260.753L482.183 260.955L481.711 261.158L480.497 262.169L475.843 263.99L473.55 265.339L472.74 266.081L470.177 269.724L467.952 272.084L467.682 272.624L467.21 273.905L466.535 275.052L465.793 275.929L463.972 277.413L463.567 277.817L463.095 279.166L462.691 279.638L457.632 281.864L456.958 282.269L456.755 282.471L456.553 282.674L456.418 282.876L456.148 283.011L455.811 283.078H454.732L453.315 283.281L452.574 283.55L452.304 283.618L451.292 284.157L449.808 284.764L448.796 285.169L448.662 285.304L445.761 287.462H445.694H445.559L445.424 287.53L445.222 287.597L444.952 287.665L444.682 287.867L444.547 287.934L442.187 288.137L441.242 288.407L440.77 288.474L435.779 287.867L435.172 287.934L433.283 288.946L432.609 289.149L432.069 289.216L427.078 288.272H424.65H424.583H424.515L422.964 288.339L421.345 287.867L420.199 287.732L417.77 288.137L417.163 275.726L417.231 275.119L417.501 274.04L417.77 272.826L417.838 271.612V270.6L417.77 269.589L416.826 264.598L416.624 262.169L416.556 258.999L416.422 255.087L412.442 242.879L410.756 239.44L410.554 238.832L410.486 238.36V237.551L411.295 233.706L412.307 232.965L412.577 232.492L412.847 231.683L413.386 227.366L413.656 226.287L414.061 225.815L414.533 225.613L415.949 225.478L422.694 224.601L424.583 223.454L425.459 221.768L426.067 220.824L426.741 220.284L427.078 220.149L427.416 220.082L428.157 220.149L428.562 220.015L428.697 219.677V219.138L428.292 217.654L426.876 208.886L426.539 203.355L426.606 201.264L427.078 198.499L428.157 195.261L427.416 195.194L424.852 196.138L424.313 195.868L423.773 195.329L423.099 194.047L422.829 193.71L422.627 193.305L422.424 192.361L422.492 191.552L423.031 187.437L423.099 185.616L423.031 185.009L422.829 184.2L422.357 182.851L421.682 181.704L418.647 178.467L418.31 177.995L418.243 177.59L418.445 177.185L418.85 176.646L420.671 175.094L420.873 174.825L419.929 174.69H418.647L417.838 174.487L417.231 174.285L416.691 173.745L416.287 173.206L416.017 171.992L416.894 171.52L417.838 171.25L419.052 170.98H420.738L423.638 171.52L425.999 171.857L429.034 170.373L430.383 169.631L431.058 168.957L431.327 168.619L432.609 165.382L434.97 166.461L435.307 167.54L435.374 167.945L435.442 168.552L435.374 170.508V170.71L435.577 170.913L435.779 170.845L435.914 170.778L436.588 169.766L436.926 169.429L437.263 169.226L437.6 169.361L437.87 169.766L438.072 170.508L438.14 171.317L438.207 172.059L438.14 172.599L438.005 173.341L437.668 174.217L436.251 176.915L436.049 177.455L435.914 178.062V178.399V178.939V179.209L436.049 179.681L436.184 179.883L436.791 181.165L438.544 182.918L439.017 183.795L439.624 185.414L440.028 186.021L440.568 186.493L443.401 188.516L445.289 188.719L450.011 188.247L450.887 187.909L451.764 187.37L454.799 184.874L454.934 184.604L455.541 183.256L456.283 180.692L456.351 180.22L456.283 179.681L455.811 177.118V176.308L456.013 175.971L456.823 175.836L457.902 175.904L458.374 176.173L458.914 176.713L459.453 177.792L460.532 179.478L463.635 182.716L464.04 183.256L464.377 184.065L464.916 185.751L465.523 186.763L467.142 188.382L471.122 190.877L472.403 191.349H473.482L474.764 190.472L478.406 187.1Z" fill="#A0B6BA" stroke="white" stroke-width="0.337239" stroke-linecap="round" stroke-linejoin="round"/>
<path d="M132.4 220.487V220.352L133.411 211.719L133.479 208.481L133.007 202.478L133.142 201.534L133.546 200.927L134.018 200.455L136.177 199.106L136.649 198.701L137.054 198.162L137.728 196.61L137.998 196.273L138.47 195.936L138.74 195.464V194.992L138.537 193.575L138.605 193.103L140.426 188.449L142.652 184.537L142.922 183.795L142.989 182.919L142.854 181.974L142.584 181.097L141.37 178.737L141.168 178.197L141.1 177.658L141.37 177.388H141.775L142.247 177.523L144.203 177.725L144.81 177.59L145.822 177.253L147.913 175.229L149.666 174.15L153.511 172.397L154.32 171.79L154.86 171.048L154.995 170.508L155.062 169.496L154.388 168.08L152.634 165.517L151.555 163.561L151.218 162.482L150.948 161.47V160.661L151.015 159.919L150.88 159.379L150.611 158.907L149.329 158.3L146.631 156.546L142.652 152.904L141.235 151.555L140.426 150.476L140.358 149.937L140.291 149.464L140.224 147.981L144.877 147.441L147.238 146.497L149.734 145.148L151.555 143.934L152.094 143.799H152.769L153.781 144.001L154.59 144.338L155.062 144.676L155.669 145.215L155.939 145.35L156.141 145.418L157.49 145.62L159.716 146.362L162.212 146.632L164.437 146.564L164.775 146.497L165.449 146.227L165.651 146.16L166.258 146.227L166.798 146.16L168.417 146.699L169.024 146.969L169.361 147.374L169.766 147.981L170.103 148.52L170.373 149.06L170.575 149.397L170.777 149.599L171.115 149.937L171.789 150.004L172.599 149.532L173.138 149.33L177.994 149.599L178.804 150.206L179.478 150.544L180.085 150.746L180.288 150.813L181.434 151.96L182.716 152.904L189.663 157.356L190.202 157.626L190.472 157.693L191.147 158.03L191.551 158.502L191.821 158.907L192.226 160.324L192.698 161.335L193.777 162.752L194.182 163.494L194.587 165.45L194.991 166.596L195.261 167.203L195.463 168.889H196.138L201.062 167.338L201.736 167.473L202.41 167.878L204.029 168.687L204.232 170.441L204.366 171.183L204.704 172.059L205.243 173.004L206.592 174.488L206.795 174.96L206.727 175.904L206.795 176.309L206.929 176.578L207.874 176.713L209.897 176.781H210.032L210.369 176.916L210.774 177.185L210.976 177.253H211.246L211.718 177.185L212.055 177.118L212.663 176.713L213.674 175.769L213.877 175.567L214.146 175.095L214.214 174.96L214.349 174.892L214.686 174.825H215.495L216.44 175.432L217.789 176.309L219.34 176.713L219.542 178.602L219.407 180.895V181.57L219.542 182.177L219.745 182.851L220.149 184.065L220.352 184.402L220.621 184.74L221.498 185.212L221.903 185.549L222.173 186.089L222.577 187.37L222.982 187.842L224.601 189.056L225.14 189.596L225.882 190.608L226.287 190.945L226.692 191.215L227.636 191.484L228.243 191.619L228.783 191.754L229.12 191.957L229.794 192.766L233.436 197.892L233.976 199.039L234.313 200.725L235.392 208.414L235.258 209.493L235.055 210.909L232.829 218.464L232.222 219.678L231.953 219.947L231.278 220.622L230.941 220.892L230.671 221.431L230.536 222.038L230.469 222.983V223.859L230.806 227.367V230.132L230.671 230.941L230.401 232.155L230.064 232.965L229.592 233.707L229.322 234.111L228.917 234.516L227.973 235.191L225.545 236.472L225.275 236.877L225.14 237.416V239.844L225.815 246.657V247.399L224.938 254.683L225.14 257.044L225.073 257.853L224.938 258.73L223.454 263.586L222.51 265.61L222.375 266.351V267.161L223.387 280.785L217.114 279.976L214.686 279.639L210.774 278.897L210.437 278.964L209.627 279.167L209.223 279.301L203.962 279.841L197.15 280.583L195.598 280.853L195.463 280.246L195.531 278.964L195.194 277.278L195.126 275.794L192.968 273.636L192.024 272.826L190.202 271.208L189.595 270.398L188.516 269.387L187.572 268.645L186.965 267.903L186.156 266.824L185.751 266.284L185.683 265.744L185.549 264.126L185.279 263.114L185.211 262.439L183.458 258.527L183.323 258.258L182.985 257.583L182.918 257.179L181.299 253.132L181.097 251.311L180.962 250.973L180.557 250.299L179.613 247.938L179.208 247.264H177.118L175.499 246.522V246.319L175.229 246.117V245.847L175.566 245.375V245.105L175.701 244.296L175.836 242.677L175.971 242.205L176.038 241.531V241.261L176.241 241.059L176.915 240.519L177.118 240.317V239.575H176.848L174.892 239.912L172.194 240.249L171.587 240.114L170.44 240.452L169.968 240.519L169.226 240.452L168.552 239.777L167.54 239.44L167.135 239.507L166.056 239.17L165.112 238.698L164.707 238.563L163.83 238.293L163.561 237.754L163.156 237.079L163.088 236.809L162.212 235.798L161.47 235.325L160.795 234.921L160.256 234.449L159.851 234.246L159.649 234.044L158.772 233.572L158.434 233.504L157.49 233.572L157.018 233.504L156.546 233.302L156.479 232.425L156.344 231.751L155.871 231.481L155.264 231.211L155.062 230.806L154.388 229.795L153.241 229.053L152.701 228.648L151.96 228.109L150.88 227.434L149.869 226.827L148.992 226.355L148.25 226.085L147.373 225.546L146.496 225.006L144.877 224.264L144.54 223.724L143.798 223.387L143.529 223.252L141.235 221.701L140.763 221.903H140.696L139.886 221.836L139.077 221.499L138.2 221.027L137.593 221.094L137.391 221.027L136.986 220.959L136.649 221.027L136.177 220.892L135.232 220.554L134.828 220.487H134.221L134.086 220.42L133.546 220.352L132.4 220.487Z" fill="#A0B6BA" stroke="white" stroke-width="0.337239" stroke-linecap="round" stroke-linejoin="round"/>
<path d="M223.386 280.785L222.374 267.161V266.351L222.509 265.609L223.453 263.586L224.937 258.73L225.072 257.853L225.14 257.043L224.937 254.683L225.814 247.398V246.657L225.14 239.844V237.416L225.275 236.877L225.544 236.472L227.972 235.19L228.917 234.516L229.321 234.111L229.591 233.707L230.063 232.965L230.401 232.155L230.67 230.941L230.805 230.132V227.366L230.468 223.859V222.982L230.535 222.038L230.67 221.431L230.94 220.891L231.277 220.622L231.952 219.947L232.222 219.677L232.829 218.463L235.055 210.909L235.257 209.493L235.392 208.414L234.313 200.725L233.975 199.038L233.436 197.892L229.794 192.766L229.119 191.956L228.782 191.754L228.242 191.619L227.635 191.484L226.691 191.214L226.286 190.945L225.882 190.607L225.14 189.596L224.6 189.056L222.981 187.842L222.577 187.37L222.172 186.088L221.902 185.549L221.497 185.212L220.621 184.739L220.351 184.402L220.149 184.065L219.744 182.851L219.542 182.176L219.407 181.569V180.895L219.542 178.602L219.339 176.713L219.272 175.162L219.407 174.555L220.216 172.531L223.184 163.291L223.319 162.482L223.386 161.605L223.521 160.795L223.858 160.256L224.398 159.919L225.072 159.851L226.893 159.784L228.04 159.514L229.187 159.042L230.738 156.681L231.277 155.535L231.547 154.725L231.412 154.186L231.277 153.646V152.972L231.547 152.567L232.424 151.623L232.964 150.678L233.301 150.004L233.503 149.464L233.638 148.925L233.773 148.183V147.845V147.643L233.706 147.441L234.92 146.294L235.662 145.822L237.55 145.215L239.101 145.013L239.439 145.08L239.776 145.215L240.113 145.35L240.315 145.62L240.585 145.89L241.057 147.104V148.925L241.327 149.464L241.664 149.869L245.037 152.095L245.509 152.297H246.116L248.409 152.23L250.028 151.96L250.567 151.757L250.905 151.555L251.309 151.285L252.254 150.004L252.658 149.734L253.131 149.599L254.345 149.397L254.749 149.127L255.087 148.857L255.424 148.385L255.896 147.913L257.245 147.104L257.717 147.036V149.262L257.852 150.139L258.122 150.813L258.459 151.285L258.998 151.825L260.415 152.972L260.887 153.646L261.157 154.388L261.224 155.062L261.157 155.804L261.022 157.221V157.895L261.089 158.705L261.292 159.177L261.494 159.716L261.561 160.121L261.629 160.526L261.561 161.065V161.605L261.696 162.279L261.899 162.751L262.236 163.021H262.641L264.327 162.617L271.004 160.593L271.611 160.458L272.016 160.526L272.218 160.795L272.421 162.549L272.69 163.224L273.163 163.966L273.432 164.64L273.702 165.652L273.837 165.922L274.039 166.056L275.051 166.326L275.658 166.529L276.265 167.068L276.602 167.608L277.007 168.889L277.277 169.496L277.547 169.901L277.951 170.171L279.368 170.103L280.784 169.631H281.459L283.549 169.968L284.426 169.901L286.787 169.361L287.259 169.564L288.406 170.778L289.148 172.194L289.35 172.531L291.508 174.69L293.329 176.983L293.464 179.209L293.599 179.681L293.734 180.153L294.004 180.49L294.071 180.895L294.004 181.434L292.318 183.593L291.98 184.335L292.183 184.807L292.453 185.077L292.722 185.549L292.925 186.223L293.06 187.64V188.719L292.925 189.258L292.79 189.596L292.453 190.068L291.98 190.472L291.373 190.742L290.362 191.147L289.957 191.484L289.62 191.956L289.35 192.563L289.08 193.17L288.945 193.845L289.013 196.206L289.283 197.622L289.35 198.566L289.283 199.645L288.473 202.546L288.541 203.962L288.473 204.637L287.799 206.39L286.922 207.604L285.843 208.683L285.64 209.021L285.505 209.425V209.965L285.775 211.381V211.988L285.708 212.798L285.775 213.202L285.91 213.607L286.112 216.507L286.247 217.519L286.517 218.733L286.72 219.34L286.922 219.88L287.327 220.284L287.799 220.622L290.159 221.364L291.373 222.105L292.115 222.78L293.869 223.859L294.274 224.601L293.734 226.085L292.992 227.973L292.925 228.243V228.648L292.992 229.12L293.262 229.795L294.139 231.751L294.678 233.302L297.781 245.847L288.338 251.648L287.394 251.985L286.989 252.052L272.286 251.85L270.599 252.187L269.251 251.715L266.485 248.882L264.327 245.982L261.089 243.014L260.82 242.812L260.55 242.745L260.28 242.812L254.547 244.296L254.412 244.498L254.345 244.835L254.277 246.522L255.154 268.375L257.11 284.09H257.177L254.345 284.899L246.588 283.888L238.832 282.876L231.143 281.864L223.386 280.785Z" fill="#A0B6BA" stroke="white" stroke-width="0.337239" stroke-linecap="round" stroke-linejoin="round"/>
<path d="M411.296 233.707L410.486 237.552V238.361L410.554 238.833L410.756 239.44L412.442 242.88L416.422 255.088L416.557 259L416.624 262.17L416.826 264.598L417.771 269.589L417.838 270.601V271.613L417.771 272.827L417.501 274.041L417.231 275.12L417.164 275.727L417.771 288.137L411.498 289.149L410.486 289.082L409.812 289.351L408.8 289.486L407.586 289.284L406.372 288.137L405.293 288.272L404.618 288.609L403.674 288.744L403 289.284L402.46 290.161L401.718 290.363L401.448 290.565L400.909 290.903L393.355 292.117L384.789 295.894L376.223 299.603L368.669 303.583L367.32 304.257L366.51 304.932L366.241 305.067L365.903 305.202L364.892 305.741L363.813 305.876L363.475 306.011L359.968 309.788L359.361 309.99L359.024 309.518L358.282 308.776H358.079L358.012 308.709L357.607 308.574L352.077 308.507L350.997 308.372V308.102L350.458 307.967V303.246H350.121V302.774L342.701 304.257L337.575 305.269L333.798 304.392L332.854 304.055L330.358 303.246L329.144 302.639L323.546 299.603L322.939 299.334L321.927 299.131L321.725 298.996L321.455 298.862L319.769 298.12L318.69 297.445L318.42 297.31L317.543 296.703L316.194 296.164L314.576 295.961H313.294L312.417 295.624L311.81 296.164L311.136 295.961L310.394 295.826H309.45L308.303 295.624L306.954 294.882L306.01 294.612L305.403 294.747L304.391 294.343L303.919 293.736L302.975 292.454L302.503 291.712L298.793 286.654L297.916 286.316L294.948 286.046L294.544 285.979H294.476L294.072 285.912L291.846 285.507L290.969 285.305L289.755 284.9L282.808 283.011L280.852 282.337L279.84 282.134L278.086 282.202L276.13 282.472L274.242 282.134L270.87 282.202L269.993 282.876L264.664 282H263.787L257.178 284.09H257.11L255.154 268.375L254.277 246.522L254.345 244.836L254.412 244.499L254.547 244.296L260.28 242.812L260.55 242.745L260.82 242.812L261.09 243.015L264.327 245.982L266.485 248.883L269.251 251.716L270.6 252.188L272.286 251.85L286.99 252.053L287.394 251.985L288.338 251.648L297.781 245.848L299.265 245.173L304.863 243.419L314.441 242.678L321.523 243.217L321.59 242.812L321.388 242.071L320.241 238.833V237.956L320.444 237.214L321.388 236.405L321.658 235.933L321.995 235.191L322.332 233.909L322.602 233.033L325.907 225.883L326.446 224.871L330.426 222.713L333.663 220.217L334.203 219.61L334.608 219.003L335.957 216.44L336.159 215.968L336.226 215.496L342.499 215.631L342.904 216.171L343.039 216.373V216.508V216.643L342.971 217.182V217.52L343.039 218.599V218.734V218.868L342.971 219.071L342.769 219.408V219.61V219.745V219.948V220.083L342.836 220.42L342.904 220.622V220.824V221.162L342.836 221.769L342.769 222.106L342.701 222.308L342.769 222.578L343.511 224.197L343.983 224.736L344.455 225.141L345.871 225.613L354.37 226.962L362.194 227.839L367.59 228.379L368.736 228.648L369.141 228.918L371.569 233.37L372.783 235.123L373.323 236.203L373.592 236.877V237.417V237.956L373.862 238.631L374.199 239.17L375.751 240.452L377.167 241.329L378.651 241.936L379.258 242.071L385.193 241.126L386.88 240.856L387.757 240.587L389.173 239.98L390.859 238.631L392.208 237.889L403.135 234.112H403.674L404.551 234.247L405.9 234.921L406.305 234.988L408.193 234.719L411.296 233.707Z" fill="#A0B6BA" stroke="white" stroke-width="0.337239" stroke-linecap="round" stroke-linejoin="round"/>
<path d="M314.306 67.5156H314.238L313.226 68.1227L312.012 68.7972L311.203 69.6065L310.461 70.4159L310.259 70.6857L310.056 71.3602L309.921 71.6974L309.719 72.9115L309.314 73.8557L309.18 74.1255L308.505 74.8675L308.1 75.2047L307.696 75.6094L307.224 76.0815L306.684 76.8234L306.616 77.2281L305.807 78.3747L304.998 79.2516L304.593 79.926L304.458 80.4656V80.9378L304.526 81.4099L304.593 81.6797L304.795 81.9495L305.133 82.2193L306.144 82.8263L307.696 83.5008L309.314 84.0404L311.743 85.187L313.091 85.5917L314.643 86.3336L316.194 87.2104L316.734 87.75L317.408 88.4919L315.857 89.706L315.25 90.0432L314.98 90.1107H314.575L313.496 89.9083H313.159L312.754 89.9758L312.35 90.2456L312.215 90.3804L312.012 90.7177L311.405 92.4713L310.866 93.5505L310.663 93.8877L309.921 94.7646L309.045 95.5065L308.707 95.7088L307.831 96.1135L306.279 96.6531L305.47 96.7205L304.593 97.0578L303.177 97.395L302.03 97.8672L301.625 98.1369L301.288 98.4742L300.546 99.351L299.669 100.025L299.534 100.43L299.265 100.902L298.793 101.442L298.32 101.712L298.051 101.779L297.241 101.914L296.567 102.656L296.297 103.128L295.622 104.949L295.488 105.421V105.893V106.635L295.825 108.524L295.892 108.726L291.98 109.536L289.889 109.401L289.282 109.063L284.831 105.826L278.963 102.656L278.423 102.386L277.951 102.454L277.749 102.723L277.614 102.858L277.546 102.993L277.479 103.128V103.263L277.412 103.87L277.344 104.072L277.074 104.477L276.805 104.882L276.063 105.421L275.725 105.759V105.961V106.231L275.591 106.433L273.365 106.973H272.96L272.623 106.568L272.353 106.838L272.286 107.175L272.218 107.58L272.151 107.715L272.218 108.052L272.353 108.254L272.555 108.389L274.849 109.671L275.253 110.21V110.345V110.48L275.051 110.75L274.983 110.952L274.511 111.289L274.376 111.357L274.242 111.424H274.174L273.904 111.492L273.702 111.627L272.893 112.166L272.623 112.301L272.218 112.503V112.638V112.773L272.286 112.908V113.11L272.151 113.245L271.948 113.582L271.544 113.92L271.274 114.392L271.139 114.662L271.206 114.797L271.476 114.931L271.544 114.999L271.611 115.134L271.476 115.269L271.139 115.606L271.072 115.741L271.004 115.876L271.072 116.011L271.139 116.146V116.415L270.937 116.685L270.802 117.225L270.667 117.562V117.899V118.101L270.869 118.574V118.911L270.937 119.316L271.072 119.585L271.274 119.99L271.409 120.192L271.476 120.327L271.611 120.395L271.813 120.462L272.218 120.53L272.353 120.597L272.42 120.665L272.623 120.867L273.027 121.474L272.218 122.148L270.532 122.688L268.778 123.025L268.239 123.362L268.036 123.902L268.171 124.509V125.049L267.969 125.723L267.362 125.993L266.687 126.128L266.08 125.993L265.608 125.791L262.708 124.104L262.034 123.767L260.212 123.7L259.808 123.835L259.403 124.172L259.201 124.576L258.998 125.184L258.796 127.544L258.526 128.151L258.256 128.488L257.919 128.556L253.67 128.961L253.198 128.826L252.793 128.691L252.388 128.421L251.984 128.286L251.781 128.354L251.512 128.623L251.242 129.028L250.905 129.5L250.365 129.905L249.825 130.04L249.353 129.972L248.746 129.635L247.128 127.814L246.993 125.925L245.846 121.811L245.644 120.799L245.576 119.923L245.644 119.316L245.711 118.843L245.846 118.439L247.195 116.213L247.532 115.471L247.869 114.594L248.207 113.313V112.908L248.072 112.368L247.6 110.885L247.33 109.131L246.925 105.624L246.79 104.949L246.655 104.544L246.318 104.207L240.383 104.814L239.438 106.838L238.427 108.254L237.348 108.996L236.875 109.131L236.134 109.198L235.729 109.063L235.324 108.861L234.447 108.187L233.773 107.782L232.424 107.31L229.793 106.973L227.905 107.108L227.365 107.242L226.758 107.512L225.544 107.917L224.667 107.849L224.195 107.647L218.395 103.33L217.316 102.858L215.36 102.791L211.717 102.521L210.166 102.116L209.222 101.509L205.242 97.7323L204.77 97.0578L204.433 95.9786V95.5065V94.7646L204.635 93.8877L204.77 93.4156L205.04 92.7411L205.31 92.3364L206.187 91.1898L207.738 89.7734L209.424 88.6268L209.829 88.1547L210.031 87.8174L209.896 87.4802L209.222 86.4685L209.087 86.1312L208.952 85.8614L208.885 85.5242L208.817 85.2544V85.1195L209.087 85.2544L209.424 85.4568L209.627 85.9963L210.099 86.7383L211.043 87.2104L212.19 87.4802H212.932L213.741 87.2104L214.618 86.8057L216.236 85.5917L217.518 84.6474L218.125 83.9055L218.26 82.9612L218.058 82.4216L217.923 82.0844L217.99 81.8146L219.407 81.4773L221.16 80.6005L221.565 80.5331L221.97 80.668L222.644 81.4099L222.981 81.6122L223.318 81.4099L223.858 80.7354L224.465 80.1958L227.163 78.712L228.242 77.4979L231.21 70.9555L231.345 70.4834L231.412 69.8763L231.345 69.4042L231.21 68.4599L231.277 67.4482L231.884 65.6271L231.952 64.6828L231.817 63.9409L231.48 63.3339L231.008 62.9292L230.535 62.7269L229.321 62.5245L228.849 62.3222L227.365 61.1756L226.961 60.7709L226.691 60.2313L225.747 57.7357L225.14 56.1844L225.207 55.5774L226.016 54.3633L225.949 54.0261L225.342 53.554L225.072 53.2167L224.87 52.812L224.667 52.4748L223.791 51.9352L223.116 51.1933L222.577 50.3165L222.509 49.3722L223.723 46.7417L224.06 45.73L224.195 44.7183L224.33 44.3136L224.87 42.8972L224.937 42.4251L224.87 41.7506L224.6 40.7389V40.2667L224.735 39.7272L224.937 39.3225L225.477 38.5806L225.747 38.1759L226.623 36.1524L226.961 35.478L227.23 35.2082L227.5 35.1407L228.377 34.6686L228.849 34.6011L230.401 34.9384L230.603 34.3988L230.67 33.6569L230.535 32.3079L230.603 31.6334L230.805 31.0938L231.277 30.0147L231.412 29.4077L232.559 27.4517L234.312 26.6423L238.022 25.5631L238.629 25.0235L239.236 24.3491L239.776 23.5397L241.057 20.9092L241.327 19.4928L241.462 19.0207L242.204 18.009L242.339 17.5368L242.406 17.0647V15.9855L242.541 15.446L243.148 14.7715H243.89L244.092 14.9064L244.565 15.3111L244.834 16.2553L245.172 16.9973L245.779 17.4019L249.084 18.5486L249.758 18.9532L250.163 19.4928L250.5 20.0324L250.905 20.5045L251.444 20.8418L255.896 22.1233L258.256 22.1907L258.796 22.4605L260.212 23.8095L261.494 25.2933L262.775 26.5074L264.462 27.047L266.215 26.8446L268.374 27.2493L274.107 27.1819L275.253 27.8564L276.535 28.261L284.763 32.5103L285.64 33.3196L286.45 33.522H287.259L288.001 33.7243L288.743 34.3988L289.417 35.2756L290.092 35.6803H290.834L292.587 35.0058L293.464 34.9384L294.274 35.0733L295.69 35.6803L296.702 35.6128L297.241 35.6803L297.578 35.8826L298.59 36.6246L299.062 36.8269L300.614 36.692L300.951 36.8269L301.625 37.4339L301.963 37.6363L303.446 37.7037L303.919 37.9735L304.188 38.3108L306.009 39.5248L306.144 40.0644L305.875 40.6714L305.065 42.0878L304.998 42.4251L305.133 42.6949L305.268 43.2344L305.335 43.774V44.3136L305.2 45.3253L305.268 46.4719L305.605 47.686L306.144 48.7652L306.684 49.642L306.886 50.0467V50.4514L306.751 50.9235L306.549 51.2607L307.021 52.0701L306.886 52.8795L306.549 53.7563L306.347 54.5657L306.616 55.5099L307.156 56.117L308.37 56.9938L308.775 57.8706L308.572 58.5451L308.1 59.2196L307.763 59.9615L307.628 60.8383L307.831 61.7151L308.235 62.5245L308.707 63.1315L309.584 63.4688L311.473 63.7386L312.282 64.3456L313.631 66.9761L314.238 67.4482L314.306 67.5156Z" fill="#A0B6BA" stroke="white" stroke-width="0.337239" stroke-linecap="round" stroke-linejoin="round"/>
<path d="M295.892 108.726L295.825 108.524L295.488 106.635V105.893V105.421L295.623 104.949L296.297 103.128L296.567 102.656L297.241 101.914L298.051 101.779L298.321 101.712L298.793 101.442L299.265 100.902L299.535 100.43L299.67 100.025L300.546 99.351L301.288 98.4742L301.626 98.1369L302.03 97.8671L303.177 97.395L304.593 97.0578L305.47 96.7205L306.279 96.6531L307.831 96.1135L308.708 95.7088L309.045 95.5065L309.922 94.7645L310.664 93.8877L310.866 93.5505L311.405 92.4713L312.012 90.7177L312.215 90.3804L312.35 90.2455L312.754 89.9757L313.159 89.9083H313.496L314.576 90.1106H314.98L315.25 90.0432L315.857 89.7059L317.408 88.4919L316.734 87.75L316.194 87.2104L314.643 86.3336L313.092 85.5916L311.743 85.1869L309.315 84.0403L307.696 83.5008L306.145 82.8263L305.133 82.2192L304.796 81.9495L304.593 81.6797L304.526 81.4099L304.458 80.9377V80.4656L304.593 79.926L304.998 79.2515L305.807 78.3747L306.617 77.2281L306.684 76.8234L307.224 76.0815L307.696 75.6094L308.101 75.2047L308.505 74.8674L309.18 74.1255L309.315 73.8557L309.719 72.9114L309.922 71.6974L310.057 71.3602L310.259 70.6857L310.461 70.4159L311.203 69.6065L312.012 68.7971L313.227 68.1227L314.238 67.5156H314.306L317.004 68.1901L319.364 70.0112L320.174 70.3484L321.05 70.5508L324.018 70.1461L325.367 70.5508L326.109 72.1021L326.379 72.9789L326.784 73.5185L327.391 73.7208L329.279 73.5185L329.886 73.6534L330.561 73.9906L331.707 74.8L332.989 75.407L334.27 75.4745L336.496 73.8557H337.643L340.071 74.9349L341.352 75.2047L342.904 74.9349L344.387 74.3278L345.332 73.2487L345.736 72.5742L346.748 71.8323L347.288 71.2927L349.109 72.9114L350.593 74.9349L350.795 75.407L351.065 76.3513L351.132 76.8909L351.2 77.9026L352.346 79.1166L352.211 79.319L352.076 79.5888L351.739 79.7237L351.335 79.8586L350.458 79.926L350.39 81.4773L350.458 82.489L350.593 83.0961L350.795 83.6356L351.537 84.6474L353.695 87.008L354.1 87.6825L354.572 88.6268L353.425 89.8408V92.876L353.358 93.8877L353.223 94.4947L352.818 96.1135L352.346 96.9903L351.942 98.1369L351.604 100.025L351.132 101.981L350.862 104.207L350.525 105.624L349.581 105.151L349.041 105.017L348.299 104.882L347.827 104.949L347.355 105.084L347.153 105.219L346.006 106.366L343.308 105.489L342.566 105.219L341.757 105.961L340.61 107.512V109.131L344.118 110.143L345.197 110.278L346.343 110.817L346.95 111.222L347.827 111.626L348.704 112.503L349.581 113.245L350.188 114.055L350.93 114.797L350.862 114.999L350.66 115.404L350.458 115.673L350.593 115.876L350.323 116.348L350.525 118.439L350.66 119.585L350.862 122.081V124.307L350.795 125.521L350.458 126.802L350.255 127.207L350.053 127.409L349.041 128.151L348.232 128.961L347.557 130.175L347.085 131.524L346.883 132.063L346.074 133.412L346.883 134.289L347.827 135.705L347.962 136.312L348.097 137.796L348.906 138.336L350.053 138.74L351.132 138.943L353.088 139.01L353.291 138.943L353.493 138.808L353.763 138.875L353.898 138.943L354.032 139.078L354.1 139.348L354.167 140.089L353.763 140.494L353.83 141.843L353.898 142.72L354.707 145.822L355.112 147.104L353.156 147.306H350.66L350.39 147.981L349.851 148.858H348.367L347.355 148.925L346.883 148.993L346.006 149.33L343.578 150.949L342.769 151.758L341.892 152.567L342.229 153.646L342.431 153.984L342.701 154.321L343.106 154.726L343.713 155.4L343.848 155.67L343.915 156.075V156.479L343.443 157.356L342.027 157.761L339.666 158.3L338.047 158.503L337.643 158.435L336.968 158.368L336.496 158.3L335.822 158.368L334.473 158.705L334.338 157.558L334.135 156.209L332.854 154.928L332.044 154.321L330.83 153.174L329.954 152.567L329.144 151.825L328.537 150.949L328.065 150.341L327.458 149.33L327.053 148.318L326.446 147.306L325.502 146.025L325.03 145.688L324.625 145.485L324.153 145.418L323.276 145.35L322.804 144.541L322.197 143.192L322.062 142.787L321.792 141.978L320.713 141.438L319.432 140.831L319.095 140.562L318.757 140.224L318.622 140.022L318.555 139.482L318.353 137.392L318.083 135.975L317.88 135.233L317.341 134.289L316.801 133.48L316.397 132.603L315.452 131.254L314.508 130.31L313.429 130.175H312.485L312.08 130.04L311.608 129.905L310.394 128.961L310.057 128.691L309.517 128.016L309.315 126.398L309.045 125.656L308.573 125.116L307.628 124.442L307.291 124.104L307.021 123.7L306.819 123.295L306.684 122.688L306.752 121.879V121.406L306.279 118.101L305.538 115.538L304.998 114.189L304.189 114.662L303.379 115.201L302.84 115.336H302.435L302.03 115.201L301.693 114.999L301.491 114.594L301.288 114.055L301.086 113.65L300.614 113.11L300.209 112.841L300.007 112.706L299.535 112.638L298.793 112.571L297.848 111.964L297.444 111.559L297.039 111.222L296.365 110.345L296.095 109.805L295.892 108.726Z" fill="#A0B6BA" stroke="white" stroke-width="0.337239" stroke-linecap="round" stroke-linejoin="round"/>
<path d="M99.4167 117.36V116.82L99.4841 116.078V115.876L99.4167 115.673L99.3492 115.404L98.6747 113.043L98.4049 112.368L98.3375 112.233L98.1352 111.964L97.5281 111.357L97.1234 110.615L96.9885 110.412L96.8537 110.277L96.5839 110.143L95.1675 109.67L94.6953 109.333L94.4255 109.063L93.2789 106.5L92.8742 105.219L92.8068 105.151L92.6044 105.017L92.4695 104.814L91.2555 102.926L91.1206 102.723L91.0531 102.454V102.319V102.116V101.981L91.1206 101.644V101.509V101.307L91.0531 100.498L90.9857 100.16L90.8508 100.025L90.7159 99.958L90.2438 99.8905L88.3552 99.6207L87.2761 99.5533L86.7365 99.2835L86.669 99.2161L86.6016 99.0812L86.2643 98.3392L86.1969 98.002L86.1295 97.9345V97.6648V97.5299L86.1969 97.1926L86.062 96.7205L85.8597 96.2483L83.8362 94.5622L80.2615 92.8085L79.7894 92.2689L79.587 92.0666L79.4521 91.9317L79.3172 91.5945L79.2498 91.2572L79.1149 90.9874L78.98 90.6502L78.9125 90.5153L78.5753 89.0989L78.3055 88.4244L77.024 86.401L76.9566 86.1312L76.8891 85.7939L76.8217 85.5916V84.8497V84.7148L76.6193 83.7705L76.0797 81.9494L75.6076 80.6679L75.4727 80.4656L75.3378 80.3307L75.1355 80.1283L74.1237 79.5213L73.6516 79.2515L73.7191 78.6445L73.854 77.8351L74.1237 77.2955L74.7308 76.8908L77.2263 76.3513L77.9683 75.9466L80.2615 74.1929L80.6662 74.058L81.4756 73.9231L81.8128 73.7882L82.7571 72.9789L83.6339 72.9114L85.2526 73.2487H86.062L86.4667 73.1138L86.7365 72.9789L87.0737 72.7091L87.3435 72.3044L87.411 71.8997V71.0229L87.6133 70.6856L88.2878 70.281L89.7716 69.8088L90.4461 69.2692L91.7951 67.5156L92.3346 67.0435L93.0091 66.7062H95.2349L95.9094 66.5039L97.7305 65.4922H98.4724L100.091 65.8294L100.698 65.6271L101.035 65.1549L101.17 64.4804L101.373 63.8734L101.845 63.4013L103.801 62.5919L104.273 62.0523L105.217 60.2312L105.757 59.7591L107.106 58.9497L108.522 58.4101L109.939 58.2753L113.041 58.8823L114.862 58.8148L116.481 57.8706L117.493 55.7122V55.1727V54.6331L117.628 54.1609L117.897 53.7562L118.235 53.5539L118.707 53.3516L119.179 53.4865L119.449 53.8911L119.853 55.1052L120.325 55.8471L120.933 56.3193L121.674 56.6565L122.416 57.1961L123.496 58.8148L124.237 59.2195H124.642L125.114 59.0172L125.519 58.6799L125.856 58.2753L126.059 57.8031L126.193 56.7914L126.328 56.3193L127.003 55.7797L128.217 55.5773L129.431 55.6448L130.173 56.1169L130.443 57.1961V58.6125L130.78 59.8265L130.982 60.4336L131.117 60.7708L131.387 60.9732L131.724 61.1755L132.938 61.5127H133.545L134.49 61.4453L138.941 61.1755L141.167 61.9174L147.844 62.1872L154.522 62.5245L154.926 62.7268L155.196 63.1315L155.263 63.6036L155.331 64.6828L156.073 66.5713L156.208 67.3133L156.343 70.4159L156.545 71.9671L156.747 72.7091L157.017 73.3161L157.422 73.8557L159.041 74.5302L159.378 74.8674L159.513 75.2046L159.58 75.6768L159.715 76.0815L159.917 76.4862L160.727 77.2955L160.929 77.6328L161.266 78.5096L161.469 78.7794L161.873 78.9143L162.413 78.8468L164.234 78.1723L167.539 78.0374L168.146 78.1723L168.686 78.6445L169.09 79.5887L169.427 80.2632L169.562 80.4656L170.507 81.0052L175.835 80.9377L176.644 81.2075L177.521 81.882L177.858 82.2867L178.128 82.489L177.791 83.0286L177.858 83.9729L178.128 85.2544L178.263 86.8731V87.2778L178.196 87.4127L178.128 87.6825L177.791 88.6942L177.656 89.3687V90.1106L177.858 90.9874L178.331 92.134L178.533 92.7411L178.803 93.8877L178.938 94.2924L179.275 94.7645L179.814 95.1692L180.961 95.8437L181.433 96.2483L181.77 96.7879L182.04 97.3275L182.175 98.1369L182.108 99.7556L180.489 103.061L180.287 103.937V104.882L180.421 105.691L180.556 106.433L180.421 107.107L180.152 107.849L180.017 108.524L179.949 109.131V110.075V110.345L179.68 111.492L179.005 112.841L178.398 113.11L176.847 113.178L175.97 113.313L174.486 114.729L173.137 115.471L170.844 116.752L168.348 117.427L165.111 117.764L163.357 117.562L163.222 117.494L162.345 116.955L161.806 116.752L159.513 116.82L158.703 116.685L153.24 114.459H152.431L144.539 118.641L144.067 119.248L143.19 120.732L142.516 121.339L141.774 121.879L140.762 123.025L139.616 126.128L137.862 125.183L137.457 124.846L136.243 123.497L135.771 123.16L135.704 123.025L135.569 122.823L135.501 122.688L135.434 122.351L135.299 121.609L135.164 120.867V120.732L135.097 120.53L135.029 120.395L134.894 120.192L134.557 119.788L133.006 118.978L132.736 118.776L132.668 118.708L132.534 118.574L132.331 118.506L131.387 118.304L130.78 118.371L130.038 118.641L129.094 119.383L128.284 120.327L127.407 121.069L126.463 121.474L124.372 120.934L117.425 119.248L117.155 119.383L116.279 120.057L115.806 120.125L115.469 119.855L115.065 119.046L114.39 117.09L113.985 116.28L113.446 115.673L112.974 115.606L112.636 115.673L112.164 115.876H111.827L111.422 115.606L110.141 110.615L109.939 110.143L109.601 109.805L109.129 109.468L108.455 109.333L107.78 109.468L106.903 109.805L105.015 110.952L104.408 111.559L103.194 113.582L101.373 116.078L100.293 117.022L99.4167 117.36Z" fill="#A0B6BA" stroke="white" stroke-width="0.337239" stroke-linecap="round" stroke-linejoin="round"/>
<path d="M350.526 105.624L350.863 104.208L351.133 101.982L351.605 100.026L351.942 98.1372L352.347 96.9906L352.819 96.1138L353.223 94.4951L353.358 93.888L353.426 92.8763V89.8412L354.572 88.6271L354.1 87.6828L353.696 87.0084L351.537 84.6477L350.795 83.636L350.593 83.0964L350.458 82.4894L350.391 81.4776L350.458 79.9263L351.335 79.8589L351.74 79.724L352.077 79.5891L352.212 79.3193L352.347 79.117L351.2 77.9029L351.133 76.8912L351.065 76.3516L350.795 75.4073L350.593 74.9352L349.109 72.9118L347.288 71.293L347.76 70.7534L348.367 70.4162L349.649 70.079L351.605 70.1464L352.212 70.0115L352.684 69.7417L353.426 68.9998L353.898 68.8649H355.652L356.191 68.73L357.338 67.9206L357.81 67.7857L358.417 67.6508L360.643 67.9206H361.182L361.654 67.7857L362.194 67.5159L364.217 65.6949L364.959 65.2902L365.904 65.1553L371.839 66.774L374.537 66.5717L375.009 66.7066L375.953 67.1113L376.898 67.3136L377.909 67.3811L378.449 67.4485L379.461 68.3253L379.528 68.5277V68.7975L379.596 69.0672L379.663 69.337L379.798 69.4719L381.282 69.6068L381.821 69.8766L382.563 70.4836L382.968 70.686L383.373 70.7534L387.082 69.6068L389.173 69.4045L391.264 69.6743L392.95 70.2139L393.76 70.686L396.592 73.1816L397.267 73.5188L397.469 73.7886L397.739 74.9352L397.874 75.205L398.279 75.6097L398.413 75.812L398.548 76.1493L398.683 76.8912L398.886 77.161L399.155 77.4308L399.695 77.7006L399.965 77.9029L400.909 78.7797L401.449 79.1844L402.056 79.4542L402.663 79.3868L403.135 79.117L403.607 79.0495L404.754 80.0612L411.701 80.1961L411.97 80.331L412.105 80.3985L412.78 80.9381L413.185 81.0055L413.792 80.9381H413.994L414.938 81.2753L415.815 81.3427L416.017 81.6125L415.95 82.4219L415.815 82.894L415.613 83.2987L415.545 83.7709V84.3779L415.882 85.7943L416.017 86.8735V87.2781L415.882 87.6154L415.478 88.762V89.0992L415.68 89.3016L416.152 89.369L416.894 89.3016L417.164 89.5714L416.962 90.1784V90.6505L417.164 91.1227L417.501 91.5274L418.85 92.5391L419.255 92.7414L420.874 92.9438L421.346 93.1461L421.616 93.4833L421.818 93.8206L421.953 94.2253L422.155 94.63L423.234 95.9789L425.865 98.3396L427.079 99.149L427.686 99.2164L427.079 102.117L426.809 105.152L426.067 105.084H425.46L423.234 105.422L422.56 105.624L421.211 106.231L419.997 106.973L419.727 107.31L419.255 107.85L418.513 108.457L416.759 107.175L416.287 106.973L415.613 106.703L415.073 106.568L414.331 106.501H412.915L412.375 106.568L411.229 106.905L410.622 107.108L409.273 108.12L407.924 109.401L408.935 111.29L409.205 111.627L409.745 112.099L410.959 112.706L411.363 112.908L411.498 113.111L411.701 113.515L411.836 113.987L411.768 114.662L411.296 115.809L410.959 116.955L410.622 117.899L410.284 118.776L410.082 119.114L409.947 119.316L409.542 119.518L409.138 119.586L408.126 119.451H407.789L407.451 119.586L406.844 119.99L406.035 120.395L404.888 120.8L402.595 121.542L401.786 120.53L401.516 120.26L401.111 120.058L400.639 119.855L399.965 119.788L399.223 119.855L397.739 120.26H397.402L395.985 120.193L395.378 120.328L395.041 120.462L394.502 120.935L394.029 121.474L393.22 122.216L392.68 122.486L392.006 122.688H391.399L389.645 122.284L388.903 122.014L387.824 121.407L387.622 120.935L387.285 120.597L384.317 119.181L382.024 117.765L381.417 118.237L380.945 118.574L380 118.911L379.056 118.304L378.719 117.967L378.516 117.765L378.921 116.685L379.258 115.539V114.797L379.123 114.325L378.989 114.122L378.651 113.718L378.044 113.246L377.437 113.043L375.549 112.639L372.041 113.515L370.827 113.92L370.355 114.19L369.411 114.797L368.129 115.809L368.399 116.55L368.736 118.102L369.074 119.046L367.792 119.721L366.511 120.328L365.432 120.935L364.825 121.339L364.42 121.474L363.273 121.677L362.869 121.811L361.587 122.486L361.182 122.823L360.778 122.958L360.373 123.025H359.901L358.889 122.756L357.675 122.216L356.326 121.811L355.382 121.474L354.033 120.867L350.66 119.586L350.526 118.439L350.323 116.348L350.593 115.876L350.458 115.674L350.66 115.404L350.863 114.999L350.93 114.797L350.188 114.055L349.581 113.246L348.704 112.504L347.828 111.627L349.581 110.48L350.458 109.738L351.065 109.131L351.335 108.794L351.47 108.389V107.985L351.267 107.512L350.728 106.433L350.526 105.624ZM385.666 93.4159L385.059 93.281L384.115 93.0112L383.305 92.6065L382.496 91.9995L381.619 91.5948L381.012 91.1901L380.203 90.8529L379.461 90.6505L379.663 89.9761L380 89.0992L381.079 87.8177L381.282 87.4805L381.349 87.3456L381.417 86.9409V86.2664L381.282 84.5802L379.73 85.1198L379.528 85.2547L379.461 85.3222L378.921 86.4688L378.516 87.0758L378.247 87.3456L377.977 87.4805L376.83 88.2899L376.695 88.4922L376.223 89.369L376.021 89.7063L375.549 90.111L375.684 91.0552L376.021 91.8646L376.088 92.4716L376.223 93.0112L376.56 93.6182L376.695 93.9555L376.763 94.2927V94.3602V95.0346L376.695 96.3162L376.56 96.8557L376.088 99.756L375.818 102.049L375.414 104.14L375.077 104.882L376.223 105.354L376.965 105.624L379.056 105.961H379.461L379.933 105.894L380.405 105.759L380.607 105.691L381.012 105.354L381.686 104.612L382.901 103.87L384.047 103.466L384.519 103.398L385.531 103.331L386.138 104.208L387.082 104.882L387.689 105.219L390.185 106.164L392.343 105.556L393.962 104.882L393.894 102.656L393.625 101.037L393.76 99.4862L393.962 97.9349L394.029 96.1138L393.962 94.9672L393.827 94.4276L393.557 93.888L393.355 93.5508L392.815 93.0112L392.478 92.8089L391.804 92.4716L391.197 92.0669L390.59 91.7972L388.364 90.9878L387.689 92.1344L387.285 92.6065L386.543 93.2135L386.138 93.3484L385.666 93.4159Z" fill="#A0B6BA" stroke="white" stroke-width="0.337239" stroke-linecap="round" stroke-linejoin="round"/>
<path d="M140.223 147.981L138.537 144.946L136.244 141.776L136.041 141.236V140.494L135.974 139.685L135.772 138.673L135.367 137.594L134.558 134.963L135.907 134.086L136.918 133.21L139.212 130.782L139.819 129.905L140.088 129.298L140.156 129.095L140.223 128.826V128.286V128.016V127.814L140.358 127.544V127.409L140.426 127.342L140.493 127.274V127.139V126.937L140.426 126.802L140.223 126.6L139.616 126.128L140.763 123.025L141.775 121.878L142.516 121.339L143.191 120.732L144.068 119.248L144.54 118.641L152.431 114.459H153.241L158.704 116.685L159.513 116.82L161.807 116.752L162.346 116.955L163.223 117.494L163.358 117.562L165.111 117.764L168.349 117.427L170.845 116.752L173.138 115.471L174.487 114.729L175.971 113.313L176.847 113.178L178.399 113.11L179.006 112.84L179.68 111.491L179.95 110.345V110.075V109.131L180.017 108.524L180.152 107.849L180.422 107.107L180.557 106.433L180.422 105.691L180.287 104.882V103.937L180.49 103.06L182.108 99.7556L182.176 98.1368L182.041 97.3274L181.771 96.7879L181.434 96.2483L180.962 95.8436L179.815 95.1691L179.275 94.7644L178.938 94.2923L178.803 93.8876L178.534 92.741L178.331 92.134L177.859 90.9873L177.657 90.1105V89.3686L177.792 88.6941L178.129 87.6824L178.196 87.4126L178.264 87.2777V86.873L178.129 85.2543L177.859 83.9728L177.792 83.0285L178.129 82.4889L178.196 82.5564L178.601 82.7587L178.938 82.6238L179.275 82.2866L179.748 81.5447L180.152 81.2749L182.041 81.0051L182.783 80.6004L183.525 79.5887L184.064 79.0491L184.806 78.7793L185.548 78.9142L186.02 79.5887L186.29 80.398L186.627 81.0051L187.099 81.2074L187.639 80.8027L187.841 80.398L188.044 80.0608L188.314 79.791L188.583 79.5887L188.853 79.4538L189.19 79.3863L189.46 79.4538L189.73 79.5887L192.563 80.8702L193.44 81.5447L194.249 82.4215L194.721 82.6913L195.193 82.7587L195.733 82.5564L196.677 81.9493L197.149 81.6795H197.689L198.093 81.8819L198.363 82.2866L198.633 82.9611L198.903 83.4332L199.24 83.5681L199.645 83.4332L200.049 83.096L201.061 82.0168L201.466 81.9493L206.592 82.7587L207.266 83.3657L207.941 84.5798L208.278 84.917L208.818 85.1194V85.2543L208.885 85.5241L208.953 85.8613L209.087 86.1311L209.222 86.4683L209.897 87.4801L210.032 87.8173L209.829 88.1545L209.425 88.6267L207.738 89.7733L206.187 91.1897L205.31 92.3363L205.041 92.741L204.771 93.4155L204.636 93.8876L204.434 94.7644V95.5063V95.9785L204.771 97.0576L205.243 97.7321L209.222 101.509L210.167 102.116L211.718 102.521L215.36 102.791L217.316 102.858L218.395 103.33L224.196 107.647L224.668 107.849L225.545 107.917L226.759 107.512L227.366 107.242L227.905 107.107L229.794 106.972L232.424 107.31L233.773 107.782L234.448 108.187L235.325 108.861L235.729 109.063L236.134 109.198L236.876 109.131L237.348 108.996L238.427 108.254L239.439 106.838L240.383 104.814L246.319 104.207L246.656 104.544L246.791 104.949L246.926 105.624L247.33 109.131L247.6 110.884L248.072 112.368L248.207 112.908V113.313L247.87 114.594L247.533 115.471L247.195 116.213L245.846 118.439L245.712 118.843L245.644 119.315L245.577 119.922L245.644 120.799L245.846 121.811L246.993 125.925L247.128 127.814L241.193 130.579L240.113 130.714L239.506 130.984L238.967 131.591L238.292 132.94L237.753 133.614L236.943 134.154L235.46 134.626L231.413 134.694L230.873 134.896L230.401 135.166L230.064 135.57L229.794 135.908L229.322 137.391L229.457 138.133L230.131 139.82L230.401 140.831L230.468 141.573L230.333 142.18L229.524 144.878L229.457 145.553L229.524 146.092L229.726 146.564L230.333 146.902L230.873 147.104L233.706 147.441L233.773 147.643V147.846V148.183L233.638 148.925L233.504 149.465L233.301 150.004L232.964 150.679L232.424 151.623L231.548 152.567L231.278 152.972V153.646L231.413 154.186L231.548 154.725L231.278 155.535L230.738 156.681L229.187 159.042L228.04 159.514L226.894 159.784L225.073 159.852L224.398 159.919L223.858 160.256L223.521 160.796L223.386 161.605L223.319 162.482L223.184 163.291L220.216 172.532L219.407 174.555L219.272 175.162L219.339 176.713L217.788 176.309L216.439 175.432L215.495 174.825H214.686L214.348 174.892L214.213 174.96L214.146 175.095L213.876 175.567L213.674 175.769L212.662 176.713L212.055 177.118L211.718 177.186L211.246 177.253H210.976L210.774 177.186L210.369 176.916L210.032 176.781H209.897L207.873 176.713L206.929 176.579L206.794 176.309L206.727 175.904L206.794 174.96L206.592 174.488L205.243 173.004L204.703 172.06L204.366 171.183L204.231 170.441L204.029 168.687L202.41 167.878L201.736 167.473L201.061 167.338L196.137 168.89H195.463L195.261 167.203L194.991 166.596L194.586 165.45L194.181 163.494L193.777 162.752L192.698 161.335L192.225 160.324L191.821 158.907L191.551 158.503L191.146 158.03L190.472 157.693L190.202 157.626L189.662 157.356L182.715 152.904L181.434 151.96L180.287 150.814L180.085 150.746L179.478 150.544L178.803 150.206L177.994 149.599L173.138 149.33L172.598 149.532L171.789 150.004L171.114 149.937L170.777 149.599L170.575 149.397L170.372 149.06L170.103 148.52L169.765 147.981L169.361 147.374L169.023 146.969L168.416 146.699L166.798 146.16L166.258 146.227L165.651 146.16L165.449 146.227L164.774 146.497L164.437 146.564L162.211 146.632L159.716 146.362L157.49 145.62L156.141 145.418L155.939 145.35L155.669 145.215L155.062 144.676L154.59 144.339L153.78 144.001L152.769 143.799H152.094L151.554 143.934L149.733 145.148L147.238 146.497L144.877 147.441L140.223 147.981Z" fill="#A0B6BA" stroke="white" stroke-width="0.337239" stroke-linecap="round" stroke-linejoin="round"/>
<path d="M495.538 95.9111V95.9786L496.954 98.002L497.021 98.2044V98.3393L496.954 98.5416L496.819 98.8114L496.482 99.0812L496.414 99.2161L496.347 99.351L496.414 100.7L497.021 104.612L497.763 106.77L497.831 107.58V108.119L497.359 109.536L497.156 110.21L497.493 111.222L498.235 112.975L501.945 119.923L503.092 122.823L503.429 123.969L503.631 125.588V127.274L503.159 128.488L502.889 130.444L503.361 135.301L504.373 137.257L504.576 137.661L505.385 139.348L506.194 142.922L504.845 143.125L504.71 143.192L504.238 143.529L503.969 143.597L502.957 143.732L497.089 145.957L496.01 146.699L495.605 147.104L495.268 147.509L494.998 147.913L494.796 148.318L494.661 148.723L494.526 149.195L494.458 149.734L494.323 151.151V152.028L494.458 153.309L494.796 154.995L492.57 154.861L490.142 154.388H489.737L489.467 154.456L488.658 154.793L487.781 155.333L487.241 155.872L485.285 158.098L484.611 159.245L484.341 159.987L484.139 160.796L483.464 165.989L482.992 167.945L481.643 170.576L479.89 173.678L479.418 174.69L479.148 175.769L479.08 177.928V178.535L479.283 179.411L479.89 181.502L480.025 182.109L480.092 182.649L479.957 183.189L479.822 183.661L478.608 185.414L478.406 185.886L478.338 186.224L478.406 187.101L474.764 190.473L473.482 191.35H472.403L471.121 190.878L467.142 188.382L465.523 186.763L464.916 185.752L464.377 184.065L464.039 183.256L463.635 182.716L460.532 179.479L459.453 177.793L458.913 176.714L458.374 176.174L457.902 175.904L456.822 175.837L456.013 175.972L455.811 176.309V177.118L456.283 179.681L456.35 180.221L456.283 180.693L455.541 183.256L454.934 184.605L454.799 184.875L451.764 187.37L450.887 187.91L450.01 188.247L445.289 188.719L443.4 188.517L440.568 186.494L440.028 186.021L439.623 185.414L439.016 183.796L438.544 182.919L436.79 181.165L436.183 179.884L436.049 179.681L435.914 179.209V178.939V178.4V178.063L436.049 177.456L436.251 176.916L437.667 174.218L438.005 173.341L438.139 172.599L438.207 172.06L438.139 171.318L438.072 170.508L437.87 169.766L437.6 169.362L437.263 169.227L436.925 169.429L436.588 169.766L435.914 170.778L435.779 170.846L435.576 170.913L435.374 170.711V170.508L435.442 168.552L435.374 167.945L435.307 167.541L434.969 166.462L432.609 165.382L431.327 164.371L430.72 163.764L430.046 162.954L429.843 162.415L429.506 161.335L428.764 159.11L428.494 158.772L427.887 158.098L427.685 157.761L427.28 156.142V155.872L427.145 155.67L425.999 154.388L425.797 154.186L425.594 153.646L425.257 152.365L425.122 152.163L424.92 152.028L424.717 151.893L424.515 151.758L424.38 151.421L424.515 150.949L424.785 150.544L424.987 150.072L425.055 149.397L424.92 149.06L424.717 148.655L424.65 148.318L424.717 148.048L424.92 147.846L425.055 147.711L425.257 147.509L425.931 146.16L426.066 145.688L426.134 145.418V144.743V144.608L426.269 144.339L426.134 144.136L425.931 143.934L425.797 143.664L425.864 142.72L425.797 142.383L425.594 141.236L425.662 140.899L425.999 140.359L426.066 139.955L427.348 139.685L428.292 139.415L428.764 139.213L429.574 138.74L429.911 138.471L430.72 137.729L431.867 136.582L432.541 135.975L432.811 135.773L433.486 135.436L433.688 135.301L433.958 135.031L434.227 134.356L434.497 133.007L434.902 131.861L435.307 131.186L435.644 130.849L435.914 130.647L436.251 129.972L436.588 129.028L436.656 128.286L436.588 127.612L436.251 125.925L435.711 124.509L435.442 123.362L434.969 121.676L434.362 118.304L434.025 117.36L433.62 116.415L433.486 115.943L433.283 114.527L433.148 114.055L432.406 112.706L431.597 110.682L430.923 109.468L430.181 108.659L429.034 107.512L428.629 107.107L428.225 106.77L427.887 106.298L427.348 105.893L426.808 105.151L427.078 102.116L427.685 99.2161L428.427 99.2835L431.192 98.7439L433.216 98.8114L434.565 98.5416L436.521 99.1486H436.993L438.949 98.609L441.377 98.8788L441.849 99.0137L442.321 99.2835L443.333 99.6882L443.738 99.8906L444.48 99.8231L444.749 99.958L444.817 100.16L444.884 100.632L444.952 100.902L445.289 101.037L445.761 101.24L449.808 100.97L450.887 101.374L451.494 102.116H451.764L453.315 102.521L458.441 104.005L459.251 103.937L460.06 103.6L460.869 102.993L461.544 102.319L461.881 101.914L462.016 101.712H462.286L463.23 102.791L463.567 103.061L464.646 103.33L466.468 104.477L467.277 104.747L468.086 104.814L468.896 104.747L470.987 104.005L473.347 102.656L476.652 100.228L479.215 99.2835L479.62 99.0812L480.159 98.3393L480.497 98.0695L480.969 98.002L481.374 98.1369L482.25 98.609L482.722 98.7439H483.195L483.599 98.609L485.758 97.4624L486.634 97.1926L493.649 96.7205L495.538 95.9111Z" fill="#A0B6BA" stroke="white" stroke-width="0.337239" stroke-linecap="round" stroke-linejoin="round"/>
<path d="M385.665 93.4157L386.138 93.3483L386.542 93.2134L387.284 92.6064L387.689 92.1342L388.363 90.9876L390.589 91.797L391.196 92.0668L391.803 92.4715L392.478 92.8087L392.815 93.011L393.355 93.5506L393.557 93.8879L393.827 94.4275L393.962 94.967L394.029 96.1136L393.962 97.9347L393.759 99.486L393.624 101.037L393.894 102.656L393.962 104.882L392.343 105.556L390.184 106.163L387.689 105.219L387.082 104.882L386.138 104.207L385.531 103.331L384.519 103.398L384.047 103.465L382.9 103.87L381.686 104.612L381.012 105.354L380.607 105.691L380.405 105.759L379.932 105.894L379.46 105.961H379.056L376.965 105.624L376.223 105.354L375.076 104.882L375.413 104.14L375.818 102.049L376.088 99.7558L376.56 96.8556L376.695 96.316L376.762 95.0345V94.36V94.2926L376.695 93.9553L376.56 93.6181L376.223 93.011L376.088 92.4715L376.02 91.8644L375.683 91.0551L375.548 90.1108L376.02 89.7061L376.223 89.3689L376.695 88.492L376.83 88.2897L377.976 87.4803L378.246 87.3454L378.516 87.0756L378.921 86.4686L379.46 85.322L379.528 85.2546L379.73 85.1197L381.281 84.5801L381.416 86.2663V86.9407L381.349 87.3454L381.281 87.4803L381.079 87.8176L380 89.0991L379.663 89.9759L379.46 90.6504L380.202 90.8527L381.012 91.19L381.619 91.5946L382.495 91.9993L383.305 92.6064L384.114 93.011L385.058 93.2808L385.665 93.4157Z" fill="#A0B6BA" stroke="white" stroke-width="0.337239" stroke-linecap="round" stroke-linejoin="round"/>
<path d="M432.61 165.382L431.328 168.62L431.058 168.957L430.384 169.632L429.035 170.373L426 171.857L423.639 171.52L420.739 170.98H419.053L417.839 171.25L416.894 171.52L416.017 171.992L414.129 172.397L413.994 173.476L413.859 174.555L413.724 176.241L413.657 176.646L413.454 177.118L413.32 177.321L412.982 177.658L412.78 177.793L412.308 177.928L410.689 178.13L409.812 178.467L409.408 178.737L409.273 178.872L408.261 180.356L407.991 180.625L407.654 180.895L405.698 181.637L404.754 181.907L404.282 181.974L401.246 182.109L399.695 182.312L398.548 181.502L397.739 180.76L396.592 179.614L395.851 178.872L394.636 178.197L393.962 177.995L392.073 177.59H390.792H389.106H385.464L381.821 177.523L381.619 176.983L381.484 176.781L381.147 176.444L380.742 176.174L378.719 175.567L378.044 175.297L377.168 174.69L375.953 173.543L375.616 173.274L375.414 173.206L374.942 173.139L374.267 173.206L372.986 173.476L372.244 173.813L370.558 176.174L370.153 176.646L368.737 178.535L367.253 181.3L366.308 180.491L365.567 179.951L365.094 179.546L363.948 178.872L362.666 178.4L360.778 177.793L359.024 177.118L357.338 179.277L356.663 179.951L355.584 180.693L353.021 182.919L352.617 182.514L352.144 181.84L351.268 181.03L348.839 179.344L348.502 179.074L348.367 178.804L348.165 178.4L348.098 177.928V175.297L348.03 174.825L347.895 174.285L347.693 173.746L347.153 173.004L346.749 172.127L346.411 171.655L345.804 170.778L345.062 169.834L345.872 168.957L346.344 168.552L346.681 168.417L347.221 168.35L347.356 167.136L347.423 166.394L347.356 165.787L347.221 165.315L347.086 164.91L346.883 164.573L346.142 163.764L344.927 162.684L344.253 161.875L344.051 161.538L343.713 160.661L343.444 159.042L343.376 158.3L343.444 157.356L343.916 156.479V156.075L343.848 155.67L343.713 155.4L343.106 154.726L342.702 154.321L342.432 153.984L342.23 153.646L341.892 152.567L342.769 151.758L343.579 150.948L346.007 149.33L346.883 148.992L347.356 148.925L348.367 148.858H349.851L350.391 147.981L350.661 147.306H353.156L355.112 147.104L354.707 145.822L353.898 142.72L353.831 141.843L353.763 140.494L354.168 140.089L354.1 139.347L354.033 139.078L353.898 138.943L353.763 138.875L353.493 138.808L353.291 138.943L353.089 139.01L351.133 138.943L350.054 138.74L348.907 138.336L348.098 137.796L347.963 136.312L347.828 135.705L346.883 134.289L346.074 133.412L346.883 132.063L347.086 131.524L347.558 130.175L348.232 128.96L349.042 128.151L350.054 127.409L350.256 127.207L350.458 126.802L350.795 125.521L350.863 124.307V122.081L350.661 119.585L354.033 120.867L355.382 121.474L356.326 121.811L357.675 122.216L358.889 122.755L359.901 123.025H360.373L360.778 122.958L361.182 122.823L361.587 122.486L362.869 121.811L363.273 121.676L364.42 121.474L364.825 121.339L365.432 120.934L366.511 120.327L367.792 119.72L369.074 119.046L368.737 118.101L368.399 116.55L368.13 115.808L369.411 114.796L370.355 114.189L370.827 113.92L372.041 113.515L375.549 112.638L377.437 113.043L378.044 113.245L378.651 113.717L378.989 114.122L379.123 114.324L379.258 114.796V115.538L378.921 116.685L378.516 117.764L378.719 117.967L379.056 118.304L380 118.911L380.945 118.574L381.417 118.236L382.024 117.764L384.317 119.181L387.285 120.597L387.622 120.934L387.824 121.406L388.903 122.013L389.645 122.283L391.399 122.688H392.006L392.681 122.486L393.22 122.216L394.029 121.474L394.502 120.934L395.041 120.462L395.378 120.327L395.985 120.192L397.402 120.26H397.739L399.223 119.855L399.965 119.788L400.639 119.855L401.111 120.057L401.516 120.26L401.786 120.53L402.595 121.541L404.889 120.799L406.035 120.395L406.845 119.99L407.452 119.585L407.789 119.45H408.126L409.138 119.585L409.542 119.518L409.947 119.315L410.082 119.113L410.284 118.776L410.622 117.899L410.959 116.955L411.296 115.808L411.768 114.662L411.836 113.987L411.701 113.515L411.498 113.11L411.364 112.908L410.959 112.706L409.745 112.099L409.205 111.626L408.935 111.289L407.924 109.401L409.273 108.119L410.622 107.107L411.229 106.905L412.375 106.568L412.915 106.5H414.331L415.073 106.568L415.613 106.703L416.287 106.973L416.759 107.175L418.513 108.456L419.255 107.849L419.727 107.31L419.997 106.973L421.211 106.231L422.56 105.624L423.234 105.421L425.46 105.084H426.067L426.809 105.151L427.349 105.893L427.888 106.298L428.226 106.77L428.63 107.107L429.035 107.512L430.181 108.659L430.923 109.468L431.598 110.682L432.407 112.706L433.149 114.055L433.284 114.527L433.486 115.943L433.621 116.415L434.026 117.359L434.363 118.304L434.97 121.676L435.442 123.362L435.712 124.509L436.252 125.925L436.589 127.612L436.656 128.286L436.589 129.028L436.252 129.972L435.915 130.647L435.645 130.849L435.308 131.186L434.903 131.861L434.498 133.007L434.228 134.356L433.959 135.031L433.689 135.301L433.486 135.435L432.812 135.773L432.542 135.975L431.868 136.582L430.721 137.729L429.912 138.471L429.574 138.74L428.765 139.213L428.293 139.415L427.349 139.685L426.067 139.954L423.572 139.82L422.223 141.169L421.616 141.91L421.346 142.45L420.941 143.664L420.671 144.608L420.604 145.35L420.671 145.89L421.009 147.104L421.211 148.183L421.818 149.127L422.223 149.465L422.627 149.667L424.988 150.072L424.786 150.544L424.516 150.948L424.381 151.421L424.516 151.758L424.718 151.893L424.921 152.028L425.123 152.163L425.258 152.365L425.595 153.646L425.797 154.186L426 154.388L427.146 155.67L427.281 155.872V156.142L427.686 157.761L427.888 158.098L428.495 158.772L428.765 159.11L429.507 161.335L429.844 162.415L430.047 162.954L430.721 163.764L431.328 164.371L432.61 165.382ZM395.513 132.603L395.109 132.468L393.962 131.996L393.49 131.861L391.871 131.524L389.915 131.051H389.983L385.531 130.175L385.868 131.456L386.206 132.805L386.745 134.694L386.947 138.403L387.42 139.078L387.689 139.482L387.959 140.359L388.229 141.303V143.529L388.364 144.069L388.499 144.541L388.701 144.743L389.106 145.013L390.725 145.418L391.399 145.688L394.232 145.418L396.458 145.013H396.93L398.414 145.081L399.155 145.215L399.897 145.485L400.572 146.025L402.056 147.306L402.528 147.576L403.067 147.711L404.214 147.846L405.631 147.778L406.507 147.644L407.519 147.374L407.586 146.699L408.126 144.069L408.328 142.72L408.801 140.831V140.359L408.666 139.954L408.396 139.55L407.856 139.213L406.642 138.808L405.428 138.538L404.956 138.403L404.484 138.133L404.147 137.796L403.809 137.459L403.27 136.717L402.73 136.11L401.584 134.221L400.572 133.007L400.167 132.265L399.695 131.254L397.807 132.063L396.255 132.535L395.513 132.603Z" fill="#A0B6BA" stroke="white" stroke-width="0.337239" stroke-linecap="round" stroke-linejoin="round"/>
<path d="M288.406 170.779L287.259 169.565L286.787 169.362L284.427 169.902L283.55 169.969L281.459 169.632H280.784L279.368 170.104L277.952 170.172L277.547 169.902L277.277 169.497L277.007 168.89L276.603 167.609L276.265 167.069L275.658 166.53L275.051 166.327L274.04 166.057L273.837 165.923L273.702 165.653L273.433 164.641L273.163 163.967L272.691 163.225L272.421 162.55L272.219 160.796L272.016 160.527L271.612 160.459L271.004 160.594L264.327 162.618L262.641 163.022H262.236L261.899 162.752L261.697 162.28L261.562 161.606V161.066L261.629 160.527L261.562 160.122L261.494 159.717L261.292 159.178L261.09 158.706L261.022 157.896V157.222L261.157 155.805L261.225 155.063L261.157 154.389L260.887 153.647L260.415 152.973L258.999 151.826L258.459 151.286L258.122 150.814L257.852 150.14L257.717 149.263V147.037L257.245 147.105L255.896 147.914L255.424 148.386L255.087 148.858L254.75 149.128L254.345 149.398L253.131 149.6L252.659 149.735L252.254 150.005L251.31 151.286L250.905 151.556L250.568 151.758L250.028 151.961L248.409 152.231L246.116 152.298H245.509L245.037 152.096L241.665 149.87L241.327 149.465L241.058 148.926V147.105L240.586 145.891L240.316 145.621L240.113 145.351L239.776 145.216L239.439 145.081L239.102 145.014L237.55 145.216L235.662 145.823L234.92 146.295L233.706 147.442L230.873 147.105L230.333 146.902L229.726 146.565L229.524 146.093L229.457 145.553L229.524 144.879L230.333 142.181L230.468 141.574L230.401 140.832L230.131 139.82L229.457 138.134L229.322 137.392L229.794 135.908L230.064 135.571L230.401 135.166L230.873 134.897L231.413 134.694L235.46 134.627L236.943 134.155L237.753 133.615L238.292 132.941L238.967 131.592L239.506 130.985L240.113 130.715L241.193 130.58L247.128 127.815L248.747 129.636L249.354 129.973L249.826 130.04L250.365 129.905L250.905 129.501L251.242 129.029L251.512 128.624L251.782 128.354L251.984 128.287L252.389 128.422L252.794 128.691L253.198 128.826L253.67 128.961L257.92 128.556L258.257 128.489L258.527 128.152L258.796 127.545L258.999 125.184L259.201 124.577L259.403 124.172L259.808 123.835L260.213 123.7L262.034 123.768L262.708 124.105L265.609 125.791L266.081 125.993L266.688 126.128L267.362 125.993L267.969 125.724L268.172 125.049V124.51L268.037 123.903L268.239 123.363L268.779 123.026L270.532 122.688L272.219 122.149L273.028 121.474L272.623 120.867L272.421 120.665L272.353 120.598L272.219 120.53L271.814 120.463L271.612 120.395L271.477 120.328L271.409 120.193L271.274 119.991L271.072 119.586L270.937 119.316L270.87 118.911V118.574L270.667 118.102V117.9V117.562L270.802 117.225L270.937 116.686L271.139 116.416V116.146L271.072 116.011L271.004 115.876L271.072 115.741L271.139 115.606L271.477 115.269L271.612 115.134L271.544 114.999L271.477 114.932L271.207 114.797L271.139 114.662L271.274 114.392L271.544 113.92L271.949 113.583L272.151 113.246L272.286 113.111V112.909L272.219 112.774V112.639V112.504L272.623 112.302L272.893 112.167L273.702 111.627L273.905 111.492L274.175 111.425H274.242L274.377 111.357L274.512 111.29L274.984 110.953L275.051 110.75L275.254 110.48V110.346V110.211L274.849 109.671L272.556 108.39L272.353 108.255L272.219 108.052L272.151 107.715L272.219 107.58L272.286 107.176L272.353 106.838L272.623 106.568L272.961 106.973H273.365L275.591 106.434L275.726 106.231V105.961V105.759L276.063 105.422L276.805 104.882L277.075 104.478L277.345 104.073L277.412 103.871L277.479 103.264V103.129L277.547 102.994L277.614 102.859L277.749 102.724L277.952 102.454L278.424 102.387L278.963 102.657L284.831 105.827L289.283 109.064L289.89 109.401L291.981 109.536L295.893 108.727L296.095 109.806L296.365 110.346L297.039 111.222L297.444 111.56L297.849 111.964L298.793 112.571L299.535 112.639L300.007 112.706L300.209 112.841L300.614 113.111L301.086 113.65L301.289 114.055L301.491 114.595L301.693 114.999L302.03 115.202L302.435 115.337H302.84L303.379 115.202L304.189 114.662L304.998 114.19L305.538 115.539L306.28 118.102L306.752 121.407V121.879L306.684 122.688L306.819 123.296L307.022 123.7L307.291 124.105L307.629 124.442L308.573 125.117L309.045 125.656L309.315 126.398L309.517 128.017L310.057 128.691L310.394 128.961L311.608 129.905L312.08 130.04L312.485 130.175H313.429L314.508 130.31L315.453 131.254L316.397 132.603L316.802 133.48L317.341 134.29L317.881 135.234L318.083 135.976L318.353 137.392L318.555 139.483L318.623 140.023L318.758 140.225L319.095 140.562L319.432 140.832L320.714 141.439L321.793 141.979L322.062 142.788L322.197 143.193L322.804 144.542L323.277 145.351L324.153 145.418L324.625 145.486L325.03 145.688L325.502 146.025L326.447 147.307L327.054 148.319L327.458 149.33L328.065 150.342L328.537 150.949L329.144 151.826L329.954 152.568L330.831 153.175L332.045 154.322L332.854 154.929L334.136 156.21L334.338 157.559L334.473 158.706L332.449 159.987L331.573 160.189L328.605 160.324L325.233 159.92L324.491 159.65L324.086 159.313L323.074 157.087L322.67 156.412L322.13 155.873L318.825 154.659L318.353 154.591H317.274L315.722 153.714L315.52 153.647L314.98 153.58L314.711 153.849L314.508 154.254L314.576 154.861L314.778 155.401L315.048 155.805L315.385 156.21L315.722 156.412L316.195 156.615L316.464 156.817L316.397 157.694L315.25 160.257L314.508 161.538L313.024 162.55L312.822 162.955L312.62 163.494L312.552 164.911L312.215 166.462L311.203 166.867L310.731 166.732L310.259 166.395L309.854 165.99L309.112 164.776L308.64 164.304L308.168 164.169H307.629L305.403 165.113L301.423 166.26L300.074 167.271L299.535 167.879L298.658 168.486L288.406 170.779Z" fill="#A0B6BA" stroke="white" stroke-width="0.337239" stroke-linecap="round" stroke-linejoin="round"/>
<path d="M347.828 111.627L346.951 111.222L346.344 110.817L345.197 110.278L344.118 110.143L340.611 109.131V107.512L341.757 105.961L342.567 105.219L343.309 105.489L346.006 106.366L347.153 105.219L347.355 105.084L347.828 104.949L348.3 104.882L349.042 105.017L349.581 105.152L350.525 105.624L350.728 106.433L351.267 107.512L351.47 107.984V108.389L351.335 108.794L351.065 109.131L350.458 109.738L349.581 110.48L347.828 111.627Z" fill="#A0B6BA" stroke="white" stroke-width="0.337239" stroke-linecap="round" stroke-linejoin="round"/>
<path d="M416.017 171.992L416.287 173.206L416.692 173.746L417.231 174.285L417.838 174.488L418.648 174.69H419.929L420.874 174.825L420.671 175.095L418.85 176.646L418.445 177.186L418.243 177.59L418.311 177.995L418.648 178.467L421.683 181.705L422.357 182.851L422.83 184.2L423.032 185.01L423.099 185.617L423.032 187.438L422.492 191.552L422.425 192.361L422.627 193.306L422.83 193.71L423.099 194.048L423.774 195.329L424.313 195.869L424.853 196.138L427.416 195.194L428.158 195.262L427.079 198.499L426.607 201.265L426.539 203.355L426.876 208.886L428.293 217.654L428.698 219.138V219.678L428.563 220.015L428.158 220.15L427.416 220.082L427.079 220.15L426.742 220.285L426.067 220.824L425.46 221.769L424.583 223.455L422.695 224.601L415.95 225.478L414.533 225.613L414.061 225.816L413.657 226.288L413.387 227.367L412.847 231.683L412.578 232.493L412.308 232.965L411.296 233.707L408.193 234.719L406.305 234.988L405.9 234.921L404.551 234.246L403.674 234.112H403.135L392.208 237.889L390.859 238.631L389.173 239.98L387.757 240.587L386.88 240.856L385.194 241.126L379.258 242.07L378.651 241.936L377.167 241.328L375.751 240.452L374.2 239.17L373.862 238.631L373.593 237.956V237.417V236.877L373.323 236.202L372.783 235.123L371.569 233.37L369.141 228.918L368.736 228.648L367.59 228.379L362.194 227.839L354.37 226.962L345.872 225.613L344.455 225.141L343.983 224.736L343.511 224.197L342.769 222.578L342.702 222.308L342.769 222.106L342.836 221.769L342.904 221.162V220.824V220.622L342.836 220.42L342.769 220.082V219.948V219.745V219.61V219.408L342.971 219.071L343.039 218.868V218.733V218.599L342.971 217.519V217.182L343.039 216.643V216.508V216.373L342.904 216.17L342.499 215.631L336.227 215.496V213.742L336.362 213.135L336.564 212.596L337.036 211.584L336.766 210.842L334.743 208.886L333.933 207.807L333.596 207.132L333.326 206.593L333.259 205.918L333.124 205.244V204.704L333.259 204.232L333.461 203.76L334.203 202.681L335.282 201.669L335.687 201.332L336.159 201.13L337.441 200.927L341.757 200.388L342.634 198.836L342.769 196.948L343.578 192.901L343.646 192.564L343.781 190.608L343.848 190.338L344.051 190.001L344.388 189.866L344.927 189.664L347.356 189.461L348.57 188.989L348.974 188.517L349.244 187.977L349.514 187.37L350.66 185.954L350.795 185.279L350.863 183.998L350.998 183.323L351.133 182.919L352.144 181.84L352.616 182.514L353.021 182.919L355.584 180.693L356.663 179.951L357.338 179.277L359.024 177.118L360.778 177.793L362.666 178.4L363.948 178.872L365.094 179.546L365.566 179.951L366.308 180.491L367.253 181.3L368.736 178.535L370.153 176.646L370.558 176.174L372.244 173.813L372.986 173.476L374.267 173.206L374.942 173.139L375.414 173.206L375.616 173.274L375.953 173.543L377.167 174.69L378.044 175.297L378.719 175.567L380.742 176.174L381.147 176.444L381.484 176.781L381.619 176.983L381.821 177.523L385.464 177.59H389.106H390.792H392.073L393.962 177.995L394.636 178.197L395.85 178.872L396.592 179.614L397.739 180.76L398.548 181.502L399.695 182.312L401.246 182.109L404.281 181.974L404.754 181.907L405.698 181.637L407.654 180.895L407.991 180.625L408.261 180.356L409.273 178.872L409.407 178.737L409.812 178.467L410.689 178.13L412.308 177.928L412.78 177.793L412.982 177.658L413.319 177.321L413.454 177.118L413.657 176.646L413.724 176.241L413.859 174.555L413.994 173.476L414.129 172.397L416.017 171.992Z" fill="#A0B6BA" stroke="white" stroke-width="0.337239" stroke-linecap="round" stroke-linejoin="round"/>
<path d="M297.782 245.848L294.679 233.302L294.14 231.751L293.263 229.795L292.993 229.121L292.926 228.648V228.244L292.993 227.974L293.735 226.085L294.275 224.602L293.87 223.86L292.116 222.781L291.374 222.106L290.16 221.364L287.8 220.622L287.327 220.285L286.923 219.88L286.72 219.341L286.518 218.734L286.248 217.52L286.113 216.508L285.911 213.608L285.776 213.203L285.709 212.798L285.776 211.989V211.382L285.506 209.965V209.426L285.641 209.021L285.844 208.684L286.923 207.605L287.8 206.391L288.474 204.637L288.541 203.963L288.474 202.546L289.283 199.646L289.351 198.567L289.283 197.623L289.014 196.206L288.946 193.845L289.081 193.171L289.351 192.564L289.621 191.957L289.958 191.485L290.363 191.148L291.374 190.743L291.981 190.473L292.453 190.068L292.791 189.596L292.926 189.259L293.061 188.719V187.64L292.926 186.224L292.723 185.549L292.453 185.077L292.184 184.807L291.981 184.335L292.319 183.593L294.005 181.435L294.072 180.895L294.005 180.491L293.735 180.154L293.6 179.681L293.465 179.209L293.33 176.983L291.509 174.69L289.351 172.532L289.149 172.195L288.407 170.778L298.659 168.485L299.535 167.878L300.075 167.271L301.424 166.259L305.403 165.113L307.629 164.168H308.169L308.641 164.303L309.113 164.775L309.855 165.989L310.26 166.394L310.732 166.731L311.204 166.866L312.216 166.462L312.553 164.91L312.62 163.494L312.823 162.954L313.025 162.55L314.509 161.538L315.251 160.256L316.397 157.693L316.465 156.817L316.195 156.614L315.723 156.412L315.386 156.21L315.048 155.805L314.779 155.4L314.576 154.861L314.509 154.254L314.711 153.849L314.981 153.579L315.521 153.647L315.723 153.714L317.274 154.591H318.353L318.826 154.658L322.131 155.872L322.67 156.412L323.075 157.086L324.086 159.312L324.491 159.649L325.233 159.919L328.605 160.324L331.573 160.189L332.45 159.987L334.473 158.705L335.822 158.368L336.497 158.3L336.969 158.368L337.643 158.435L338.048 158.503L339.667 158.3L342.028 157.761L343.444 157.356L343.377 158.3L343.444 159.042L343.714 160.661L344.051 161.538L344.253 161.875L344.928 162.685L346.142 163.764L346.884 164.573L347.086 164.91L347.221 165.315L347.356 165.787L347.423 166.394L347.356 167.136L347.221 168.35L346.681 168.418L346.344 168.553L345.872 168.957L345.063 169.834L345.805 170.778L346.412 171.655L346.749 172.127L347.154 173.004L347.693 173.746L347.896 174.286L348.03 174.825L348.098 175.297V177.928L348.165 178.4L348.368 178.805L348.503 179.074L348.84 179.344L351.268 181.03L352.145 181.84L351.133 182.919L350.998 183.324L350.863 183.998L350.796 185.28L350.661 185.954L349.514 187.37L349.245 187.977L348.975 188.517L348.57 188.989L347.356 189.461L344.928 189.664L344.388 189.866L344.051 190.001L343.849 190.338L343.781 190.608L343.646 192.564L343.579 192.901L342.77 196.948L342.635 198.837L341.758 200.388L337.441 200.927L336.16 201.13L335.688 201.332L335.283 201.669L334.204 202.681L333.462 203.76L333.259 204.232L333.124 204.705V205.244L333.259 205.919L333.327 206.593L333.597 207.133L333.934 207.807L334.743 208.886L336.767 210.842L337.036 211.584L336.564 212.596L336.362 213.135L336.227 213.743V215.496L336.16 215.968L335.957 216.44L334.608 219.003L334.204 219.61L333.664 220.218L330.427 222.713L326.447 224.871L325.908 225.883L322.603 233.033L322.333 233.909L321.996 235.191L321.658 235.933L321.389 236.405L320.444 237.214L320.242 237.956V238.833L321.389 242.071L321.591 242.813L321.523 243.217L314.441 242.678L304.864 243.42L299.266 245.173L297.782 245.848Z" fill="#A0B6BA" stroke="white" stroke-width="0.337239" stroke-linecap="round" stroke-linejoin="round"/>
<path d="M426.067 139.955L425.999 140.36L425.662 140.899L425.594 141.237L425.797 142.383L425.864 142.721L425.797 143.665L425.932 143.935L426.134 144.137L426.269 144.339L426.134 144.609V144.744V145.418L426.067 145.688L425.932 146.16L425.257 147.509L425.055 147.712L424.92 147.847L424.718 148.049L424.65 148.319L424.718 148.656L424.92 149.061L425.055 149.398L424.987 150.072L422.627 149.668L422.222 149.465L421.817 149.128L421.21 148.184L421.008 147.105L420.671 145.891L420.603 145.351L420.671 144.609L420.941 143.665L421.345 142.451L421.615 141.911L422.222 141.169L423.571 139.82L426.067 139.955Z" fill="#A0B6BA" stroke="white" stroke-width="0.337239" stroke-linecap="round" stroke-linejoin="round"/>
<path d="M395.513 132.603L396.255 132.535L397.806 132.063L399.695 131.254L400.167 132.266L400.571 133.008L401.583 134.222L402.73 136.11L403.269 136.717L403.809 137.459L404.146 137.796L404.483 138.134L404.956 138.403L405.428 138.538L406.642 138.808L407.856 139.213L408.395 139.55L408.665 139.955L408.8 140.359V140.832L408.328 142.72L408.126 144.069L407.586 146.7L407.519 147.374L406.507 147.644L405.63 147.779L404.214 147.846L403.067 147.711L402.527 147.576L402.055 147.307L400.571 146.025L399.897 145.485L399.155 145.216L398.413 145.081L396.929 145.013H396.457L394.231 145.418L391.398 145.688L390.724 145.418L389.105 145.013L388.701 144.744L388.498 144.541L388.363 144.069L388.228 143.529V141.304L387.959 140.359L387.689 139.483L387.419 139.078L386.947 138.403L386.745 134.694L386.205 132.805L385.868 131.456L385.531 130.175L389.982 131.052H389.915L391.871 131.524L393.489 131.861L393.961 131.996L395.108 132.468L395.513 132.603Z" fill="#A0B6BA" stroke="white" stroke-width="0.337239" stroke-linecap="round" stroke-linejoin="round"/>
</svg>
