<svg width="676" height="325" viewBox="0 0 676 325" fill="none" xmlns="http://www.w3.org/2000/svg">
<path d="M581.041 185.211L579.422 183.323L575.51 176.983L575.241 176.646L574.971 176.376L574.566 176.241L566.472 176.646L562.898 177.387L554.129 177.725L552.443 178.197L549.206 179.816L546.912 175.566L545.766 173.88L545.226 173.273L544.619 172.734L544.08 172.329L543.473 171.992L541.382 171.115L541.044 170.912L540.707 170.643L540.505 170.238L540.303 169.698L540.235 168.957L540.303 166.731L540.91 161.605L540.775 160.863L540.505 160.526L540.1 160.188L536.728 158.367L528.027 151.353L516.494 148.79L512.784 147.036L511.772 146.834H511.233L510.693 146.901L510.018 147.103L506.781 148.857L506.983 145.485L506.781 142.922L505.972 139.347L505.162 137.661L504.96 137.256L503.948 135.3L503.476 130.444L503.746 128.488L504.218 127.274V125.588L504.016 123.969L503.678 122.822L502.532 119.922L498.822 112.975L498.08 111.221L497.743 110.209L497.945 109.535L498.417 108.119V107.579L498.35 106.77L497.608 104.611L497.001 100.699L496.934 99.3504L497.001 99.2155L497.069 99.0806L497.406 98.8108L497.541 98.541L497.608 98.3387V98.2038L497.541 98.0014L496.124 95.978V95.9106L501.925 93.2801L502.734 93.1452L504.825 93.3475L506.511 94.2244L507.051 94.3593H507.658L508.467 94.0895L510.221 93.2126L511.367 92.2009L511.772 91.8637L512.177 91.6613L512.582 91.5939L513.593 91.5265L513.93 91.3241L514.133 90.6496V89.6379L514.2 89.1658L514.403 88.6262L515.752 85.9283L516.224 85.2538L516.763 84.6468L520.675 81.6791L521.147 80.9372L521.485 80.6674L522.496 79.9254L522.834 79.5882L523.778 78.7788L527.083 77.0252L527.487 76.9577L528.297 77.0926H528.702L528.971 76.9577L531.265 74.5971L531.669 74.3273L532.479 74.1249L532.883 73.9226L534.03 72.7085L535.649 71.7643L537.267 71.1572L538.144 71.2921L539.898 72.1689L540.842 72.4387L544.349 71.8992L546.171 72.3713L550.824 75.0692L551.162 75.4064L551.431 75.8111L551.836 76.6879L552.106 77.0926L554.871 80.1952L557.906 82.4885L558.244 82.6233L559.458 82.5559L559.862 82.6908L560.537 82.7582L561.886 82.4885L563.909 82.9606H564.516L565.191 82.7582L570.924 79.3859L572.543 78.9137L574.094 78.9812L575.645 79.5882L580.906 81.6791L581.715 82.421L582.39 83.4327L582.997 84.5793L578.95 93.6173L578.68 94.3593L574.633 103.465L570.654 112.503L570.587 112.975L570.856 113.987V114.526L570.519 115.403L565.798 122.755L565.865 123.497V123.969L566.27 129.634L566.202 130.241L563.437 131.995L563.37 132.063L562.628 132.535L561.076 133.209L560.672 133.749V134.019L560.942 135.84V135.975L561.549 139.617L561.751 139.752L561.818 140.089L562.291 140.696L567.147 145.889L568.293 146.496L569.44 145.754L571.531 142.989L573.419 141.775L574.566 141.37L578.073 142.18H579.422L584.279 141.101L585.627 141.033L586.167 141.101L588.46 142.112L589.877 142.652L590.349 142.922L595.003 147.306L595.88 147.373L596.621 146.429L596.959 145.822L597.094 145.687L597.701 144.675L598.038 144.406L599.05 143.529L603.096 138.133L603.636 137.661L604.513 137.324L607.548 137.526H608.02L609.302 136.919L610.381 136.716H611.527L612 136.851L612.876 137.391L613.416 137.526L617.058 137.796L618.407 138.47L619.621 139.954L621.645 143.326L622.656 144.406L626.568 146.159L628.254 146.766L628.727 147.103L628.996 147.508L629.131 148.048L629.334 150.071L629.469 150.543L629.671 150.881L629.873 151.015V151.083L630.076 151.15H630.143L631.897 151.892L632.639 152.095L633.043 152.364L633.178 152.769L633.043 153.039L632.639 153.646L632.504 154.051L633.246 154.32L636.213 157.018L636.483 157.355L636.753 157.895L636.888 158.367L637.158 158.704L637.63 158.839L637.697 158.974L637.967 158.907L638.304 159.042L639.114 159.649L640.463 161.267L641.002 162.077L641.474 163.089L641.609 163.628V165.247L641.677 165.584L641.744 165.786L641.811 165.921L642.081 166.326L642.688 167.001L642.958 167.338L643.093 167.54V167.81L643.228 168.012L643.363 168.215L643.565 168.282H643.902L644.105 168.349L644.172 168.552L644.105 168.822L643.97 169.024L643.902 169.226V169.631L643.97 169.766L644.037 169.833L644.105 169.968H644.24L644.307 170.103V170.238L644.24 170.44V170.643V171.25L643.97 172.127V172.599L644.037 172.868L644.307 173.341L644.374 173.543V173.813L644.24 174.015L644.105 174.217L643.97 174.42L643.902 174.487L643.767 174.824L643.498 175.094L643.026 174.892L642.351 174.824L642.216 175.229L642.081 175.432L641.744 175.904L641.609 176.039L641.137 176.308L640.867 176.443L640.328 176.983L640.26 177.05H640.058L639.653 176.983L638.979 176.376L638.574 176.308H638.102L636.685 176.039L635.741 176.106L634.055 176.511H633.178L628.322 175.162L627.85 174.959L627.378 174.555L626.838 173.408L626.501 172.936L626.096 173.071L625.624 173.61L625.354 173.813L625.017 173.678L624.815 173.341L624.747 172.868L624.612 172.464L624.208 172.261L623.601 172.464L623.128 173.003L622.926 173.408L622.791 173.543V173.61L622.521 174.15L622.117 174.217L622.049 174.15L621.982 174.622L621.779 174.69L621.105 174.555L620.363 174.15L619.689 173.88L619.419 174.015L618.879 174.352L618.542 174.487H617.058L616.316 174.285L615.102 173.678L614.428 173.476L613.821 173.408H613.214L612.607 173.61L612 174.015L611.258 174.69L610.988 174.757L609.976 174.824L609.639 174.959L608.155 176.106L607.548 176.173L606.604 176.443L606.132 176.646L605.727 176.915L605.525 177.253H605.39L604.985 177.86L604.58 178.197H604.513L604.445 178.264V178.939L604.176 179.074L603.164 179.209L603.096 179.141L603.029 179.209L602.287 179.276L601.815 179.209L601.006 178.669L600.871 178.534L600.668 177.995L600.331 177.522L600.264 177.455L600.061 177.05L599.792 176.78H599.589L598.78 177.387L598.443 177.455H598.375L598.038 177.253L596.487 177.657L596.824 178.534V178.939L596.689 179.343L596.014 180.288L595.812 181.03L595.745 182.581L595.273 183.39V183.525L594.531 183.728L588.19 183.323L585.762 182.783H585.425L585.29 182.851L584.886 183.323L583.671 184.335L583.402 184.469L582.255 184.604L581.446 184.874L581.041 185.211Z" fill="#A0B6BA" stroke="white" stroke-width="0.337239" stroke-linecap="round" stroke-linejoin="round"/>
<path d="M74.2389 79.251L74.711 79.5208L75.7227 80.1278L75.9251 80.3301L76.06 80.465L76.1949 80.6674L76.667 81.9489L77.2066 83.77L77.4089 84.7142V84.8491V85.5911L77.4764 85.7934L77.5438 86.1306L77.6113 86.4004L78.8928 88.4239L79.1626 89.0984L79.4998 90.5148L79.5673 90.6496L79.7022 90.9869L79.8371 91.2567L79.9045 91.5939L80.0394 91.9312L80.1743 92.0661L80.3766 92.2684L80.8488 92.808L84.4235 94.5616L86.4469 96.2478L86.6493 96.7199L86.7842 97.1921L86.7167 97.5293V97.6642V97.934L86.7842 98.0015L86.8516 98.3387L87.1889 99.0806L87.2563 99.2155L87.3238 99.283L87.8633 99.5528L88.9425 99.6202L90.8311 99.89L91.3032 99.9574L91.4381 100.025L91.573 100.16L91.6404 100.497L91.7079 101.306V101.509V101.644L91.6404 101.981V102.116V102.318V102.453L91.7079 102.723L91.8428 102.925L93.0568 104.814L93.1917 105.016L93.3941 105.151L93.4615 105.218L93.8662 106.5L95.0128 109.063L95.2826 109.333L95.7547 109.67L97.1711 110.142L97.4409 110.277L97.5758 110.412L97.7107 110.614L98.1154 111.356L98.7224 111.963L98.9248 112.233L98.9922 112.368L99.262 113.042L99.9365 115.403L100.004 115.673L100.071 115.875V116.077L100.004 116.819V117.359L99.0597 117.426L97.1711 116.954L95.2152 117.359L89.4821 120.057L87.4587 120.462L87.3912 120.799L87.4587 121.069L87.5936 121.338L87.7959 121.541L89.1449 122.148L89.4821 122.418L89.7519 122.957L90.4264 125.115L90.4938 125.722L90.4264 126.127L89.6844 127.274L89.4146 127.881V128.623L89.4821 129.5L89.6844 130.242L90.0891 132.737L90.1566 133.412L90.224 133.816L90.3589 134.288L90.6962 134.626L91.6404 135.3L91.9102 135.637L92.5172 136.312L92.7196 136.582L92.9219 137.054L93.6639 139.752L95.2152 144.473L95.7547 145.485L96.1594 145.957L96.5641 146.496L96.9014 147.238L98.1829 151.15L98.3177 151.757V152.499V153.039L98.1829 153.511L98.048 153.848L97.9131 154.253L97.9805 154.792L98.4527 155.602L101.083 158.839L102.297 160.728L102.23 161.672L101.353 163.965L101.218 164.572L101.151 165.179V165.786L101.353 166.394L101.758 167.135L102.634 167.877L103.174 168.282L103.916 168.552L105.467 169.631L107.423 171.452L108.772 173.408L110.323 174.42V175.094L110.189 175.634L109.716 176.039L109.379 176.241L106.614 175.836L104.253 176.106L103.916 175.971L103.376 175.566L102.972 175.701L102.769 175.904L102.5 176.376L102.162 177.387L101.825 177.792L101.353 177.927L100.746 177.792L100.139 177.387L99.6667 176.78L98.9248 175.566L98.5201 175.162H97.9131L97.3735 175.229H96.7665L95.5524 174.69L94.2034 174.352V174.285L94.0685 173.813L93.7313 173.003L93.4615 172.936L92.9219 171.992H92.8545L92.7196 171.722L92.5172 171.115L92.2474 170.71L92.5172 169.901L92.4498 169.698L92.2474 169.226L91.8428 168.754L91.7753 168.012L91.3706 167.338L91.1008 167.135L90.8985 166.798L90.4938 166.461L90.0891 166.191L89.6844 166.056L89.2123 166.124L88.8076 165.989L87.661 164.505L87.2563 163.83L86.7167 163.223L86.2446 162.347L85.9748 161.672L85.5701 161.133L85.5027 161.065L84.1537 158.637L83.8839 157.963L83.6816 157.76L83.3443 157.288V157.018L83.6141 156.681L83.6816 156.007L83.9514 155.602L83.6141 155.265L83.2769 154.725L82.8722 154.388V154.32L82.9397 153.309L83.2095 152.837L83.142 152.229V152.095L82.4675 151.285L81.9954 151.083L81.0511 149.262L80.9162 149.059L80.7139 148.655L80.8488 147.643L80.9837 147.508L80.9162 147.171L80.5115 146.834L80.1069 146.631L79.5673 146.496L79.4324 146.362L79.1626 146.294L78.7579 146.227L78.2858 146.159L77.4089 145.754L76.5996 145.147L75.9251 144.406L75.6553 144.068L75.5204 143.664L75.5878 142.787L75.8576 142.112L75.453 141.977L75.5204 141.775L75.453 141.235L75.1832 140.898H74.3738L73.6319 140.628L73.2946 140.831L73.1597 141.168V141.573L73.0923 141.91L72.8225 142.247L72.2155 142.517L70.192 142.652L69.585 142.517L69.3827 142.18L69.1803 141.37L69.1129 141.101V141.033H69.0454L68.4384 140.628L68.3035 140.561L68.236 140.494H67.9663L67.7639 140.359L67.5616 139.954L67.3592 139.482L67.2243 139.077L66.9545 138.942L66.6173 138.875L66.3475 138.605L66.2126 138.2V137.728V137.661L66.6173 137.256L66.2126 137.324L66.1452 136.919L65.6056 136.582L64.8637 136.649L64.3241 136.851H63.3798H63.0426L62.3006 136.379H62.0308L61.6262 136.582L60.6819 137.324L60.3447 137.661L59.94 138.065L59.4004 138.133L58.4561 137.931H56.7025L56.1629 137.728V137.661H56.0954L55.8931 137.324L55.6908 136.919L55.2186 136.379L53.9371 134.761L53.6673 134.491L53.1277 134.356L52.0486 134.491H51.7788L51.6439 134.423L51.5764 134.491L50.9694 134.086L49.6879 132.737L49.1483 132.535L48.6762 132.602L48.3389 132.467L48.0692 132.265L48.0017 131.995L47.8668 131.725L47.1923 130.444L47.1249 129.837L46.99 129.432L47.2598 128.96L47.4621 128.218L47.0574 127.948L46.99 127.678L45.9108 126.397L45.8434 126.195L45.7759 126.262L45.3038 126.06L44.9666 126.127L44.5619 126.262L44.1572 126.195L43.5502 125.857V125.79H43.4827L42.6733 124.643L42.471 124.104L42.2012 123.901L41.5267 123.564H41.3918H40.9871L39.3684 123.362L38.9637 122.687L38.6265 122.35L37.6822 121.878L36.7379 121.676L35.8611 121.069L35.7262 120.866L35.5239 120.596V120.192L36.0634 119.585L36.603 119.18V118.91L36.4681 118.708L37.2101 118.168L37.4124 117.899L37.345 117.561L37.4124 117.494H37.345V117.157L36.8054 116.55L35.7262 115.808L35.3215 115.673L34.5122 115.74L34.3098 115.605L33.5004 114.594L33.0957 114.121L32.826 113.919L32.6911 113.717L32.3538 113.447L32.2864 113.38L32.1515 113.177L31.9491 113.042L31.5445 112.84L31.2747 112.57V112.165L31.4096 111.828V111.761L31.477 111.424L31.8142 110.884L33.0957 110.277L33.7702 109.67V108.995L33.9051 108.861L33.7702 108.726V108.591L33.5004 108.254L33.0957 108.119H33.0283V107.174L33.1632 106.567L32.9609 106.163L33.0283 105.825V105.151L32.7585 104.274L32.6911 103.869L33.0957 104.072H33.433L35.389 103.802L35.7262 103.6L36.0634 103.127L36.7379 102.453L38.2892 101.509L38.9637 100.834L39.0312 100.092L38.6265 99.2155L38.4241 98.3387L38.7614 97.4619L38.9637 97.1246L39.3009 96.1804L39.5033 95.7757L39.9754 95.4384L43.4153 94.8314H43.8874L44.7642 95.1687H45.2363L46.4504 95.1012L46.8551 94.9663L47.597 94.4267L47.9343 94.3593H48.2715L48.5413 94.6291L49.0809 95.3036L49.4856 95.7082L49.8902 95.7757L52.7905 95.978L52.8579 95.8431L52.5207 94.8989V93.7522L52.5882 93.3476L52.7231 93.0103L53.1277 92.8754L53.5324 93.0778L53.7348 93.415L53.8697 93.8871L54.072 94.3593L54.2744 94.6291L54.4092 94.9663L54.5441 95.2361L54.8139 95.4384L55.5559 95.3036L58.3212 94.022L58.9957 93.4825L59.4004 92.808L59.1306 92.0661L58.6585 91.2567L58.8608 90.5148L59.4004 90.1775L60.0749 90.3124L61.154 91.3916L61.6936 91.7288H62.3681L62.8402 91.1892L63.2449 90.4473L63.6496 89.9077H64.3241L65.2009 89.3007L67.022 88.6937L68.236 88.0192L68.6407 87.6819L68.8431 87.2098L68.6407 86.6702L68.3035 86.4679L67.4267 85.9958L67.2243 85.6585V85.3887L67.4941 85.0515V84.7142L67.4267 84.5794L67.0894 84.2421L66.9545 84.0398V83.7025L67.0894 82.5559L67.1569 82.2861L67.3592 82.0838L67.9663 81.5442L68.978 81.1395L71.7433 81.0721L72.8225 80.8023L73.7668 80.3301L74.2389 79.5882V79.251Z" fill="#A0B6BA" stroke="white" stroke-width="0.337239" stroke-linecap="round" stroke-linejoin="round"/>
<path d="M94.2041 174.353L95.553 174.69L96.7671 175.229H97.3741L97.9137 175.162H98.5207L98.9254 175.567L99.6674 176.781L100.139 177.388L100.747 177.793L101.354 177.927L101.826 177.793L102.163 177.388L102.5 176.376L102.77 175.904L102.972 175.702L103.377 175.567L103.917 175.971L104.254 176.106L106.614 175.837L109.38 176.241L109.717 176.039L110.189 175.634L110.324 175.095V174.42L108.773 173.408L107.424 171.452L105.468 169.631L103.917 168.552L103.175 168.282L102.635 167.878L101.758 167.136L101.354 166.394L101.151 165.787V165.18L101.219 164.573L101.354 163.966L102.23 161.672L102.298 160.728L101.084 158.84L98.4533 155.602L97.9812 154.793L97.9137 154.253L98.0486 153.849L98.1835 153.511L98.3184 153.039V152.5V151.758L98.1835 151.151L96.902 147.239L96.5648 146.497L96.1601 145.957L95.7554 145.485L95.2158 144.473L93.6645 139.752L92.9226 137.054L92.7202 136.582L92.5179 136.312L91.9109 135.638L91.6411 135.3L90.6968 134.626L90.3596 134.289L90.2247 133.817L90.1572 133.412L90.0898 132.737L89.6851 130.242L89.4827 129.5L89.4153 128.623V127.881L89.6851 127.274L90.427 126.128L90.4945 125.723L90.427 125.116L89.7525 122.957L89.4827 122.418L89.1455 122.148L87.7965 121.541L87.5942 121.339L87.4593 121.069L87.3919 120.799L87.4593 120.462L89.4827 120.057L95.2158 117.359L97.1718 116.955L99.0603 117.427L100.005 117.359L100.881 117.022L101.961 116.078L103.782 113.582L104.996 111.559L105.603 110.952L107.491 109.805L108.368 109.468L109.043 109.333L109.717 109.468L110.189 109.805L110.526 110.142L110.729 110.615L112.01 115.606L112.415 115.875H112.752L113.224 115.673L113.562 115.606L114.034 115.673L114.573 116.28L114.978 117.09L115.652 119.045L116.057 119.855L116.394 120.125L116.867 120.057L117.743 119.383L118.013 119.248L124.96 120.934L127.051 121.474L127.995 121.069L128.872 120.327L129.682 119.383L130.626 118.641L131.368 118.371L131.975 118.304L132.919 118.506L133.121 118.573L133.256 118.708L133.324 118.776L133.594 118.978L135.145 119.787L135.482 120.192L135.617 120.394L135.684 120.529L135.752 120.732V120.867L135.887 121.609L136.022 122.35L136.089 122.688L136.157 122.823L136.291 123.025L136.359 123.16L136.831 123.497L138.045 124.846L138.45 125.183L140.203 126.128L140.81 126.6L141.013 126.802L141.08 126.937V127.139V127.274L141.013 127.342L140.945 127.409V127.544L140.81 127.814V128.016V128.286V128.825L140.743 129.095L140.676 129.298L140.406 129.905L139.799 130.781L137.506 133.21L136.494 134.086L135.145 134.963L135.954 137.594L136.359 138.673L136.561 139.685L136.629 140.494V141.236L136.831 141.775L139.124 144.945L140.81 147.981L140.878 149.464L140.945 149.937L141.013 150.476L141.822 151.555L143.239 152.904L147.218 156.546L149.916 158.3L151.197 158.907L151.467 159.379L151.602 159.919L151.535 160.661V161.47L151.804 162.482L152.142 163.561L153.221 165.517L154.975 168.08L155.649 169.496L155.582 170.508L155.447 171.048L154.907 171.79L154.098 172.397L150.253 174.15L148.5 175.229L146.409 177.253L145.397 177.59L144.79 177.725L142.834 177.523L142.362 177.388H141.957L141.687 177.658L141.755 178.197L141.957 178.737L143.171 181.097L143.441 181.974L143.576 182.919L143.508 183.795L143.239 184.537L141.013 188.449L139.192 193.103L139.124 193.575L139.327 194.992V195.464L139.057 195.936L138.585 196.273L138.315 196.61L137.64 198.162L137.236 198.701L136.764 199.106L134.605 200.455L134.133 200.927L133.728 201.534L133.594 202.478L134.066 208.481L133.998 211.719L132.987 220.352V220.487H132.514L132.11 220.419L131.772 220.352H131.368L131.165 220.419L130.221 220.082H129.682L128.872 219.61L128.602 219.543L127.995 219.678H127.658L126.781 219.543L124.623 220.15L123.342 220.217L121.52 220.689L121.183 220.622L120.306 220.285L119.969 220.217L119.092 220.419L118.553 220.217L118.418 220.285L117.878 220.082H117.541L116.597 220.352L116.394 220.285L116.125 220.015L115.248 219.071L114.304 218.936L113.899 218.733L113.292 218.598L112.617 218.531L111.943 218.598L110.931 218.801L107.626 218.666H107.222L106.412 218.936L106.007 219.003L104.119 218.531L103.917 218.598L103.714 218.666H103.647L103.242 218.261L102.77 217.587L102.163 216.98L102.095 216.912L101.758 216.642H101.354L101.016 216.912L100.679 217.249L100.409 217.519L99.8023 217.182H99.1278L98.3184 217.047H97.9812L96.902 216.44L96.6322 216.238V215.698L96.0926 215.361L95.9577 215.226L95.2832 214.889L94.4739 214.754L93.5971 214.686L92.9226 214.821L91.5736 215.563H90.9666L90.8991 215.361L91.4387 214.619L91.1015 213.337L90.0223 212.73L89.82 212.056L89.6176 210.842L89.0106 209.628L89.0781 209.493L88.5385 208.886L88.4036 208.751L88.1338 208.481L87.7291 207.942L87.5942 207.874L87.1221 206.93L87.3919 203.895L88.2687 200.725L91.034 195.869L93.1924 193.845L93.2598 193.575L93.8668 192.294L93.9343 191.08V191.012V190.945L93.3947 189.528L92.8551 188.854L92.7877 188.247L92.7202 188.045L92.383 187.37L92.0458 186.561L91.9783 186.358L91.4387 185.414L91.9109 184.47L92.6528 183.998L93.1249 182.244L93.5971 181.637L93.6645 180.625L94.0692 180.288L94.4739 178.669L94.5413 178.602V178.332L94.4064 177.927L94.2715 177.86V177.793L94.0017 177.388L93.5971 177.253L94.2041 174.42V174.353Z" fill="#A0B6BA" stroke="white" stroke-width="0.337239" stroke-linecap="round" stroke-linejoin="round"/>
<path d="M506.781 142.922L506.983 145.485L506.781 148.857L510.018 147.104L510.693 146.901L511.233 146.834H511.772L512.784 147.036L516.493 148.79L528.027 151.353L536.728 158.367L540.1 160.189L540.505 160.526L540.775 160.863L540.91 161.605L540.303 166.731L540.235 168.957L540.303 169.699L540.505 170.238L540.707 170.643L541.044 170.913L541.382 171.115L543.473 171.992L544.08 172.329L544.619 172.734L545.226 173.273L545.766 173.88L546.912 175.567L549.206 179.816L552.443 178.197L554.129 177.725L562.898 177.388L566.472 176.646L574.566 176.241L574.971 176.376L575.24 176.646L575.51 176.983L579.422 183.323L581.041 185.212L580.771 185.414L580.366 186.291V186.358L579.49 187.64L579.422 187.707L576.724 190.473L574.026 195.936L573.892 196.678L574.161 197.487L574.566 198.162L574.701 198.769L574.296 199.713L573.15 201.332L572.677 201.736L571.936 202.141L571.396 202.208H570.991L570.856 202.276L570.182 202.208L569.98 202.276L569.575 202.681L568.9 203.288L568.766 203.423L565.528 206.255L564.179 207.807L563.774 208.144L558.581 209.695L557.299 209.898H555.343H555.006H554.939L553.86 209.965L553.792 209.898L553.05 209.965L552.106 210.032L551.229 210.235L550.892 210.302H550.42L550.015 210.437H549.408L549.071 210.37L545.833 209.088H545.766L545.496 208.886L545.159 208.953L544.956 209.088L544.552 209.156L543.068 209.763H542.596L542.258 210.032L541.989 210.167L541.786 210.302L541.719 210.572L541.584 211.786L541.382 212.393L540.842 213.607L539.763 215.158L535.851 218.936L534.907 219.543L534.637 219.812L534.435 220.082L534.097 220.757L533.49 221.633L532.883 222.173L532.546 222.375H532.209L531.737 222.645L531.265 222.78L530.185 222.847L529.713 223.05L529.511 223.252L529.443 223.32L529.309 223.455L528.702 224.129L528.499 224.331L527.892 224.534L527.15 224.871L526.948 225.073L526.206 226.018L524.52 227.501L523.441 227.232H522.766H522.429L522.092 226.894L521.754 226.759L518.517 226.49L518.247 226.422H517.64L514.74 226.152L513.054 225.411H512.244L507.928 224.196L505.365 223.05L504.825 222.645L504.42 222.106L503.678 220.757L502.127 219.205L501.52 218.801L500.913 218.666L495.72 218.801L493.898 218.261H493.629L493.359 218.194V218.126L493.291 216.575V215.361L493.359 214.012L493.291 213.405L493.157 212.933L492.617 212.258L492.212 211.921L491.74 211.584L491.335 211.179L490.931 210.639L490.728 208.953L490.526 208.279L489.919 207.672L489.379 207.402L489.11 207.065L488.975 206.862V205.986L489.312 198.769L489.042 197.352L488.638 196.071L486.951 192.361L486.614 191.214L486.412 190.742L486.074 190.338L478.992 187.1L478.925 186.223L478.992 185.886L479.195 185.414L480.409 183.66L480.544 183.188L480.679 182.649L480.611 182.109L480.476 181.502L479.869 179.411L479.667 178.534V177.927L479.734 175.769L480.004 174.69L480.476 173.678L482.23 170.575L483.579 167.945L484.051 165.989L484.726 160.796L484.928 159.986L485.198 159.244L485.872 158.098L487.828 155.872L488.368 155.332L489.245 154.793L490.054 154.455L490.324 154.388H490.728L493.157 154.86L495.382 154.995L495.045 153.309L494.91 152.027V151.151L495.045 149.734L495.113 149.195L495.247 148.722L495.382 148.318L495.585 147.913L495.854 147.508L496.192 147.104L496.596 146.699L497.676 145.957L503.543 143.731L504.555 143.596L504.825 143.529L505.297 143.192L505.432 143.124L506.781 142.922Z" fill="#A0B6BA" stroke="white" stroke-width="0.337239" stroke-linecap="round" stroke-linejoin="round"/>
<path d="M478.993 187.1L486.075 190.338L486.412 190.742L486.614 191.214L486.952 192.361L488.638 196.071L489.042 197.352L489.312 198.768L488.975 205.985V206.862L489.11 207.065L489.38 207.402L489.919 207.672L490.526 208.279L490.729 208.953L490.931 210.639L491.336 211.179L491.74 211.584L492.212 211.921L492.617 212.258L493.157 212.933L493.292 213.405L493.359 214.012L493.292 215.361V216.575L493.359 218.126V218.193H493.292L493.089 218.261L492.887 218.328L492.685 218.531L491.808 219.138L491.066 219.34L490.729 219.542L489.582 220.352L489.11 220.891L488.705 221.498L485.13 228.85L484.928 229.525V229.929L484.996 230.874V231.278L484.861 231.818L484.726 232.155L484.321 232.762L483.849 233.841L483.647 234.111L483.579 234.179L483.107 234.651L482.702 235.393L482.365 236.269L482.163 237.011V238.091L482.433 238.63L483.647 239.372L483.984 239.844L484.119 240.316L484.254 241.328L484.523 242.34L484.996 243.149L486.682 245.577L487.356 246.252L489.515 247.668L490.054 248.275L490.594 248.95L492.347 252.052L492.617 252.997L492.685 253.738L492.617 254.615L492.415 255.357L491.943 255.627L491.673 255.694L490.729 256.099L489.38 256.032L488.975 256.234L486.007 259.876L485.468 260.483L484.793 260.753L482.77 260.955L482.298 261.158L481.084 262.169L476.43 263.99L474.136 265.339L473.327 266.081L470.764 269.724L468.538 272.084L468.269 272.624L467.796 273.905L467.122 275.052L466.38 275.929L464.559 277.413L464.154 277.817L463.682 279.166L463.277 279.638L458.219 281.864L457.544 282.269L457.342 282.471L457.14 282.674L457.005 282.876L456.735 283.011L456.398 283.078H455.319L453.902 283.281L453.16 283.55L452.89 283.618L451.879 284.157L450.395 284.764L449.383 285.169L449.248 285.304L446.348 287.462H446.281H446.146L446.011 287.53L445.808 287.597L445.539 287.665L445.269 287.867L445.134 287.934L442.773 288.137L441.829 288.407L441.357 288.474L436.366 287.867L435.759 287.934L433.87 288.946L433.196 289.149L432.656 289.216L427.665 288.272H425.237H425.169H425.102L423.551 288.339L421.932 287.867L420.785 287.732L418.357 288.137L417.75 275.726L417.818 275.119L418.087 274.04L418.357 272.826L418.425 271.612V270.6L418.357 269.589L417.413 264.598L417.211 262.169L417.143 258.999L417.008 255.087L413.029 242.879L411.343 239.44L411.14 238.832L411.073 238.36V237.551L411.882 233.706L412.894 232.965L413.164 232.492L413.433 231.683L413.973 227.366L414.243 226.287L414.648 225.815L415.12 225.613L416.536 225.478L423.281 224.601L425.169 223.454L426.046 221.768L426.653 220.824L427.328 220.284L427.665 220.149L428.002 220.082L428.744 220.149L429.149 220.015L429.284 219.677V219.138L428.879 217.654L427.463 208.886L427.125 203.355L427.193 201.264L427.665 198.499L428.744 195.261L428.002 195.194L425.439 196.138L424.9 195.868L424.36 195.329L423.685 194.047L423.416 193.71L423.213 193.305L423.011 192.361L423.078 191.552L423.618 187.437L423.685 185.616L423.618 185.009L423.416 184.2L422.944 182.851L422.269 181.704L419.234 178.467L418.897 177.995L418.829 177.59L419.032 177.185L419.436 176.646L421.257 175.094L421.46 174.825L420.515 174.69H419.234L418.425 174.487L417.818 174.285L417.278 173.745L416.873 173.206L416.603 171.992L417.48 171.52L418.425 171.25L419.639 170.98H421.325L424.225 171.52L426.586 171.857L429.621 170.373L430.97 169.631L431.644 168.957L431.914 168.619L433.196 165.382L435.556 166.461L435.894 167.54L435.961 167.945L436.028 168.552L435.961 170.508V170.71L436.163 170.913L436.366 170.845L436.501 170.778L437.175 169.766L437.512 169.429L437.85 169.226L438.187 169.361L438.457 169.766L438.659 170.508L438.726 171.317L438.794 172.059L438.726 172.599L438.591 173.341L438.254 174.217L436.838 176.915L436.635 177.455L436.501 178.062V178.399V178.939V179.209L436.635 179.681L436.77 179.883L437.377 181.165L439.131 182.918L439.603 183.795L440.21 185.414L440.615 186.021L441.154 186.493L443.987 188.516L445.876 188.719L450.597 188.247L451.474 187.909L452.351 187.37L455.386 184.874L455.521 184.604L456.128 183.256L456.87 180.692L456.937 180.22L456.87 179.681L456.398 177.118V176.308L456.6 175.971L457.409 175.836L458.489 175.904L458.961 176.173L459.5 176.713L460.04 177.792L461.119 179.478L464.222 182.716L464.626 183.256L464.964 184.065L465.503 185.751L466.11 186.763L467.729 188.382L471.708 190.877L472.99 191.349H474.069L475.351 190.472L478.993 187.1Z" fill="#A0B6BA" stroke="white" stroke-width="0.337239" stroke-linecap="round" stroke-linejoin="round"/>
<path d="M132.986 220.487V220.352L133.998 211.719L134.065 208.481L133.593 202.478L133.728 201.534L134.133 200.927L134.605 200.455L136.763 199.106L137.236 198.701L137.64 198.162L138.315 196.61L138.584 196.273L139.057 195.936L139.326 195.464V194.992L139.124 193.575L139.192 193.103L141.013 188.449L143.238 184.537L143.508 183.795L143.576 182.919L143.441 181.974L143.171 181.097L141.957 178.737L141.755 178.197L141.687 177.658L141.957 177.388H142.362L142.834 177.523L144.79 177.725L145.397 177.59L146.408 177.253L148.499 175.229L150.253 174.15L154.097 172.397L154.907 171.79L155.446 171.048L155.581 170.508L155.649 169.496L154.974 168.08L153.221 165.517L152.141 163.561L151.804 162.482L151.534 161.47V160.661L151.602 159.919L151.467 159.379L151.197 158.907L149.916 158.3L147.218 156.546L143.238 152.904L141.822 151.555L141.013 150.476L140.945 149.937L140.878 149.464L140.81 147.981L145.464 147.441L147.825 146.497L150.32 145.148L152.141 143.934L152.681 143.799H153.356L154.367 144.001L155.177 144.338L155.649 144.676L156.256 145.215L156.526 145.35L156.728 145.418L158.077 145.62L160.303 146.362L162.798 146.632L165.024 146.564L165.361 146.497L166.036 146.227L166.238 146.16L166.845 146.227L167.385 146.16L169.003 146.699L169.61 146.969L169.948 147.374L170.352 147.981L170.69 148.52L170.959 149.06L171.162 149.397L171.364 149.599L171.701 149.937L172.376 150.004L173.185 149.532L173.725 149.33L178.581 149.599L179.39 150.206L180.065 150.544L180.672 150.746L180.874 150.813L182.021 151.96L183.302 152.904L190.25 157.356L190.789 157.626L191.059 157.693L191.733 158.03L192.138 158.502L192.408 158.907L192.813 160.324L193.285 161.335L194.364 162.752L194.768 163.494L195.173 165.45L195.578 166.596L195.848 167.203L196.05 168.889H196.724L201.648 167.338L202.323 167.473L202.997 167.878L204.616 168.687L204.818 170.441L204.953 171.183L205.29 172.059L205.83 173.004L207.179 174.488L207.381 174.96L207.314 175.904L207.381 176.309L207.516 176.578L208.46 176.713L210.484 176.781H210.619L210.956 176.916L211.361 177.185L211.563 177.253H211.833L212.305 177.185L212.642 177.118L213.249 176.713L214.261 175.769L214.463 175.567L214.733 175.095L214.8 174.96L214.935 174.892L215.273 174.825H216.082L217.026 175.432L218.375 176.309L219.927 176.713L220.129 178.602L219.994 180.895V181.57L220.129 182.177L220.331 182.851L220.736 184.065L220.938 184.402L221.208 184.74L222.085 185.212L222.49 185.549L222.759 186.089L223.164 187.37L223.569 187.842L225.187 189.056L225.727 189.596L226.469 190.608L226.874 190.945L227.278 191.215L228.223 191.484L228.83 191.619L229.369 191.754L229.706 191.957L230.381 192.766L234.023 197.892L234.563 199.039L234.9 200.725L235.979 208.414L235.844 209.493L235.642 210.909L233.416 218.464L232.809 219.678L232.539 219.947L231.865 220.622L231.528 220.892L231.258 221.431L231.123 222.038L231.055 222.983V223.859L231.393 227.367V230.132L231.258 230.941L230.988 232.155L230.651 232.965L230.179 233.707L229.909 234.111L229.504 234.516L228.56 235.191L226.132 236.472L225.862 236.877L225.727 237.416V239.844L226.401 246.657V247.399L225.525 254.683L225.727 257.044L225.66 257.853L225.525 258.73L224.041 263.586L223.097 265.61L222.962 266.351V267.161L223.973 280.785L217.701 279.976L215.273 279.639L211.361 278.897L211.023 278.964L210.214 279.167L209.809 279.301L204.548 279.841L197.736 280.583L196.185 280.853L196.05 280.246L196.117 278.964L195.78 277.278L195.713 275.794L193.554 273.636L192.61 272.826L190.789 271.208L190.182 270.398L189.103 269.387L188.159 268.645L187.552 267.903L186.742 266.824L186.338 266.284L186.27 265.744L186.135 264.126L185.865 263.114L185.798 262.439L184.044 258.527L183.909 258.258L183.572 257.583L183.505 257.179L181.886 253.132L181.684 251.311L181.549 250.973L181.144 250.299L180.2 247.938L179.795 247.264H177.704L176.085 246.522V246.319L175.816 246.117V245.847L176.153 245.375V245.105L176.288 244.296L176.423 242.677L176.558 242.205L176.625 241.531V241.261L176.827 241.059L177.502 240.519L177.704 240.317V239.575H177.434L175.478 239.912L172.781 240.249L172.173 240.114L171.027 240.452L170.555 240.519L169.813 240.452L169.138 239.777L168.127 239.44L167.722 239.507L166.643 239.17L165.699 238.698L165.294 238.563L164.417 238.293L164.147 237.754L163.743 237.079L163.675 236.809L162.798 235.798L162.056 235.325L161.382 234.921L160.842 234.449L160.438 234.246L160.235 234.044L159.358 233.572L159.021 233.504L158.077 233.572L157.605 233.504L157.133 233.302L157.065 232.425L156.93 231.751L156.458 231.481L155.851 231.211L155.649 230.806L154.974 229.795L153.828 229.053L153.288 228.648L152.546 228.109L151.467 227.434L150.455 226.827L149.578 226.355L148.837 226.085L147.96 225.546L147.083 225.006L145.464 224.264L145.127 223.724L144.385 223.387L144.115 223.252L141.822 221.701L141.35 221.903H141.282L140.473 221.836L139.664 221.499L138.787 221.027L138.18 221.094L137.977 221.027L137.573 220.959L137.236 221.027L136.763 220.892L135.819 220.554L135.414 220.487H134.807L134.673 220.42L134.133 220.352L132.986 220.487Z" fill="#A0B6BA" stroke="white" stroke-width="0.337239" stroke-linecap="round" stroke-linejoin="round"/>
<path d="M223.973 280.785L222.961 267.161V266.351L223.096 265.609L224.04 263.586L225.524 258.73L225.659 257.853L225.726 257.043L225.524 254.683L226.401 247.398V246.657L225.726 239.844V237.416L225.861 236.877L226.131 236.472L228.559 235.19L229.503 234.516L229.908 234.111L230.178 233.707L230.65 232.965L230.987 232.155L231.257 230.941L231.392 230.132V227.366L231.055 223.859V222.982L231.122 222.038L231.257 221.431L231.527 220.891L231.864 220.622L232.539 219.947L232.808 219.677L233.415 218.463L235.641 210.909L235.844 209.493L235.978 208.414L234.899 200.725L234.562 199.038L234.022 197.892L230.38 192.766L229.706 191.956L229.369 191.754L228.829 191.619L228.222 191.484L227.278 191.214L226.873 190.945L226.468 190.607L225.726 189.596L225.187 189.056L223.568 187.842L223.163 187.37L222.759 186.088L222.489 185.549L222.084 185.212L221.207 184.739L220.938 184.402L220.735 184.065L220.331 182.851L220.128 182.176L219.993 181.569V180.895L220.128 178.602L219.926 176.713L219.858 175.162L219.993 174.555L220.803 172.531L223.77 163.291L223.905 162.482L223.973 161.605L224.108 160.795L224.445 160.256L224.984 159.919L225.659 159.851L227.48 159.784L228.627 159.514L229.773 159.042L231.325 156.681L231.864 155.535L232.134 154.725L231.999 154.186L231.864 153.646V152.972L232.134 152.567L233.011 151.623L233.55 150.678L233.888 150.004L234.09 149.464L234.225 148.925L234.36 148.183V147.845V147.643L234.292 147.441L235.506 146.294L236.248 145.822L238.137 145.215L239.688 145.013L240.025 145.08L240.363 145.215L240.7 145.35L240.902 145.62L241.172 145.89L241.644 147.104V148.925L241.914 149.464L242.251 149.869L245.623 152.095L246.096 152.297H246.703L248.996 152.23L250.615 151.96L251.154 151.757L251.491 151.555L251.896 151.285L252.84 150.004L253.245 149.734L253.717 149.599L254.931 149.397L255.336 149.127L255.673 148.857L256.01 148.385L256.483 147.913L257.831 147.104L258.304 147.036V149.262L258.439 150.139L258.708 150.813L259.046 151.285L259.585 151.825L261.002 152.972L261.474 153.646L261.743 154.388L261.811 155.062L261.743 155.804L261.609 157.221V157.895L261.676 158.705L261.878 159.177L262.081 159.716L262.148 160.121L262.216 160.526L262.148 161.065V161.605L262.283 162.279L262.485 162.751L262.823 163.021H263.227L264.914 162.617L271.591 160.593L272.198 160.458L272.603 160.526L272.805 160.795L273.007 162.549L273.277 163.224L273.749 163.966L274.019 164.64L274.289 165.652L274.424 165.922L274.626 166.056L275.638 166.326L276.245 166.529L276.852 167.068L277.189 167.608L277.594 168.889L277.863 169.496L278.133 169.901L278.538 170.171L279.954 170.103L281.371 169.631H282.045L284.136 169.968L285.013 169.901L287.374 169.361L287.846 169.564L288.992 170.778L289.734 172.194L289.937 172.531L292.095 174.69L293.916 176.983L294.051 179.209L294.186 179.681L294.321 180.153L294.591 180.49L294.658 180.895L294.591 181.434L292.904 183.593L292.567 184.335L292.769 184.807L293.039 185.077L293.309 185.549L293.511 186.223L293.646 187.64V188.719L293.511 189.258L293.376 189.596L293.039 190.068L292.567 190.472L291.96 190.742L290.948 191.147L290.544 191.484L290.206 191.956L289.937 192.563L289.667 193.17L289.532 193.845L289.599 196.206L289.869 197.622L289.937 198.566L289.869 199.645L289.06 202.546L289.127 203.962L289.06 204.637L288.385 206.39L287.509 207.604L286.429 208.683L286.227 209.021L286.092 209.425V209.965L286.362 211.381V211.988L286.294 212.798L286.362 213.202L286.497 213.607L286.699 216.507L286.834 217.519L287.104 218.733L287.306 219.34L287.509 219.88L287.913 220.284L288.385 220.622L290.746 221.364L291.96 222.105L292.702 222.78L294.456 223.859L294.86 224.601L294.321 226.085L293.579 227.973L293.511 228.243V228.648L293.579 229.12L293.849 229.795L294.725 231.751L295.265 233.302L298.368 245.847L288.925 251.648L287.981 251.985L287.576 252.052L272.872 251.85L271.186 252.187L269.837 251.715L267.072 248.882L264.914 245.982L261.676 243.014L261.406 242.812L261.136 242.745L260.867 242.812L255.134 244.296L254.999 244.498L254.931 244.835L254.864 246.522L255.741 268.375L257.697 284.09H257.764L254.931 284.899L247.175 283.888L239.418 282.876L231.729 281.864L223.973 280.785Z" fill="#A0B6BA" stroke="white" stroke-width="0.337239" stroke-linecap="round" stroke-linejoin="round"/>
<path d="M411.882 233.707L411.073 237.552V238.361L411.141 238.833L411.343 239.44L413.029 242.88L417.008 255.088L417.143 259L417.211 262.17L417.413 264.598L418.357 269.589L418.425 270.601V271.613L418.357 272.827L418.088 274.041L417.818 275.12L417.75 275.727L418.357 288.137L412.085 289.149L411.073 289.082L410.399 289.351L409.387 289.486L408.173 289.284L406.959 288.137L405.88 288.272L405.205 288.609L404.261 288.744L403.586 289.284L403.047 290.161L402.305 290.363L402.035 290.565L401.496 290.903L393.941 292.117L385.375 295.894L376.81 299.603L369.255 303.583L367.906 304.257L367.097 304.932L366.827 305.067L366.49 305.202L365.478 305.741L364.399 305.876L364.062 306.011L360.555 309.788L359.948 309.99L359.61 309.518L358.869 308.776H358.666L358.599 308.709L358.194 308.574L352.663 308.507L351.584 308.372V308.102L351.045 307.967V303.246H350.707V302.774L343.288 304.257L338.162 305.269L334.385 304.392L333.441 304.055L330.945 303.246L329.731 302.639L324.133 299.603L323.526 299.334L322.514 299.131L322.312 298.996L322.042 298.862L320.356 298.12L319.277 297.445L319.007 297.31L318.13 296.703L316.781 296.164L315.162 295.961H313.881L313.004 295.624L312.397 296.164L311.722 295.961L310.981 295.826H310.036L308.89 295.624L307.541 294.882L306.596 294.612L305.989 294.747L304.978 294.343L304.506 293.736L303.561 292.454L303.089 291.712L299.38 286.654L298.503 286.316L295.535 286.046L295.13 285.979H295.063L294.658 285.912L292.432 285.507L291.556 285.305L290.342 284.9L283.394 283.011L281.438 282.337L280.427 282.134L278.673 282.202L276.717 282.472L274.829 282.134L271.456 282.202L270.579 282.876L265.251 282H264.374L257.764 284.09H257.697L255.741 268.375L254.864 246.522L254.931 244.836L254.999 244.499L255.134 244.296L260.867 242.812L261.137 242.745L261.406 242.812L261.676 243.015L264.914 245.982L267.072 248.883L269.837 251.716L271.186 252.188L272.873 251.85L287.576 252.053L287.981 251.985L288.925 251.648L298.368 245.848L299.852 245.173L305.45 243.419L315.027 242.678L322.109 243.217L322.177 242.812L321.975 242.071L320.828 238.833V237.956L321.03 237.214L321.975 236.405L322.244 235.933L322.582 235.191L322.919 233.909L323.189 233.033L326.494 225.883L327.033 224.871L331.013 222.713L334.25 220.217L334.79 219.61L335.194 219.003L336.543 216.44L336.746 215.968L336.813 215.496L343.086 215.631L343.49 216.171L343.625 216.373V216.508V216.643L343.558 217.182V217.52L343.625 218.599V218.734V218.868L343.558 219.071L343.356 219.408V219.61V219.745V219.948V220.083L343.423 220.42L343.49 220.622V220.824V221.162L343.423 221.769L343.356 222.106L343.288 222.308L343.356 222.578L344.097 224.197L344.57 224.736L345.042 225.141L346.458 225.613L354.957 226.962L362.78 227.839L368.176 228.379L369.323 228.648L369.728 228.918L372.156 233.37L373.37 235.123L373.909 236.203L374.179 236.877V237.417V237.956L374.449 238.631L374.786 239.17L376.337 240.452L377.754 241.329L379.238 241.936L379.845 242.071L385.78 241.126L387.466 240.856L388.343 240.587L389.76 239.98L391.446 238.631L392.795 237.889L403.721 234.112H404.261L405.138 234.247L406.487 234.921L406.891 234.988L408.78 234.719L411.882 233.707Z" fill="#A0B6BA" stroke="white" stroke-width="0.337239" stroke-linecap="round" stroke-linejoin="round"/>
<path d="M314.892 67.5156H314.825L313.813 68.1227L312.599 68.7972L311.79 69.6065L311.048 70.4159L310.845 70.6857L310.643 71.3602L310.508 71.6974L310.306 72.9115L309.901 73.8557L309.766 74.1255L309.092 74.8675L308.687 75.2047L308.282 75.6094L307.81 76.0815L307.271 76.8234L307.203 77.2281L306.394 78.3747L305.584 79.2516L305.18 79.926L305.045 80.4656V80.9378L305.112 81.4099L305.18 81.6797L305.382 81.9495L305.719 82.2193L306.731 82.8263L308.282 83.5008L309.901 84.0404L312.329 85.187L313.678 85.5917L315.229 86.3336L316.781 87.2104L317.32 87.75L317.995 88.4919L316.443 89.706L315.836 90.0432L315.567 90.1107H315.162L314.083 89.9083H313.746L313.341 89.9758L312.936 90.2456L312.801 90.3804L312.599 90.7177L311.992 92.4713L311.452 93.5505L311.25 93.8877L310.508 94.7646L309.631 95.5065L309.294 95.7088L308.417 96.1135L306.866 96.6531L306.057 96.7205L305.18 97.0578L303.763 97.395L302.617 97.8672L302.212 98.1369L301.875 98.4742L301.133 99.351L300.256 100.025L300.121 100.43L299.851 100.902L299.379 101.442L298.907 101.712L298.637 101.779L297.828 101.914L297.153 102.656L296.884 103.128L296.209 104.949L296.074 105.421V105.893V106.635L296.412 108.524L296.479 108.726L292.567 109.536L290.476 109.401L289.869 109.063L285.418 105.826L279.55 102.656L279.01 102.386L278.538 102.454L278.336 102.723L278.201 102.858L278.133 102.993L278.066 103.128V103.263L277.998 103.87L277.931 104.072L277.661 104.477L277.391 104.882L276.649 105.421L276.312 105.759V105.961V106.231L276.177 106.433L273.951 106.973H273.547L273.209 106.568L272.94 106.838L272.872 107.175L272.805 107.58L272.737 107.715L272.805 108.052L272.94 108.254L273.142 108.389L275.435 109.671L275.84 110.21V110.345V110.48L275.638 110.75L275.57 110.952L275.098 111.289L274.963 111.357L274.828 111.424H274.761L274.491 111.492L274.289 111.627L273.479 112.166L273.209 112.301L272.805 112.503V112.638V112.773L272.872 112.908V113.11L272.737 113.245L272.535 113.582L272.13 113.92L271.861 114.392L271.726 114.662L271.793 114.797L272.063 114.931L272.13 114.999L272.198 115.134L272.063 115.269L271.726 115.606L271.658 115.741L271.591 115.876L271.658 116.011L271.726 116.146V116.415L271.523 116.685L271.388 117.225L271.253 117.562V117.899V118.101L271.456 118.574V118.911L271.523 119.316L271.658 119.585L271.861 119.99L271.995 120.192L272.063 120.327L272.198 120.395L272.4 120.462L272.805 120.53L272.94 120.597L273.007 120.665L273.209 120.867L273.614 121.474L272.805 122.148L271.119 122.688L269.365 123.025L268.825 123.362L268.623 123.902L268.758 124.509V125.049L268.556 125.723L267.949 125.993L267.274 126.128L266.667 125.993L266.195 125.791L263.295 124.104L262.62 123.767L260.799 123.7L260.394 123.835L259.99 124.172L259.787 124.576L259.585 125.184L259.383 127.544L259.113 128.151L258.843 128.488L258.506 128.556L254.257 128.961L253.785 128.826L253.38 128.691L252.975 128.421L252.57 128.286L252.368 128.354L252.098 128.623L251.829 129.028L251.491 129.5L250.952 129.905L250.412 130.04L249.94 129.972L249.333 129.635L247.714 127.814L247.579 125.925L246.433 121.811L246.23 120.799L246.163 119.923L246.23 119.316L246.298 118.843L246.433 118.439L247.782 116.213L248.119 115.471L248.456 114.594L248.793 113.313V112.908L248.658 112.368L248.186 110.885L247.917 109.131L247.512 105.624L247.377 104.949L247.242 104.544L246.905 104.207L240.969 104.814L240.025 106.838L239.013 108.254L237.934 108.996L237.462 109.131L236.72 109.198L236.316 109.063L235.911 108.861L235.034 108.187L234.36 107.782L233.011 107.31L230.38 106.973L228.492 107.108L227.952 107.242L227.345 107.512L226.131 107.917L225.254 107.849L224.782 107.647L218.981 103.33L217.902 102.858L215.946 102.791L212.304 102.521L210.753 102.116L209.809 101.509L205.829 97.7323L205.357 97.0578L205.02 95.9786V95.5065V94.7646L205.222 93.8877L205.357 93.4156L205.627 92.7411L205.897 92.3364L206.773 91.1898L208.325 89.7734L210.011 88.6268L210.416 88.1547L210.618 87.8174L210.483 87.4802L209.809 86.4685L209.674 86.1312L209.539 85.8614L209.471 85.5242L209.404 85.2544V85.1195L209.674 85.2544L210.011 85.4568L210.213 85.9963L210.685 86.7383L211.63 87.2104L212.776 87.4802H213.518L214.328 87.2104L215.204 86.8057L216.823 85.5917L218.105 84.6474L218.712 83.9055L218.847 82.9612L218.644 82.4216L218.509 82.0844L218.577 81.8146L219.993 81.4773L221.747 80.6005L222.152 80.5331L222.556 80.668L223.231 81.4099L223.568 81.6122L223.905 81.4099L224.445 80.7354L225.052 80.1958L227.75 78.712L228.829 77.4979L231.797 70.9555L231.931 70.4834L231.999 69.8763L231.931 69.4042L231.797 68.4599L231.864 67.4482L232.471 65.6271L232.538 64.6828L232.404 63.9409L232.066 63.3339L231.594 62.9292L231.122 62.7269L229.908 62.5245L229.436 62.3222L227.952 61.1756L227.547 60.7709L227.278 60.2313L226.333 57.7357L225.726 56.1844L225.794 55.5774L226.603 54.3633L226.536 54.0261L225.929 53.554L225.659 53.2167L225.456 52.812L225.254 52.4748L224.377 51.9352L223.703 51.1933L223.163 50.3165L223.096 49.3722L224.31 46.7417L224.647 45.73L224.782 44.7183L224.917 44.3136L225.456 42.8972L225.524 42.4251L225.456 41.7506L225.187 40.7389V40.2667L225.322 39.7272L225.524 39.3225L226.063 38.5806L226.333 38.1759L227.21 36.1524L227.547 35.478L227.817 35.2082L228.087 35.1407L228.964 34.6686L229.436 34.6011L230.987 34.9384L231.19 34.3988L231.257 33.6569L231.122 32.3079L231.19 31.6334L231.392 31.0938L231.864 30.0147L231.999 29.4077L233.145 27.4517L234.899 26.6423L238.609 25.5631L239.216 25.0235L239.823 24.3491L240.362 23.5397L241.644 20.9092L241.914 19.4928L242.049 19.0207L242.791 18.009L242.925 17.5368L242.993 17.0647V15.9855L243.128 15.446L243.735 14.7715H244.477L244.679 14.9064L245.151 15.3111L245.421 16.2553L245.758 16.9973L246.365 17.4019L249.67 18.5486L250.345 18.9532L250.749 19.4928L251.087 20.0324L251.491 20.5045L252.031 20.8418L256.482 22.1233L258.843 22.1907L259.383 22.4605L260.799 23.8095L262.081 25.2933L263.362 26.5074L265.048 27.047L266.802 26.8446L268.96 27.2493L274.693 27.1819L275.84 27.8564L277.121 28.261L285.35 32.5103L286.227 33.3196L287.036 33.522H287.846L288.588 33.7243L289.33 34.3988L290.004 35.2756L290.678 35.6803H291.42L293.174 35.0058L294.051 34.9384L294.86 35.0733L296.277 35.6803L297.288 35.6128L297.828 35.6803L298.165 35.8826L299.177 36.6246L299.649 36.8269L301.2 36.692L301.538 36.8269L302.212 37.4339L302.549 37.6363L304.033 37.7037L304.505 37.9735L304.775 38.3108L306.596 39.5248L306.731 40.0644L306.461 40.6714L305.652 42.0878L305.584 42.4251L305.719 42.6949L305.854 43.2344L305.922 43.774V44.3136L305.787 45.3253L305.854 46.4719L306.191 47.686L306.731 48.7652L307.271 49.642L307.473 50.0467V50.4514L307.338 50.9235L307.136 51.2607L307.608 52.0701L307.473 52.8795L307.136 53.7563L306.933 54.5657L307.203 55.5099L307.743 56.117L308.957 56.9938L309.361 57.8706L309.159 58.5451L308.687 59.2196L308.35 59.9615L308.215 60.8383L308.417 61.7151L308.822 62.5245L309.294 63.1315L310.171 63.4688L312.059 63.7386L312.869 64.3456L314.218 66.9761L314.825 67.4482L314.892 67.5156Z" fill="#A0B6BA" stroke="white" stroke-width="0.337239" stroke-linecap="round" stroke-linejoin="round"/>
<path d="M296.479 108.726L296.412 108.524L296.074 106.635V105.893V105.421L296.209 104.949L296.884 103.128L297.154 102.656L297.828 101.914L298.637 101.779L298.907 101.712L299.379 101.442L299.852 100.902L300.121 100.43L300.256 100.025L301.133 99.351L301.875 98.4742L302.212 98.1369L302.617 97.8671L303.764 97.395L305.18 97.0578L306.057 96.7205L306.866 96.6531L308.417 96.1135L309.294 95.7088L309.631 95.5065L310.508 94.7645L311.25 93.8877L311.453 93.5505L311.992 92.4713L312.599 90.7177L312.802 90.3804L312.936 90.2455L313.341 89.9757L313.746 89.9083H314.083L315.162 90.1106H315.567L315.837 90.0432L316.444 89.7059L317.995 88.4919L317.321 87.75L316.781 87.2104L315.23 86.3336L313.678 85.5916L312.329 85.1869L309.901 84.0403L308.283 83.5008L306.731 82.8263L305.719 82.2192L305.382 81.9495L305.18 81.6797L305.112 81.4099L305.045 80.9377V80.4656L305.18 79.926L305.585 79.2515L306.394 78.3747L307.203 77.2281L307.271 76.8234L307.81 76.0815L308.283 75.6094L308.687 75.2047L309.092 74.8674L309.766 74.1255L309.901 73.8557L310.306 72.9114L310.508 71.6974L310.643 71.3602L310.846 70.6857L311.048 70.4159L311.79 69.6065L312.599 68.7971L313.813 68.1227L314.825 67.5156H314.892L317.59 68.1901L319.951 70.0112L320.76 70.3484L321.637 70.5508L324.605 70.1461L325.954 70.5508L326.696 72.1021L326.966 72.9789L327.37 73.5185L327.977 73.7208L329.866 73.5185L330.473 73.6534L331.147 73.9906L332.294 74.8L333.575 75.407L334.857 75.4745L337.083 73.8557H338.229L340.657 74.9349L341.939 75.2047L343.49 74.9349L344.974 74.3278L345.918 73.2487L346.323 72.5742L347.335 71.8323L347.874 71.2927L349.695 72.9114L351.179 74.9349L351.382 75.407L351.651 76.3513L351.719 76.8909L351.786 77.9026L352.933 79.1166L352.798 79.319L352.663 79.5888L352.326 79.7237L351.921 79.8586L351.044 79.926L350.977 81.4773L351.044 82.489L351.179 83.0961L351.382 83.6356L352.124 84.6474L354.282 87.008L354.687 87.6825L355.159 88.6268L354.012 89.8408V92.876L353.945 93.8877L353.81 94.4947L353.405 96.1135L352.933 96.9903L352.528 98.1369L352.191 100.025L351.719 101.981L351.449 104.207L351.112 105.624L350.168 105.151L349.628 105.017L348.886 104.882L348.414 104.949L347.942 105.084L347.739 105.219L346.593 106.366L343.895 105.489L343.153 105.219L342.344 105.961L341.197 107.512V109.131L344.704 110.143L345.783 110.278L346.93 110.817L347.537 111.222L348.414 111.626L349.291 112.503L350.168 113.245L350.775 114.055L351.517 114.797L351.449 114.999L351.247 115.404L351.044 115.673L351.179 115.876L350.91 116.348L351.112 118.439L351.247 119.585L351.449 122.081V124.307L351.382 125.521L351.044 126.802L350.842 127.207L350.64 127.409L349.628 128.151L348.819 128.961L348.144 130.175L347.672 131.524L347.47 132.063L346.66 133.412L347.47 134.289L348.414 135.705L348.549 136.312L348.684 137.796L349.493 138.336L350.64 138.74L351.719 138.943L353.675 139.01L353.877 138.943L354.08 138.808L354.349 138.875L354.484 138.943L354.619 139.078L354.687 139.348L354.754 140.089L354.349 140.494L354.417 141.843L354.484 142.72L355.294 145.822L355.698 147.104L353.742 147.306H351.247L350.977 147.981L350.437 148.858H348.954L347.942 148.925L347.47 148.993L346.593 149.33L344.165 150.949L343.355 151.758L342.479 152.567L342.816 153.646L343.018 153.984L343.288 154.321L343.693 154.726L344.3 155.4L344.435 155.67L344.502 156.075V156.479L344.03 157.356L342.613 157.761L340.253 158.3L338.634 158.503L338.229 158.435L337.555 158.368L337.083 158.3L336.408 158.368L335.059 158.705L334.924 157.558L334.722 156.209L333.441 154.928L332.631 154.321L331.417 153.174L330.54 152.567L329.731 151.825L329.124 150.949L328.652 150.341L328.045 149.33L327.64 148.318L327.033 147.306L326.089 146.025L325.617 145.688L325.212 145.485L324.74 145.418L323.863 145.35L323.391 144.541L322.784 143.192L322.649 142.787L322.379 141.978L321.3 141.438L320.018 140.831L319.681 140.562L319.344 140.224L319.209 140.022L319.142 139.482L318.939 137.392L318.669 135.975L318.467 135.233L317.928 134.289L317.388 133.48L316.983 132.603L316.039 131.254L315.095 130.31L314.016 130.175H313.071L312.667 130.04L312.194 129.905L310.98 128.961L310.643 128.691L310.104 128.016L309.901 126.398L309.631 125.656L309.159 125.116L308.215 124.442L307.878 124.104L307.608 123.7L307.406 123.295L307.271 122.688L307.338 121.879V121.406L306.866 118.101L306.124 115.538L305.585 114.189L304.775 114.662L303.966 115.201L303.426 115.336H303.022L302.617 115.201L302.28 114.999L302.077 114.594L301.875 114.055L301.673 113.65L301.2 113.11L300.796 112.841L300.593 112.706L300.121 112.638L299.379 112.571L298.435 111.964L298.03 111.559L297.626 111.222L296.951 110.345L296.681 109.805L296.479 108.726Z" fill="#A0B6BA" stroke="white" stroke-width="0.337239" stroke-linecap="round" stroke-linejoin="round"/>
<path d="M100.003 117.36V116.82L100.071 116.078V115.876L100.003 115.673L99.9359 115.404L99.2614 113.043L98.9916 112.368L98.9242 112.233L98.7218 111.964L98.1148 111.357L97.7101 110.615L97.5752 110.412L97.4403 110.277L97.1705 110.143L95.7541 109.67L95.282 109.333L95.0122 109.063L93.8656 106.5L93.4609 105.219L93.3935 105.151L93.1911 105.017L93.0562 104.814L91.8422 102.926L91.7073 102.723L91.6398 102.454V102.319V102.116V101.981L91.7073 101.644V101.509V101.307L91.6398 100.498L91.5724 100.16L91.4375 100.025L91.3026 99.958L90.8304 99.8905L88.9419 99.6207L87.8627 99.5533L87.3232 99.2835L87.2557 99.2161L87.1883 99.0812L86.851 98.3392L86.7836 98.002L86.7161 97.9345V97.6648V97.5299L86.7836 97.1926L86.6487 96.7205L86.4463 96.2483L84.4229 94.5622L80.8482 92.8085L80.376 92.2689L80.1737 92.0666L80.0388 91.9317L79.9039 91.5945L79.8364 91.2572L79.7016 90.9874L79.5667 90.6502L79.4992 90.5153L79.162 89.0989L78.8922 88.4244L77.6107 86.401L77.5432 86.1312L77.4758 85.7939L77.4083 85.5916V84.8497V84.7148L77.206 83.7705L76.6664 81.9494L76.1943 80.6679L76.0594 80.4656L75.9245 80.3307L75.7221 80.1283L74.7104 79.5213L74.2383 79.2515L74.3057 78.6445L74.4406 77.8351L74.7104 77.2955L75.3174 76.8908L77.813 76.3513L78.5549 75.9466L80.8482 74.1929L81.2529 74.058L82.0622 73.9231L82.3995 73.7882L83.3437 72.9789L84.2206 72.9114L85.8393 73.2487H86.6487L87.0534 73.1138L87.3232 72.9789L87.6604 72.7091L87.9302 72.3044L87.9976 71.8997V71.0229L88.2 70.6856L88.8744 70.281L90.3583 69.8088L91.0328 69.2692L92.3817 67.5156L92.9213 67.0435L93.5958 66.7062H95.8216L96.496 66.5039L98.3171 65.4922H99.0591L100.678 65.8294L101.285 65.6271L101.622 65.1549L101.757 64.4804L101.959 63.8734L102.431 63.4013L104.387 62.5919L104.86 62.0523L105.804 60.2312L106.343 59.7591L107.692 58.9497L109.109 58.4101L110.525 58.2753L113.628 58.8823L115.449 58.8148L117.068 57.8706L118.079 55.7122V55.1727V54.6331L118.214 54.1609L118.484 53.7562L118.821 53.5539L119.293 53.3516L119.766 53.4865L120.035 53.8911L120.44 55.1052L120.912 55.8471L121.519 56.3193L122.261 56.6565L123.003 57.1961L124.082 58.8148L124.824 59.2195H125.229L125.701 59.0172L126.106 58.6799L126.443 58.2753L126.645 57.8031L126.78 56.7914L126.915 56.3193L127.589 55.7797L128.804 55.5773L130.018 55.6448L130.76 56.1169L131.029 57.1961V58.6125L131.367 59.8265L131.569 60.4336L131.704 60.7708L131.974 60.9732L132.311 61.1755L133.525 61.5127H134.132L135.076 61.4453L139.528 61.1755L141.754 61.9174L148.431 62.1872L155.108 62.5245L155.513 62.7268L155.783 63.1315L155.85 63.6036L155.918 64.6828L156.659 66.5713L156.794 67.3133L156.929 70.4159L157.132 71.9671L157.334 72.7091L157.604 73.3161L158.008 73.8557L159.627 74.5302L159.964 74.8674L160.099 75.2046L160.167 75.6768L160.302 76.0815L160.504 76.4862L161.313 77.2955L161.516 77.6328L161.853 78.5096L162.055 78.7794L162.46 78.9143L163 78.8468L164.821 78.1723L168.126 78.0374L168.733 78.1723L169.272 78.6445L169.677 79.5887L170.014 80.2632L170.149 80.4656L171.093 81.0052L176.422 80.9377L177.231 81.2075L178.108 81.882L178.445 82.2867L178.715 82.489L178.378 83.0286L178.445 83.9729L178.715 85.2544L178.85 86.8731V87.2778L178.782 87.4127L178.715 87.6825L178.378 88.6942L178.243 89.3687V90.1106L178.445 90.9874L178.917 92.134L179.12 92.7411L179.389 93.8877L179.524 94.2924L179.862 94.7645L180.401 95.1692L181.548 95.8437L182.02 96.2483L182.357 96.7879L182.627 97.3275L182.762 98.1369L182.694 99.7556L181.076 103.061L180.873 103.937V104.882L181.008 105.691L181.143 106.433L181.008 107.107L180.738 107.849L180.603 108.524L180.536 109.131V110.075V110.345L180.266 111.492L179.592 112.841L178.985 113.11L177.433 113.178L176.557 113.313L175.073 114.729L173.724 115.471L171.431 116.752L168.935 117.427L165.697 117.764L163.944 117.562L163.809 117.494L162.932 116.955L162.393 116.752L160.099 116.82L159.29 116.685L153.827 114.459H153.017L145.126 118.641L144.654 119.248L143.777 120.732L143.102 121.339L142.361 121.879L141.349 123.025L140.202 126.128L138.449 125.183L138.044 124.846L136.83 123.497L136.358 123.16L136.29 123.025L136.155 122.823L136.088 122.688L136.02 122.351L135.886 121.609L135.751 120.867V120.732L135.683 120.53L135.616 120.395L135.481 120.192L135.144 119.788L133.592 118.978L133.323 118.776L133.255 118.708L133.12 118.574L132.918 118.506L131.974 118.304L131.367 118.371L130.625 118.641L129.68 119.383L128.871 120.327L127.994 121.069L127.05 121.474L124.959 120.934L118.012 119.248L117.742 119.383L116.865 120.057L116.393 120.125L116.056 119.855L115.651 119.046L114.977 117.09L114.572 116.28L114.032 115.673L113.56 115.606L113.223 115.673L112.751 115.876H112.414L112.009 115.606L110.728 110.615L110.525 110.143L110.188 109.805L109.716 109.468L109.041 109.333L108.367 109.468L107.49 109.805L105.601 110.952L104.994 111.559L103.78 113.582L101.959 116.078L100.88 117.022L100.003 117.36Z" fill="#A0B6BA" stroke="white" stroke-width="0.337239" stroke-linecap="round" stroke-linejoin="round"/>
<path d="M351.112 105.624L351.449 104.208L351.719 101.982L352.191 100.026L352.529 98.1372L352.933 96.9906L353.405 96.1138L353.81 94.4951L353.945 93.888L354.012 92.8763V89.8412L355.159 88.6271L354.687 87.6828L354.282 87.0084L352.124 84.6477L351.382 83.636L351.18 83.0964L351.045 82.4894L350.977 81.4776L351.045 79.9263L351.922 79.8589L352.326 79.724L352.664 79.5891L352.798 79.3193L352.933 79.117L351.787 77.9029L351.719 76.8912L351.652 76.3516L351.382 75.4073L351.18 74.9352L349.696 72.9118L347.875 71.293L348.347 70.7534L348.954 70.4162L350.235 70.079L352.191 70.1464L352.798 70.0115L353.271 69.7417L354.012 68.9998L354.485 68.8649H356.238L356.778 68.73L357.924 67.9206L358.397 67.7857L359.004 67.6508L361.229 67.9206H361.769L362.241 67.7857L362.781 67.5159L364.804 65.6949L365.546 65.2902L366.49 65.1553L372.426 66.774L375.124 66.5717L375.596 66.7066L376.54 67.1113L377.484 67.3136L378.496 67.3811L379.036 67.4485L380.047 68.3253L380.115 68.5277V68.7975L380.182 69.0672L380.25 69.337L380.385 69.4719L381.868 69.6068L382.408 69.8766L383.15 70.4836L383.555 70.686L383.959 70.7534L387.669 69.6068L389.76 69.4045L391.851 69.6743L393.537 70.2139L394.346 70.686L397.179 73.1816L397.854 73.5188L398.056 73.7886L398.326 74.9352L398.461 75.205L398.865 75.6097L399 75.812L399.135 76.1493L399.27 76.8912L399.472 77.161L399.742 77.4308L400.282 77.7006L400.551 77.9029L401.496 78.7797L402.035 79.1844L402.642 79.4542L403.249 79.3868L403.722 79.117L404.194 79.0495L405.34 80.0612L412.287 80.1961L412.557 80.331L412.692 80.3985L413.367 80.9381L413.771 81.0055L414.378 80.9381H414.581L415.525 81.2753L416.402 81.3427L416.604 81.6125L416.537 82.4219L416.402 82.894L416.199 83.2987L416.132 83.7709V84.3779L416.469 85.7943L416.604 86.8735V87.2781L416.469 87.6154L416.064 88.762V89.0992L416.267 89.3016L416.739 89.369L417.481 89.3016L417.751 89.5714L417.548 90.1784V90.6505L417.751 91.1227L418.088 91.5274L419.437 92.5391L419.842 92.7414L421.46 92.9438L421.932 93.1461L422.202 93.4833L422.405 93.8206L422.539 94.2253L422.742 94.63L423.821 95.9789L426.451 98.3396L427.665 99.149L428.272 99.2164L427.665 102.117L427.396 105.152L426.654 105.084H426.047L423.821 105.422L423.146 105.624L421.798 106.231L420.583 106.973L420.314 107.31L419.842 107.85L419.1 108.457L417.346 107.175L416.874 106.973L416.199 106.703L415.66 106.568L414.918 106.501H413.501L412.962 106.568L411.815 106.905L411.208 107.108L409.859 108.12L408.51 109.401L409.522 111.29L409.792 111.627L410.331 112.099L411.545 112.706L411.95 112.908L412.085 113.111L412.287 113.515L412.422 113.987L412.355 114.662L411.883 115.809L411.545 116.955L411.208 117.899L410.871 118.776L410.669 119.114L410.534 119.316L410.129 119.518L409.724 119.586L408.713 119.451H408.375L408.038 119.586L407.431 119.99L406.622 120.395L405.475 120.8L403.182 121.542L402.373 120.53L402.103 120.26L401.698 120.058L401.226 119.855L400.551 119.788L399.81 119.855L398.326 120.26H397.988L396.572 120.193L395.965 120.328L395.628 120.462L395.088 120.935L394.616 121.474L393.807 122.216L393.267 122.486L392.593 122.688H391.986L390.232 122.284L389.49 122.014L388.411 121.407L388.209 120.935L387.871 120.597L384.904 119.181L382.61 117.765L382.003 118.237L381.531 118.574L380.587 118.911L379.643 118.304L379.305 117.967L379.103 117.765L379.508 116.685L379.845 115.539V114.797L379.71 114.325L379.575 114.122L379.238 113.718L378.631 113.246L378.024 113.043L376.135 112.639L372.628 113.515L371.414 113.92L370.942 114.19L369.998 114.797L368.716 115.809L368.986 116.55L369.323 118.102L369.66 119.046L368.379 119.721L367.097 120.328L366.018 120.935L365.411 121.339L365.006 121.474L363.86 121.677L363.455 121.811L362.174 122.486L361.769 122.823L361.364 122.958L360.96 123.025H360.487L359.476 122.756L358.262 122.216L356.913 121.811L355.968 121.474L354.62 120.867L351.247 119.586L351.112 118.439L350.91 116.348L351.18 115.876L351.045 115.674L351.247 115.404L351.449 114.999L351.517 114.797L350.775 114.055L350.168 113.246L349.291 112.504L348.414 111.627L350.168 110.48L351.045 109.738L351.652 109.131L351.922 108.794L352.056 108.389V107.985L351.854 107.512L351.315 106.433L351.112 105.624ZM386.253 93.4159L385.646 93.281L384.701 93.0112L383.892 92.6065L383.082 91.9995L382.206 91.5948L381.599 91.1901L380.789 90.8529L380.047 90.6505L380.25 89.9761L380.587 89.0992L381.666 87.8177L381.868 87.4805L381.936 87.3456L382.003 86.9409V86.2664L381.868 84.5802L380.317 85.1198L380.115 85.2547L380.047 85.3222L379.508 86.4688L379.103 87.0758L378.833 87.3456L378.563 87.4805L377.417 88.2899L377.282 88.4922L376.81 89.369L376.607 89.7063L376.135 90.111L376.27 91.0552L376.607 91.8646L376.675 92.4716L376.81 93.0112L377.147 93.6182L377.282 93.9555L377.349 94.2927V94.3602V95.0346L377.282 96.3162L377.147 96.8557L376.675 99.756L376.405 102.049L376 104.14L375.663 104.882L376.81 105.354L377.552 105.624L379.643 105.961H380.047L380.519 105.894L380.992 105.759L381.194 105.691L381.599 105.354L382.273 104.612L383.487 103.87L384.634 103.466L385.106 103.398L386.118 103.331L386.725 104.208L387.669 104.882L388.276 105.219L390.772 106.164L392.93 105.556L394.549 104.882L394.481 102.656L394.211 101.037L394.346 99.4862L394.549 97.9349L394.616 96.1138L394.549 94.9672L394.414 94.4276L394.144 93.888L393.942 93.5508L393.402 93.0112L393.065 92.8089L392.39 92.4716L391.783 92.0669L391.176 91.7972L388.95 90.9878L388.276 92.1344L387.871 92.6065L387.129 93.2135L386.725 93.3484L386.253 93.4159Z" fill="#416D74" stroke="white" stroke-width="0.337239" stroke-linecap="round" stroke-linejoin="round"/>
<path d="M140.81 147.981L139.124 144.946L136.83 141.776L136.628 141.236V140.494L136.561 139.685L136.358 138.673L135.954 137.594L135.144 134.963L136.493 134.086L137.505 133.21L139.798 130.782L140.405 129.905L140.675 129.298L140.742 129.095L140.81 128.826V128.286V128.016V127.814L140.945 127.544V127.409L141.012 127.342L141.08 127.274V127.139V126.937L141.012 126.802L140.81 126.6L140.203 126.128L141.349 123.025L142.361 121.878L143.103 121.339L143.778 120.732L144.654 119.248L145.127 118.641L153.018 114.459H153.827L159.291 116.685L160.1 116.82L162.393 116.752L162.933 116.955L163.81 117.494L163.944 117.562L165.698 117.764L168.936 117.427L171.431 116.752L173.724 115.471L175.073 114.729L176.557 113.313L177.434 113.178L178.985 113.11L179.592 112.84L180.267 111.491L180.537 110.345V110.075V109.131L180.604 108.524L180.739 107.849L181.009 107.107L181.144 106.433L181.009 105.691L180.874 104.882V103.937L181.076 103.06L182.695 99.7556L182.762 98.1368L182.628 97.3274L182.358 96.7879L182.02 96.2483L181.548 95.8436L180.402 95.1691L179.862 94.7644L179.525 94.2923L179.39 93.8876L179.12 92.741L178.918 92.134L178.446 90.9873L178.243 90.1105V89.3686L178.378 88.6941L178.716 87.6824L178.783 87.4126L178.85 87.2777V86.873L178.716 85.2543L178.446 83.9728L178.378 83.0285L178.716 82.4889L178.783 82.5564L179.188 82.7587L179.525 82.6238L179.862 82.2866L180.334 81.5447L180.739 81.2749L182.628 81.0051L183.369 80.6004L184.111 79.5887L184.651 79.0491L185.393 78.7793L186.135 78.9142L186.607 79.5887L186.877 80.398L187.214 81.0051L187.686 81.2074L188.226 80.8027L188.428 80.398L188.63 80.0608L188.9 79.791L189.17 79.5887L189.44 79.4538L189.777 79.3863L190.047 79.4538L190.317 79.5887L193.149 80.8702L194.026 81.5447L194.836 82.4215L195.308 82.6913L195.78 82.7587L196.319 82.5564L197.264 81.9493L197.736 81.6795H198.275L198.68 81.8819L198.95 82.2866L199.22 82.9611L199.489 83.4332L199.827 83.5681L200.231 83.4332L200.636 83.096L201.648 82.0168L202.052 81.9493L207.179 82.7587L207.853 83.3657L208.527 84.5798L208.865 84.917L209.404 85.1194V85.2543L209.472 85.5241L209.539 85.8613L209.674 86.1311L209.809 86.4683L210.483 87.4801L210.618 87.8173L210.416 88.1545L210.011 88.6267L208.325 89.7733L206.774 91.1897L205.897 92.3363L205.627 92.741L205.357 93.4155L205.223 93.8876L205.02 94.7644V95.5063V95.9785L205.357 97.0576L205.83 97.7321L209.809 101.509L210.753 102.116L212.305 102.521L215.947 102.791L217.903 102.858L218.982 103.33L224.782 107.647L225.255 107.849L226.131 107.917L227.345 107.512L227.952 107.242L228.492 107.107L230.381 106.972L233.011 107.31L234.36 107.782L235.034 108.187L235.911 108.861L236.316 109.063L236.721 109.198L237.463 109.131L237.935 108.996L239.014 108.254L240.026 106.838L240.97 104.814L246.905 104.207L247.243 104.544L247.377 104.949L247.512 105.624L247.917 109.131L248.187 110.884L248.659 112.368L248.794 112.908V113.313L248.457 114.594L248.119 115.471L247.782 116.213L246.433 118.439L246.298 118.843L246.231 119.315L246.163 119.922L246.231 120.799L246.433 121.811L247.58 125.925L247.715 127.814L241.779 130.579L240.7 130.714L240.093 130.984L239.553 131.591L238.879 132.94L238.339 133.614L237.53 134.154L236.046 134.626L231.999 134.694L231.46 134.896L230.988 135.166L230.65 135.57L230.381 135.908L229.908 137.391L230.043 138.133L230.718 139.82L230.988 140.831L231.055 141.573L230.92 142.18L230.111 144.878L230.043 145.553L230.111 146.092L230.313 146.564L230.92 146.902L231.46 147.104L234.293 147.441L234.36 147.643V147.846V148.183L234.225 148.925L234.09 149.465L233.888 150.004L233.551 150.679L233.011 151.623L232.134 152.567L231.864 152.972V153.646L231.999 154.186L232.134 154.725L231.864 155.535L231.325 156.681L229.774 159.042L228.627 159.514L227.48 159.784L225.659 159.852L224.985 159.919L224.445 160.256L224.108 160.796L223.973 161.605L223.906 162.482L223.771 163.291L220.803 172.532L219.994 174.555L219.859 175.162L219.926 176.713L218.375 176.309L217.026 175.432L216.082 174.825H215.272L214.935 174.892L214.8 174.96L214.733 175.095L214.463 175.567L214.261 175.769L213.249 176.713L212.642 177.118L212.305 177.186L211.832 177.253H211.563L211.36 177.186L210.956 176.916L210.618 176.781H210.483L208.46 176.713L207.516 176.579L207.381 176.309L207.313 175.904L207.381 174.96L207.179 174.488L205.83 173.004L205.29 172.06L204.953 171.183L204.818 170.441L204.616 168.687L202.997 167.878L202.322 167.473L201.648 167.338L196.724 168.89H196.05L195.847 167.203L195.578 166.596L195.173 165.45L194.768 163.494L194.363 162.752L193.284 161.335L192.812 160.324L192.407 158.907L192.138 158.503L191.733 158.03L191.058 157.693L190.789 157.626L190.249 157.356L183.302 152.904L182.02 151.96L180.874 150.814L180.672 150.746L180.065 150.544L179.39 150.206L178.581 149.599L173.724 149.33L173.185 149.532L172.375 150.004L171.701 149.937L171.364 149.599L171.161 149.397L170.959 149.06L170.689 148.52L170.352 147.981L169.947 147.374L169.61 146.969L169.003 146.699L167.384 146.16L166.845 146.227L166.238 146.16L166.035 146.227L165.361 146.497L165.024 146.564L162.798 146.632L160.302 146.362L158.077 145.62L156.728 145.418L156.525 145.35L156.255 145.215L155.648 144.676L155.176 144.339L154.367 144.001L153.355 143.799H152.681L152.141 143.934L150.32 145.148L147.824 146.497L145.464 147.441L140.81 147.981Z" fill="#A0B6BA" stroke="white" stroke-width="0.337239" stroke-linecap="round" stroke-linejoin="round"/>
<path d="M496.124 95.9111V95.9786L497.541 98.002L497.608 98.2044V98.3393L497.541 98.5416L497.406 98.8114L497.068 99.0812L497.001 99.2161L496.934 99.351L497.001 100.7L497.608 104.612L498.35 106.77L498.417 107.58V108.119L497.945 109.536L497.743 110.21L498.08 111.222L498.822 112.975L502.532 119.923L503.678 122.823L504.016 123.969L504.218 125.588V127.274L503.746 128.488L503.476 130.444L503.948 135.301L504.96 137.257L505.162 137.661L505.972 139.348L506.781 142.922L505.432 143.125L505.297 143.192L504.825 143.529L504.555 143.597L503.543 143.732L497.675 145.957L496.596 146.699L496.192 147.104L495.854 147.509L495.585 147.913L495.382 148.318L495.247 148.723L495.112 149.195L495.045 149.734L494.91 151.151V152.028L495.045 153.309L495.382 154.995L493.156 154.861L490.728 154.388H490.324L490.054 154.456L489.245 154.793L488.368 155.333L487.828 155.872L485.872 158.098L485.198 159.245L484.928 159.987L484.726 160.796L484.051 165.989L483.579 167.945L482.23 170.576L480.476 173.678L480.004 174.69L479.734 175.769L479.667 177.928V178.535L479.869 179.411L480.476 181.502L480.611 182.109L480.679 182.649L480.544 183.189L480.409 183.661L479.195 185.414L478.992 185.886L478.925 186.224L478.992 187.101L475.35 190.473L474.069 191.35H472.99L471.708 190.878L467.729 188.382L466.11 186.763L465.503 185.752L464.963 184.065L464.626 183.256L464.221 182.716L461.119 179.479L460.04 177.793L459.5 176.714L458.96 176.174L458.488 175.904L457.409 175.837L456.6 175.972L456.397 176.309V177.118L456.87 179.681L456.937 180.221L456.87 180.693L456.128 183.256L455.521 184.605L455.386 184.875L452.351 187.37L451.474 187.91L450.597 188.247L445.876 188.719L443.987 188.517L441.154 186.494L440.615 186.021L440.21 185.414L439.603 183.796L439.131 182.919L437.377 181.165L436.77 179.884L436.635 179.681L436.5 179.209V178.939V178.4V178.063L436.635 177.456L436.838 176.916L438.254 174.218L438.591 173.341L438.726 172.599L438.794 172.06L438.726 171.318L438.659 170.508L438.456 169.766L438.187 169.362L437.849 169.227L437.512 169.429L437.175 169.766L436.5 170.778L436.365 170.846L436.163 170.913L435.961 170.711V170.508L436.028 168.552L435.961 167.945L435.893 167.541L435.556 166.462L433.195 165.382L431.914 164.371L431.307 163.764L430.632 162.954L430.43 162.415L430.093 161.335L429.351 159.11L429.081 158.772L428.474 158.098L428.272 157.761L427.867 156.142V155.872L427.732 155.67L426.586 154.388L426.383 154.186L426.181 153.646L425.844 152.365L425.709 152.163L425.506 152.028L425.304 151.893L425.102 151.758L424.967 151.421L425.102 150.949L425.371 150.544L425.574 150.072L425.641 149.397L425.506 149.06L425.304 148.655L425.237 148.318L425.304 148.048L425.506 147.846L425.641 147.711L425.844 147.509L426.518 146.16L426.653 145.688L426.72 145.418V144.743V144.608L426.855 144.339L426.72 144.136L426.518 143.934L426.383 143.664L426.451 142.72L426.383 142.383L426.181 141.236L426.248 140.899L426.586 140.359L426.653 139.955L427.934 139.685L428.879 139.415L429.351 139.213L430.16 138.74L430.498 138.471L431.307 137.729L432.453 136.582L433.128 135.975L433.398 135.773L434.072 135.436L434.275 135.301L434.544 135.031L434.814 134.356L435.084 133.007L435.489 131.861L435.893 131.186L436.231 130.849L436.5 130.647L436.838 129.972L437.175 129.028L437.242 128.286L437.175 127.612L436.838 125.925L436.298 124.509L436.028 123.362L435.556 121.676L434.949 118.304L434.612 117.36L434.207 116.415L434.072 115.943L433.87 114.527L433.735 114.055L432.993 112.706L432.184 110.682L431.509 109.468L430.767 108.659L429.621 107.512L429.216 107.107L428.811 106.77L428.474 106.298L427.934 105.893L427.395 105.151L427.665 102.116L428.272 99.2161L429.014 99.2835L431.779 98.7439L433.802 98.8114L435.151 98.5416L437.107 99.1486H437.58L439.536 98.609L441.964 98.8788L442.436 99.0137L442.908 99.2835L443.92 99.6882L444.324 99.8906L445.066 99.8231L445.336 99.958L445.403 100.16L445.471 100.632L445.538 100.902L445.876 101.037L446.348 101.24L450.395 100.97L451.474 101.374L452.081 102.116H452.351L453.902 102.521L459.028 104.005L459.837 103.937L460.647 103.6L461.456 102.993L462.131 102.319L462.468 101.914L462.603 101.712H462.872L463.817 102.791L464.154 103.061L465.233 103.33L467.054 104.477L467.864 104.747L468.673 104.814L469.482 104.747L471.573 104.005L473.934 102.656L477.239 100.228L479.802 99.2835L480.207 99.0812L480.746 98.3393L481.083 98.0695L481.555 98.002L481.96 98.1369L482.837 98.609L483.309 98.7439H483.781L484.186 98.609L486.344 97.4624L487.221 97.1926L494.236 96.7205L496.124 95.9111Z" fill="#A0B6BA" stroke="white" stroke-width="0.337239" stroke-linecap="round" stroke-linejoin="round"/>
<path d="M386.252 93.4157L386.724 93.3483L387.129 93.2134L387.871 92.6064L388.276 92.1342L388.95 90.9876L391.176 91.797L391.783 92.0668L392.39 92.4715L393.064 92.8087L393.402 93.011L393.941 93.5506L394.144 93.8879L394.413 94.4275L394.548 94.967L394.616 96.1136L394.548 97.9347L394.346 99.486L394.211 101.037L394.481 102.656L394.548 104.882L392.929 105.556L390.771 106.163L388.276 105.219L387.669 104.882L386.724 104.207L386.117 103.331L385.106 103.398L384.633 103.465L383.487 103.87L382.273 104.612L381.598 105.354L381.194 105.691L380.991 105.759L380.519 105.894L380.047 105.961H379.642L377.551 105.624L376.809 105.354L375.663 104.882L376 104.14L376.405 102.049L376.675 99.7558L377.147 96.8556L377.282 96.316L377.349 95.0345V94.36V94.2926L377.282 93.9553L377.147 93.6181L376.809 93.011L376.675 92.4715L376.607 91.8644L376.27 91.0551L376.135 90.1108L376.607 89.7061L376.809 89.3689L377.282 88.492L377.417 88.2897L378.563 87.4803L378.833 87.3454L379.103 87.0756L379.507 86.4686L380.047 85.322L380.114 85.2546L380.317 85.1197L381.868 84.5801L382.003 86.2663V86.9407L381.936 87.3454L381.868 87.4803L381.666 87.8176L380.587 89.0991L380.249 89.9759L380.047 90.6504L380.789 90.8527L381.598 91.19L382.205 91.5946L383.082 91.9993L383.891 92.6064L384.701 93.011L385.645 93.2808L386.252 93.4157Z" fill="#144E5A" stroke="white" stroke-width="0.337239" stroke-linecap="round" stroke-linejoin="round"/>
<path d="M433.196 165.382L431.915 168.62L431.645 168.957L430.97 169.632L429.622 170.373L426.586 171.857L424.226 171.52L421.325 170.98H419.639L418.425 171.25L417.481 171.52L416.604 171.992L414.716 172.397L414.581 173.476L414.446 174.555L414.311 176.241L414.243 176.646L414.041 177.118L413.906 177.321L413.569 177.658L413.367 177.793L412.894 177.928L411.276 178.13L410.399 178.467L409.994 178.737L409.859 178.872L408.848 180.356L408.578 180.625L408.241 180.895L406.285 181.637L405.34 181.907L404.868 181.974L401.833 182.109L400.282 182.312L399.135 181.502L398.326 180.76L397.179 179.614L396.437 178.872L395.223 178.197L394.549 177.995L392.66 177.59H391.379H389.692H386.05L382.408 177.523L382.206 176.983L382.071 176.781L381.734 176.444L381.329 176.174L379.305 175.567L378.631 175.297L377.754 174.69L376.54 173.543L376.203 173.274L376.001 173.206L375.528 173.139L374.854 173.206L373.572 173.476L372.831 173.813L371.144 176.174L370.74 176.646L369.323 178.535L367.839 181.3L366.895 180.491L366.153 179.951L365.681 179.546L364.534 178.872L363.253 178.4L361.364 177.793L359.611 177.118L357.925 179.277L357.25 179.951L356.171 180.693L353.608 182.919L353.203 182.514L352.731 181.84L351.854 181.03L349.426 179.344L349.089 179.074L348.954 178.804L348.752 178.4L348.684 177.928V175.297L348.617 174.825L348.482 174.285L348.28 173.746L347.74 173.004L347.335 172.127L346.998 171.655L346.391 170.778L345.649 169.834L346.458 168.957L346.931 168.552L347.268 168.417L347.807 168.35L347.942 167.136L348.01 166.394L347.942 165.787L347.807 165.315L347.672 164.91L347.47 164.573L346.728 163.764L345.514 162.684L344.84 161.875L344.637 161.538L344.3 160.661L344.03 159.042L343.963 158.3L344.03 157.356L344.502 156.479V156.075L344.435 155.67L344.3 155.4L343.693 154.726L343.288 154.321L343.019 153.984L342.816 153.646L342.479 152.567L343.356 151.758L344.165 150.948L346.593 149.33L347.47 148.992L347.942 148.925L348.954 148.858H350.438L350.977 147.981L351.247 147.306H353.743L355.699 147.104L355.294 145.822L354.485 142.72L354.417 141.843L354.35 140.494L354.754 140.089L354.687 139.347L354.62 139.078L354.485 138.943L354.35 138.875L354.08 138.808L353.878 138.943L353.675 139.01L351.719 138.943L350.64 138.74L349.494 138.336L348.684 137.796L348.549 136.312L348.414 135.705L347.47 134.289L346.661 133.412L347.47 132.063L347.672 131.524L348.145 130.175L348.819 128.96L349.628 128.151L350.64 127.409L350.843 127.207L351.045 126.802L351.382 125.521L351.45 124.307V122.081L351.247 119.585L354.62 120.867L355.969 121.474L356.913 121.811L358.262 122.216L359.476 122.755L360.488 123.025H360.96L361.364 122.958L361.769 122.823L362.174 122.486L363.455 121.811L363.86 121.676L365.007 121.474L365.411 121.339L366.018 120.934L367.097 120.327L368.379 119.72L369.66 119.046L369.323 118.101L368.986 116.55L368.716 115.808L369.998 114.796L370.942 114.189L371.414 113.92L372.628 113.515L376.135 112.638L378.024 113.043L378.631 113.245L379.238 113.717L379.575 114.122L379.71 114.324L379.845 114.796V115.538L379.508 116.685L379.103 117.764L379.305 117.967L379.643 118.304L380.587 118.911L381.531 118.574L382.003 118.236L382.61 117.764L384.904 119.181L387.871 120.597L388.209 120.934L388.411 121.406L389.49 122.013L390.232 122.283L391.986 122.688H392.593L393.267 122.486L393.807 122.216L394.616 121.474L395.088 120.934L395.628 120.462L395.965 120.327L396.572 120.192L397.989 120.26H398.326L399.81 119.855L400.552 119.788L401.226 119.855L401.698 120.057L402.103 120.26L402.373 120.53L403.182 121.541L405.475 120.799L406.622 120.395L407.431 119.99L408.038 119.585L408.375 119.45H408.713L409.724 119.585L410.129 119.518L410.534 119.315L410.669 119.113L410.871 118.776L411.208 117.899L411.546 116.955L411.883 115.808L412.355 114.662L412.422 113.987L412.287 113.515L412.085 113.11L411.95 112.908L411.546 112.706L410.331 112.099L409.792 111.626L409.522 111.289L408.51 109.401L409.859 108.119L411.208 107.107L411.815 106.905L412.962 106.568L413.502 106.5H414.918L415.66 106.568L416.199 106.703L416.874 106.973L417.346 107.175L419.1 108.456L419.842 107.849L420.314 107.31L420.584 106.973L421.798 106.231L423.147 105.624L423.821 105.421L426.047 105.084H426.654L427.396 105.151L427.935 105.893L428.475 106.298L428.812 106.77L429.217 107.107L429.622 107.512L430.768 108.659L431.51 109.468L432.185 110.682L432.994 112.706L433.736 114.055L433.871 114.527L434.073 115.943L434.208 116.415L434.613 117.359L434.95 118.304L435.557 121.676L436.029 123.362L436.299 124.509L436.838 125.925L437.176 127.612L437.243 128.286L437.176 129.028L436.838 129.972L436.501 130.647L436.231 130.849L435.894 131.186L435.489 131.861L435.085 133.007L434.815 134.356L434.545 135.031L434.275 135.301L434.073 135.435L433.399 135.773L433.129 135.975L432.454 136.582L431.308 137.729L430.498 138.471L430.161 138.74L429.352 139.213L428.88 139.415L427.935 139.685L426.654 139.954L424.158 139.82L422.809 141.169L422.202 141.91L421.933 142.45L421.528 143.664L421.258 144.608L421.191 145.35L421.258 145.89L421.595 147.104L421.798 148.183L422.405 149.127L422.809 149.465L423.214 149.667L425.575 150.072L425.372 150.544L425.103 150.948L424.968 151.421L425.103 151.758L425.305 151.893L425.507 152.028L425.71 152.163L425.844 152.365L426.182 153.646L426.384 154.186L426.586 154.388L427.733 155.67L427.868 155.872V156.142L428.273 157.761L428.475 158.098L429.082 158.772L429.352 159.11L430.094 161.335L430.431 162.415L430.633 162.954L431.308 163.764L431.915 164.371L433.196 165.382ZM396.1 132.603L395.695 132.468L394.549 131.996L394.077 131.861L392.458 131.524L390.502 131.051H390.569L386.118 130.175L386.455 131.456L386.792 132.805L387.332 134.694L387.534 138.403L388.006 139.078L388.276 139.482L388.546 140.359L388.816 141.303V143.529L388.951 144.069L389.085 144.541L389.288 144.743L389.692 145.013L391.311 145.418L391.986 145.688L394.818 145.418L397.044 145.013H397.516L399 145.081L399.742 145.215L400.484 145.485L401.159 146.025L402.642 147.306L403.115 147.576L403.654 147.711L404.801 147.846L406.217 147.778L407.094 147.644L408.106 147.374L408.173 146.699L408.713 144.069L408.915 142.72L409.387 140.831V140.359L409.252 139.954L408.983 139.55L408.443 139.213L407.229 138.808L406.015 138.538L405.543 138.403L405.071 138.133L404.733 137.796L404.396 137.459L403.857 136.717L403.317 136.11L402.17 134.221L401.159 133.007L400.754 132.265L400.282 131.254L398.393 132.063L396.842 132.535L396.1 132.603Z" fill="#A0B6BA" stroke="white" stroke-width="0.337239" stroke-linecap="round" stroke-linejoin="round"/>
<path d="M288.993 170.779L287.846 169.565L287.374 169.362L285.013 169.902L284.136 169.969L282.046 169.632H281.371L279.955 170.104L278.538 170.172L278.134 169.902L277.864 169.497L277.594 168.89L277.189 167.609L276.852 167.069L276.245 166.53L275.638 166.327L274.626 166.057L274.424 165.923L274.289 165.653L274.019 164.641L273.75 163.967L273.277 163.225L273.008 162.55L272.805 160.796L272.603 160.527L272.198 160.459L271.591 160.594L264.914 162.618L263.228 163.022H262.823L262.486 162.752L262.283 162.28L262.148 161.606V161.066L262.216 160.527L262.148 160.122L262.081 159.717L261.879 159.178L261.676 158.706L261.609 157.896V157.222L261.744 155.805L261.811 155.063L261.744 154.389L261.474 153.647L261.002 152.973L259.585 151.826L259.046 151.286L258.709 150.814L258.439 150.14L258.304 149.263V147.037L257.832 147.105L256.483 147.914L256.011 148.386L255.674 148.858L255.336 149.128L254.932 149.398L253.718 149.6L253.245 149.735L252.841 150.005L251.896 151.286L251.492 151.556L251.154 151.758L250.615 151.961L248.996 152.231L246.703 152.298H246.096L245.624 152.096L242.251 149.87L241.914 149.465L241.644 148.926V147.105L241.172 145.891L240.902 145.621L240.7 145.351L240.363 145.216L240.026 145.081L239.688 145.014L238.137 145.216L236.249 145.823L235.507 146.295L234.293 147.442L231.46 147.105L230.92 146.902L230.313 146.565L230.111 146.093L230.043 145.553L230.111 144.879L230.92 142.181L231.055 141.574L230.988 140.832L230.718 139.82L230.043 138.134L229.908 137.392L230.381 135.908L230.65 135.571L230.988 135.166L231.46 134.897L231.999 134.694L236.046 134.627L237.53 134.155L238.339 133.615L238.879 132.941L239.553 131.592L240.093 130.985L240.7 130.715L241.779 130.58L247.715 127.815L249.333 129.636L249.94 129.973L250.413 130.04L250.952 129.905L251.492 129.501L251.829 129.029L252.099 128.624L252.369 128.354L252.571 128.287L252.976 128.422L253.38 128.691L253.785 128.826L254.257 128.961L258.506 128.556L258.844 128.489L259.113 128.152L259.383 127.545L259.585 125.184L259.788 124.577L259.99 124.172L260.395 123.835L260.8 123.7L262.621 123.768L263.295 124.105L266.195 125.791L266.667 125.993L267.275 126.128L267.949 125.993L268.556 125.724L268.758 125.049V124.51L268.623 123.903L268.826 123.363L269.365 123.026L271.119 122.688L272.805 122.149L273.615 121.474L273.21 120.867L273.008 120.665L272.94 120.598L272.805 120.53L272.401 120.463L272.198 120.395L272.063 120.328L271.996 120.193L271.861 119.991L271.659 119.586L271.524 119.316L271.456 118.911V118.574L271.254 118.102V117.9V117.562L271.389 117.225L271.524 116.686L271.726 116.416V116.146L271.659 116.011L271.591 115.876L271.659 115.741L271.726 115.606L272.063 115.269L272.198 115.134L272.131 114.999L272.063 114.932L271.794 114.797L271.726 114.662L271.861 114.392L272.131 113.92L272.535 113.583L272.738 113.246L272.873 113.111V112.909L272.805 112.774V112.639V112.504L273.21 112.302L273.48 112.167L274.289 111.627L274.491 111.492L274.761 111.425H274.829L274.964 111.357L275.098 111.29L275.571 110.953L275.638 110.75L275.84 110.48V110.346V110.211L275.436 109.671L273.142 108.39L272.94 108.255L272.805 108.052L272.738 107.715L272.805 107.58L272.873 107.176L272.94 106.838L273.21 106.568L273.547 106.973H273.952L276.178 106.434L276.313 106.231V105.961V105.759L276.65 105.422L277.392 104.882L277.661 104.478L277.931 104.073L277.999 103.871L278.066 103.264V103.129L278.134 102.994L278.201 102.859L278.336 102.724L278.538 102.454L279.01 102.387L279.55 102.657L285.418 105.827L289.87 109.064L290.477 109.401L292.567 109.536L296.479 108.727L296.682 109.806L296.952 110.346L297.626 111.222L298.031 111.56L298.435 111.964L299.38 112.571L300.122 112.639L300.594 112.706L300.796 112.841L301.201 113.111L301.673 113.65L301.875 114.055L302.078 114.595L302.28 114.999L302.617 115.202L303.022 115.337H303.427L303.966 115.202L304.775 114.662L305.585 114.19L306.124 115.539L306.866 118.102L307.338 121.407V121.879L307.271 122.688L307.406 123.296L307.608 123.7L307.878 124.105L308.215 124.442L309.16 125.117L309.632 125.656L309.902 126.398L310.104 128.017L310.643 128.691L310.981 128.961L312.195 129.905L312.667 130.04L313.072 130.175H314.016L315.095 130.31L316.039 131.254L316.984 132.603L317.388 133.48L317.928 134.29L318.467 135.234L318.67 135.976L318.94 137.392L319.142 139.483L319.209 140.023L319.344 140.225L319.681 140.562L320.019 140.832L321.3 141.439L322.379 141.979L322.649 142.788L322.784 143.193L323.391 144.542L323.863 145.351L324.74 145.418L325.212 145.486L325.617 145.688L326.089 146.025L327.033 147.307L327.64 148.319L328.045 149.33L328.652 150.342L329.124 150.949L329.731 151.826L330.541 152.568L331.417 153.175L332.631 154.322L333.441 154.929L334.722 156.21L334.925 157.559L335.06 158.706L333.036 159.987L332.159 160.189L329.192 160.324L325.819 159.92L325.077 159.65L324.673 159.313L323.661 157.087L323.256 156.412L322.717 155.873L319.412 154.659L318.94 154.591H317.86L316.309 153.714L316.107 153.647L315.567 153.58L315.297 153.849L315.095 154.254L315.162 154.861L315.365 155.401L315.635 155.805L315.972 156.21L316.309 156.412L316.781 156.615L317.051 156.817L316.984 157.694L315.837 160.257L315.095 161.538L313.611 162.55L313.409 162.955L313.206 163.494L313.139 164.911L312.802 166.462L311.79 166.867L311.318 166.732L310.846 166.395L310.441 165.99L309.699 164.776L309.227 164.304L308.755 164.169H308.215L305.99 165.113L302.01 166.26L300.661 167.271L300.122 167.879L299.245 168.486L288.993 170.779Z" fill="#A0B6BA" stroke="white" stroke-width="0.337239" stroke-linecap="round" stroke-linejoin="round"/>
<path d="M348.414 111.627L347.537 111.222L346.93 110.817L345.784 110.278L344.705 110.143L341.197 109.131V107.512L342.344 105.961L343.153 105.219L343.895 105.489L346.593 106.366L347.74 105.219L347.942 105.084L348.414 104.949L348.886 104.882L349.628 105.017L350.168 105.152L351.112 105.624L351.314 106.433L351.854 107.512L352.056 107.984V108.389L351.921 108.794L351.652 109.131L351.045 109.738L350.168 110.48L348.414 111.627Z" fill="#A0B6BA" stroke="white" stroke-width="0.337239" stroke-linecap="round" stroke-linejoin="round"/>
<path d="M416.604 171.992L416.874 173.206L417.278 173.746L417.818 174.285L418.425 174.488L419.234 174.69H420.516L421.46 174.825L421.258 175.095L419.437 176.646L419.032 177.186L418.83 177.59L418.897 177.995L419.234 178.467L422.27 181.705L422.944 182.851L423.416 184.2L423.619 185.01L423.686 185.617L423.619 187.438L423.079 191.552L423.012 192.361L423.214 193.306L423.416 193.71L423.686 194.048L424.361 195.329L424.9 195.869L425.44 196.138L428.003 195.194L428.745 195.262L427.665 198.499L427.193 201.265L427.126 203.355L427.463 208.886L428.88 217.654L429.284 219.138V219.678L429.149 220.015L428.745 220.15L428.003 220.082L427.665 220.15L427.328 220.285L426.654 220.824L426.047 221.769L425.17 223.455L423.281 224.601L416.537 225.478L415.12 225.613L414.648 225.816L414.243 226.288L413.974 227.367L413.434 231.683L413.164 232.493L412.894 232.965L411.883 233.707L408.78 234.719L406.892 234.988L406.487 234.921L405.138 234.246L404.261 234.112H403.722L392.795 237.889L391.446 238.631L389.76 239.98L388.343 240.587L387.467 240.856L385.78 241.126L379.845 242.07L379.238 241.936L377.754 241.328L376.338 240.452L374.786 239.17L374.449 238.631L374.179 237.956V237.417V236.877L373.91 236.202L373.37 235.123L372.156 233.37L369.728 228.918L369.323 228.648L368.177 228.379L362.781 227.839L354.957 226.962L346.458 225.613L345.042 225.141L344.57 224.736L344.098 224.197L343.356 222.578L343.288 222.308L343.356 222.106L343.423 221.769L343.491 221.162V220.824V220.622L343.423 220.42L343.356 220.082V219.948V219.745V219.61V219.408L343.558 219.071L343.626 218.868V218.733V218.599L343.558 217.519V217.182L343.626 216.643V216.508V216.373L343.491 216.17L343.086 215.631L336.813 215.496V213.742L336.948 213.135L337.151 212.596L337.623 211.584L337.353 210.842L335.329 208.886L334.52 207.807L334.183 207.132L333.913 206.593L333.846 205.918L333.711 205.244V204.704L333.846 204.232L334.048 203.76L334.79 202.681L335.869 201.669L336.274 201.332L336.746 201.13L338.027 200.927L342.344 200.388L343.221 198.836L343.356 196.948L344.165 192.901L344.233 192.564L344.367 190.608L344.435 190.338L344.637 190.001L344.974 189.866L345.514 189.664L347.942 189.461L349.156 188.989L349.561 188.517L349.831 187.977L350.101 187.37L351.247 185.954L351.382 185.279L351.449 183.998L351.584 183.323L351.719 182.919L352.731 181.84L353.203 182.514L353.608 182.919L356.171 180.693L357.25 179.951L357.924 179.277L359.611 177.118L361.364 177.793L363.253 178.4L364.534 178.872L365.681 179.546L366.153 179.951L366.895 180.491L367.839 181.3L369.323 178.535L370.74 176.646L371.144 176.174L372.83 173.813L373.572 173.476L374.854 173.206L375.528 173.139L376 173.206L376.203 173.274L376.54 173.543L377.754 174.69L378.631 175.297L379.305 175.567L381.329 176.174L381.734 176.444L382.071 176.781L382.206 176.983L382.408 177.523L386.05 177.59H389.692H391.379H392.66L394.549 177.995L395.223 178.197L396.437 178.872L397.179 179.614L398.326 180.76L399.135 181.502L400.282 182.312L401.833 182.109L404.868 181.974L405.34 181.907L406.285 181.637L408.241 180.895L408.578 180.625L408.848 180.356L409.859 178.872L409.994 178.737L410.399 178.467L411.276 178.13L412.894 177.928L413.367 177.793L413.569 177.658L413.906 177.321L414.041 177.118L414.243 176.646L414.311 176.241L414.446 174.555L414.581 173.476L414.715 172.397L416.604 171.992Z" fill="#A0B6BA" stroke="white" stroke-width="0.337239" stroke-linecap="round" stroke-linejoin="round"/>
<path d="M298.369 245.848L295.266 233.302L294.726 231.751L293.85 229.795L293.58 229.121L293.512 228.648V228.244L293.58 227.974L294.322 226.085L294.861 224.602L294.457 223.86L292.703 222.781L291.961 222.106L290.747 221.364L288.386 220.622L287.914 220.285L287.509 219.88L287.307 219.341L287.105 218.734L286.835 217.52L286.7 216.508L286.498 213.608L286.363 213.203L286.295 212.798L286.363 211.989V211.382L286.093 209.965V209.426L286.228 209.021L286.43 208.684L287.509 207.605L288.386 206.391L289.061 204.637L289.128 203.963L289.061 202.546L289.87 199.646L289.938 198.567L289.87 197.623L289.6 196.206L289.533 193.845L289.668 193.171L289.938 192.564L290.207 191.957L290.545 191.485L290.949 191.148L291.961 190.743L292.568 190.473L293.04 190.068L293.377 189.596L293.512 189.259L293.647 188.719V187.64L293.512 186.224L293.31 185.549L293.04 185.077L292.77 184.807L292.568 184.335L292.905 183.593L294.591 181.435L294.659 180.895L294.591 180.491L294.322 180.154L294.187 179.681L294.052 179.209L293.917 176.983L292.096 174.69L289.938 172.532L289.735 172.195L288.993 170.778L299.245 168.485L300.122 167.878L300.662 167.271L302.011 166.259L305.99 165.113L308.216 164.168H308.755L309.228 164.303L309.7 164.775L310.442 165.989L310.846 166.394L311.319 166.731L311.791 166.866L312.802 166.462L313.14 164.91L313.207 163.494L313.409 162.954L313.612 162.55L315.096 161.538L315.837 160.256L316.984 157.693L317.052 156.817L316.782 156.614L316.31 156.412L315.972 156.21L315.635 155.805L315.365 155.4L315.163 154.861L315.096 154.254L315.298 153.849L315.568 153.579L316.107 153.647L316.31 153.714L317.861 154.591H318.94L319.412 154.658L322.717 155.872L323.257 156.412L323.661 157.086L324.673 159.312L325.078 159.649L325.82 159.919L329.192 160.324L332.16 160.189L333.037 159.987L335.06 158.705L336.409 158.368L337.084 158.3L337.556 158.368L338.23 158.435L338.635 158.503L340.254 158.3L342.614 157.761L344.031 157.356L343.963 158.3L344.031 159.042L344.3 160.661L344.638 161.538L344.84 161.875L345.515 162.685L346.729 163.764L347.47 164.573L347.673 164.91L347.808 165.315L347.943 165.787L348.01 166.394L347.943 167.136L347.808 168.35L347.268 168.418L346.931 168.553L346.459 168.957L345.649 169.834L346.391 170.778L346.998 171.655L347.336 172.127L347.74 173.004L348.28 173.746L348.482 174.286L348.617 174.825L348.685 175.297V177.928L348.752 178.4L348.954 178.805L349.089 179.074L349.427 179.344L351.855 181.03L352.731 181.84L351.72 182.919L351.585 183.324L351.45 183.998L351.382 185.28L351.248 185.954L350.101 187.37L349.831 187.977L349.561 188.517L349.157 188.989L347.943 189.461L345.515 189.664L344.975 189.866L344.638 190.001L344.435 190.338L344.368 190.608L344.233 192.564L344.166 192.901L343.356 196.948L343.221 198.837L342.344 200.388L338.028 200.927L336.746 201.13L336.274 201.332L335.869 201.669L334.79 202.681L334.048 203.76L333.846 204.232L333.711 204.705V205.244L333.846 205.919L333.914 206.593L334.183 207.133L334.521 207.807L335.33 208.886L337.353 210.842L337.623 211.584L337.151 212.596L336.949 213.135L336.814 213.743V215.496L336.746 215.968L336.544 216.44L335.195 219.003L334.79 219.61L334.251 220.218L331.013 222.713L327.034 224.871L326.494 225.883L323.189 233.033L322.92 233.909L322.582 235.191L322.245 235.933L321.975 236.405L321.031 237.214L320.829 237.956V238.833L321.975 242.071L322.178 242.813L322.11 243.217L315.028 242.678L305.451 243.42L299.852 245.173L298.369 245.848Z" fill="#A0B6BA" stroke="white" stroke-width="0.337239" stroke-linecap="round" stroke-linejoin="round"/>
<path d="M426.653 139.955L426.586 140.36L426.249 140.899L426.181 141.237L426.383 142.383L426.451 142.721L426.383 143.665L426.518 143.935L426.721 144.137L426.856 144.339L426.721 144.609V144.744V145.418L426.653 145.688L426.518 146.16L425.844 147.509L425.642 147.712L425.507 147.847L425.304 148.049L425.237 148.319L425.304 148.656L425.507 149.061L425.642 149.398L425.574 150.072L423.213 149.668L422.809 149.465L422.404 149.128L421.797 148.184L421.595 147.105L421.257 145.891L421.19 145.351L421.257 144.609L421.527 143.665L421.932 142.451L422.202 141.911L422.809 141.169L424.158 139.82L426.653 139.955Z" fill="#A0B6BA" stroke="white" stroke-width="0.337239" stroke-linecap="round" stroke-linejoin="round"/>
<path d="M396.099 132.603L396.841 132.535L398.393 132.063L400.281 131.254L400.753 132.266L401.158 133.008L402.17 134.222L403.316 136.11L403.856 136.717L404.396 137.459L404.733 137.796L405.07 138.134L405.542 138.403L406.014 138.538L407.228 138.808L408.442 139.213L408.982 139.55L409.252 139.955L409.387 140.359V140.832L408.915 142.72L408.712 144.069L408.173 146.7L408.105 147.374L407.093 147.644L406.217 147.779L404.8 147.846L403.654 147.711L403.114 147.576L402.642 147.307L401.158 146.025L400.484 145.485L399.742 145.216L399 145.081L397.516 145.013H397.044L394.818 145.418L391.985 145.688L391.311 145.418L389.692 145.013L389.287 144.744L389.085 144.541L388.95 144.069L388.815 143.529V141.304L388.545 140.359L388.276 139.483L388.006 139.078L387.534 138.403L387.331 134.694L386.792 132.805L386.454 131.456L386.117 130.175L390.569 131.052H390.501L392.457 131.524L394.076 131.861L394.548 131.996L395.695 132.468L396.099 132.603Z" fill="#144E5A" stroke="white" stroke-width="0.337239" stroke-linecap="round" stroke-linejoin="round"/>
</svg>
