<svg width="319" height="154" viewBox="0 0 319 154" fill="none" xmlns="http://www.w3.org/2000/svg">
<path d="M285.562 88.9055L284.724 87.9276L282.698 84.6447L282.559 84.47L282.419 84.3303L282.209 84.2605L278.018 84.47L276.167 84.8542L271.627 85.0288L270.754 85.2733L269.078 86.1115L267.89 83.9112L267.297 83.0381L267.017 82.7238L266.703 82.4444L266.423 82.2349L266.109 82.0602L265.026 81.6062L264.852 81.5014L264.677 81.3617L264.572 81.1522L264.468 80.8728L264.433 80.4886L264.468 79.3361L264.782 76.6818L264.712 76.2976L264.572 76.123L264.363 75.9484L262.617 75.0054L258.111 71.3732L252.139 70.0461L250.218 69.1381L249.694 69.0333H249.415L249.136 69.0682L248.786 69.173L247.11 70.081L247.215 68.3348L247.11 67.0076L246.691 65.1566L246.272 64.2835L246.167 64.074L245.643 63.0611L245.399 60.5466L245.538 59.5337L245.783 58.9051V58.032L245.678 57.1938L245.503 56.6001L244.91 55.0983L242.989 51.501L242.605 50.593L242.43 50.0691L242.535 49.7199L242.779 48.9864V48.707L242.744 48.288L242.36 47.1704L242.046 45.1447L242.011 44.4462L242.046 44.3764L242.081 44.3065L242.255 44.1668L242.325 44.0271L242.36 43.9223V43.8525L242.325 43.7477L241.592 42.7V42.6651L244.595 41.303L245.014 41.2331L246.097 41.3379L246.97 41.7919L247.25 41.8618H247.564L247.983 41.7221L248.891 41.2681L249.485 40.7442L249.694 40.5696L249.904 40.4648L250.113 40.4299L250.637 40.3949L250.812 40.2902L250.917 39.9409V39.417L250.952 39.1726L251.056 38.8932L251.755 37.4962L251.999 37.1469L252.279 36.8326L254.304 35.2959L254.549 34.9118L254.724 34.7721L255.247 34.3879L255.422 34.2133L255.911 33.7942L257.622 32.8861L257.832 32.8512L258.251 32.921H258.461L258.6 32.8512L259.788 31.6288L259.997 31.4891L260.416 31.3843L260.626 31.2796L261.22 30.6509L262.058 30.162L262.896 29.8477L263.35 29.9175L264.258 30.3715L264.747 30.5112L266.563 30.2318L267.506 30.4763L269.916 31.8733L270.09 32.0479L270.23 32.2575L270.44 32.7115L270.579 32.921L272.011 34.5276L273.583 35.715L273.758 35.7849L274.386 35.7499L274.596 35.8198L274.945 35.8547L275.644 35.715L276.691 35.9595H277.006L277.355 35.8547L280.323 34.1085L281.162 33.864L281.965 33.8989L282.768 34.2133L285.492 35.2959L285.911 35.6801L286.261 36.204L286.575 36.7977L284.48 41.4776L284.34 41.8618L282.244 46.5766L280.184 51.2566L280.149 51.501L280.289 52.0249V52.3043L280.114 52.7583L277.669 56.5651L277.704 56.9493V57.1938L277.914 60.1275L277.879 60.4418L276.447 61.3498L276.412 61.3847L276.028 61.6292L275.224 61.9785L275.015 62.2579V62.3976L275.155 63.3405V63.4104L275.469 65.2963L275.574 65.3662L275.609 65.5408L275.853 65.8551L278.368 68.5443L278.961 68.8587L279.555 68.4745L280.638 67.0426L281.616 66.4139L282.209 66.2044L284.025 66.6235H284.724L287.239 66.0647L287.937 66.0297L288.216 66.0647L289.404 66.5885L290.137 66.8679L290.382 67.0076L292.792 69.2777L293.246 69.3127L293.63 68.8237L293.804 68.5094L293.874 68.4396L294.189 67.9157L294.363 67.776L294.887 67.322L296.983 64.528L297.262 64.2835L297.716 64.1089L299.288 64.2137H299.532L300.196 63.8993L300.754 63.7946H301.348L301.593 63.8644L302.047 64.1438L302.326 64.2137L304.212 64.3534L304.911 64.7026L305.539 65.4709L306.587 67.2172L307.111 67.776L309.136 68.684L310.01 68.9984L310.254 69.173L310.394 69.3825L310.464 69.6619L310.568 70.7097L310.638 70.9541L310.743 71.1288L310.848 71.1986V71.2335L310.952 71.2685H310.987L311.895 71.6526L312.28 71.7574L312.489 71.8971L312.559 72.1067L312.489 72.2464L312.28 72.5607L312.21 72.7702L312.594 72.9099L314.131 74.3069L314.27 74.4815L314.41 74.7609L314.48 75.0054L314.62 75.18L314.864 75.2499L314.899 75.3197L315.039 75.2848L315.213 75.3547L315.632 75.669L316.331 76.5072L316.61 76.9263L316.855 77.4502L316.925 77.7296V78.5677L316.96 78.7424L316.994 78.8471L317.029 78.917L317.169 79.1265L317.483 79.4758L317.623 79.6504L317.693 79.7552V79.8949L317.763 79.9997L317.833 80.1044L317.937 80.1394H318.112L318.217 80.1743L318.252 80.2791L318.217 80.4188L318.147 80.5235L318.112 80.6283V80.8379L318.147 80.9077L318.182 80.9426L318.217 81.0125H318.287L318.322 81.0823V81.1522L318.287 81.257V81.3617V81.6761L318.147 82.1301V82.3745L318.182 82.5142L318.322 82.7587L318.357 82.8635V83.0032L318.287 83.108L318.217 83.2127L318.147 83.3175L318.112 83.3524L318.042 83.5271L317.903 83.6668L317.658 83.562L317.309 83.5271L317.239 83.7366L317.169 83.8414L316.994 84.0859L316.925 84.1557L316.68 84.2954L316.54 84.3653L316.261 84.6447L316.226 84.6796H316.121L315.912 84.6447L315.563 84.3303L315.353 84.2954H315.109L314.375 84.1557L313.886 84.1906L313.013 84.4002H312.559L310.044 83.7017L309.8 83.5969L309.556 83.3874L309.276 82.7936L309.101 82.5492L308.892 82.619L308.647 82.8984L308.508 83.0032L308.333 82.9333L308.228 82.7587L308.193 82.5142L308.124 82.3047L307.914 82.1999L307.6 82.3047L307.355 82.5841L307.25 82.7936L307.181 82.8635V82.8984L307.041 83.1778L306.831 83.2127L306.796 83.1778L306.762 83.4223L306.657 83.4572L306.308 83.3874L305.923 83.1778L305.574 83.0381L305.434 83.108L305.155 83.2826L304.98 83.3524H304.212L303.828 83.2477L303.199 82.9333L302.85 82.8286L302.536 82.7936H302.221L301.907 82.8984L301.593 83.108L301.208 83.4572L301.069 83.4921L300.545 83.5271L300.37 83.5969L299.602 84.1906L299.288 84.2256L298.799 84.3653L298.554 84.47L298.345 84.6097L298.24 84.7844H298.17L297.96 85.0987L297.751 85.2733H297.716L297.681 85.3082V85.6575L297.541 85.7273L297.018 85.7972L296.983 85.7623L296.948 85.7972L296.563 85.8321L296.319 85.7972L295.9 85.5178L295.83 85.4479L295.725 85.1685L295.551 84.9241L295.516 84.8891L295.411 84.6796L295.271 84.5399H295.166L294.747 84.8542L294.573 84.8891H294.538L294.363 84.7844L293.56 84.9939L293.735 85.4479V85.6575L293.665 85.867L293.315 86.356L293.211 86.7401L293.176 87.5434L292.931 87.9625V88.0324L292.547 88.1371L289.264 87.9276L288.007 87.6482H287.832L287.762 87.6831L287.553 87.9276L286.924 88.4515L286.785 88.5213L286.191 88.5912L285.772 88.7309L285.562 88.9055Z" fill="#A0B6BA" stroke="white" stroke-width="0.174624" stroke-linecap="round" stroke-linejoin="round"/>
<path d="M23.1376 34.0371L23.3821 34.1768L23.9059 34.4911L24.0107 34.5959L24.0806 34.6658L24.1504 34.7705L24.3949 35.4341L24.6743 36.3771L24.7791 36.866V36.9359V37.32L24.814 37.4248L24.8489 37.5994L24.8838 37.7391L25.5474 38.7869L25.6871 39.1361L25.8617 39.8695L25.8967 39.9394L25.9665 40.114L26.0364 40.2537L26.0713 40.4283L26.1411 40.603L26.211 40.6728L26.3158 40.7776L26.5602 41.057L28.4112 41.965L29.459 42.8382L29.5638 43.0826L29.6336 43.3271L29.5987 43.5017V43.5716V43.7113L29.6336 43.7462L29.6685 43.9208L29.8432 44.305L29.8781 44.3749L29.913 44.4098L30.1924 44.5495L30.7512 44.5844L31.7291 44.7241L31.9736 44.759L32.0434 44.7939L32.1133 44.8638L32.1482 45.0384L32.1831 45.4575V45.5623V45.6321L32.1482 45.8068V45.8766V45.9814V46.0512L32.1831 46.1909L32.253 46.2957L32.8816 47.2736L32.9515 47.3784L33.0562 47.4482L33.0912 47.4832L33.3007 48.1467L33.8944 49.4739L34.0341 49.6136L34.2786 49.7882L35.012 50.0327L35.1517 50.1025L35.2216 50.1724L35.2914 50.2771L35.501 50.6613L35.8153 50.9756L35.9201 51.1153L35.955 51.1852L36.0947 51.5344L36.4439 52.7568L36.4789 52.8965L36.5138 53.0013V53.1061L36.4789 53.4902V53.7696L35.9899 53.8045L35.012 53.5601L33.9992 53.7696L31.0306 55.1666L29.9829 55.3762L29.9479 55.5508L29.9829 55.6905L30.0527 55.8302L30.1575 55.935L30.856 56.2493L31.0306 56.389L31.1703 56.6684L31.5195 57.786L31.5545 58.1003L31.5195 58.3098L31.1354 58.9036L30.9957 59.2179V59.6021L31.0306 60.0561L31.1354 60.4403L31.3449 61.7325L31.3798 62.0817L31.4148 62.2913L31.4846 62.5357L31.6592 62.7104L32.1482 63.0596L32.2879 63.2342L32.6022 63.5835L32.707 63.7232L32.8118 63.9677L33.1959 65.3647L33.9992 67.8094L34.2786 68.3333L34.4882 68.5777L34.6977 68.8571L34.8723 69.2413L35.5359 71.2669L35.6057 71.5813V71.9654V72.2448L35.5359 72.4893L35.466 72.6639L35.3962 72.8735L35.4311 73.1529L35.6756 73.572L37.0377 75.2484L37.6663 76.2263L37.6314 76.7152L37.1774 77.9027L37.1075 78.217L37.0726 78.5313V78.8456L37.1774 79.1599L37.3869 79.5441L37.8409 79.9283L38.1203 80.1378L38.5045 80.2775L39.3078 80.8363L40.3206 81.7793L41.0191 82.7921L41.8224 83.316V83.6652L41.7525 83.9446L41.508 84.1542L41.3334 84.259L39.9015 84.0494L38.6791 84.1891L38.5045 84.1193L38.2251 83.9097L38.0156 83.9796L37.9108 84.0843L37.7711 84.3288L37.5965 84.8527L37.4218 85.0622L37.1774 85.1321L36.863 85.0622L36.5487 84.8527L36.3042 84.5384L35.9201 83.9097L35.7105 83.7002H35.3962L35.1168 83.7351H34.8025L34.1738 83.4557L33.4753 83.2811V83.2461L33.4055 83.0017L33.2309 82.5826L33.0912 82.5476L32.8118 82.0587H32.7768L32.707 81.919L32.6022 81.6047L32.4625 81.3951L32.6022 80.976L32.5673 80.8713L32.4625 80.6268L32.253 80.3823L32.218 79.9981L32.0085 79.6489L31.8688 79.5441L31.764 79.3695L31.5545 79.1949L31.3449 79.0552L31.1354 78.9853L30.8909 79.0202L30.6814 78.9504L30.0876 78.182L29.8781 77.8328L29.5987 77.5185L29.3542 77.0645L29.2145 76.7152L29.005 76.4358L28.97 76.4009L28.2715 75.1436L28.1318 74.7943L28.0271 74.6896L27.8524 74.4451V74.3054L27.9921 74.1308L28.0271 73.7815L28.1668 73.572L27.9921 73.3974L27.8175 73.118L27.608 72.9433V72.9084L27.6429 72.3845L27.7826 72.1401L27.7477 71.8257V71.7559L27.3984 71.3368L27.1539 71.232L26.665 70.289L26.5951 70.1843L26.4904 69.9747L26.5602 69.4509L26.6301 69.381L26.5951 69.2064L26.3856 69.0318L26.1761 68.927L25.8967 68.8571L25.8268 68.7873L25.6871 68.7524L25.4776 68.7174L25.2331 68.6825L24.7791 68.473L24.36 68.1586L24.0107 67.7745L23.871 67.5998L23.8012 67.3903L23.8361 66.9363L23.9758 66.587L23.7662 66.5172L23.8012 66.4124L23.7662 66.133L23.6265 65.9584H23.2074L22.8233 65.8187L22.6487 65.9234L22.5788 66.0981V66.3076L22.5439 66.4822L22.4042 66.6569L22.0899 66.7966L21.0421 66.8664L20.7278 66.7966L20.623 66.6219L20.5182 66.2029L20.4833 66.0631V66.0282H20.4484L20.1341 65.8187L20.0642 65.7837L20.0293 65.7488H19.8896L19.7848 65.679L19.68 65.4694L19.5753 65.225L19.5054 65.0154L19.3657 64.9456L19.1911 64.9106L19.0514 64.7709L18.9815 64.5614V64.3169V64.282L19.1911 64.0724L18.9815 64.1074L18.9466 63.8978L18.6672 63.7232L18.2831 63.7581L18.0037 63.8629H17.5147H17.3401L16.9559 63.6184H16.8162L16.6067 63.7232L16.1177 64.1074L15.9431 64.282L15.7335 64.4915L15.4541 64.5265L14.9652 64.4217H14.0571L13.7778 64.3169V64.282H13.7428L13.6381 64.1074L13.5333 63.8978L13.2888 63.6184L12.6252 62.7802L12.4855 62.6405L12.2061 62.5707L11.6473 62.6405H11.5076L11.4378 62.6056L11.4029 62.6405L11.0885 62.431L10.425 61.7325L10.1456 61.6277L9.9011 61.6626L9.72648 61.5928L9.58678 61.488L9.55185 61.3483L9.482 61.2086L9.13275 60.545L9.09783 60.2307L9.02798 60.0212L9.16768 59.7767L9.27245 59.3925L9.06291 59.2528L9.02798 59.1131L8.46918 58.4495L8.43426 58.3448L8.39933 58.3797L8.15486 58.2749L7.98024 58.3098L7.77069 58.3797L7.56114 58.3448L7.24682 58.1701V58.1352H7.21189L6.79279 57.5415L6.68802 57.2621L6.54832 57.1573L6.19907 56.9827H6.12922H5.91967L5.08148 56.8779L4.87193 56.5287L4.69731 56.3541L4.20836 56.1096L3.71941 56.0048L3.26539 55.6905L3.19554 55.5857L3.09076 55.446V55.2365L3.37016 54.9221L3.64956 54.7126V54.5729L3.57971 54.4681L3.96388 54.1887L4.06866 54.049L4.03373 53.8744L4.06866 53.8395H4.03373V53.6648L3.75434 53.3505L3.19554 52.9663L2.98599 52.8965L2.56689 52.9314L2.46212 52.8616L2.04302 52.3377L1.83347 52.0932L1.69377 51.9885L1.62392 51.8837L1.4493 51.744L1.41437 51.7091L1.34452 51.6043L1.23975 51.5344L1.0302 51.4297L0.890503 51.29V51.0804L0.960353 50.9058V50.8709L0.995277 50.6962L1.1699 50.4168L1.83347 50.1025L2.18272 49.7882V49.4389L2.25257 49.3691L2.18272 49.2992V49.2294L2.04302 49.0548L1.83347 48.9849H1.79855V48.496L1.8684 48.1817L1.76362 47.9721L1.79855 47.7975V47.4482L1.65885 46.9942L1.62392 46.7847L1.83347 46.8894H2.0081L3.02091 46.7497L3.19554 46.645L3.37016 46.4005L3.71941 46.0512L4.52268 45.5623L4.87193 45.213L4.90685 44.8289L4.69731 44.3749L4.59253 43.9208L4.76715 43.4668L4.87193 43.2922L5.04655 42.8032L5.15133 42.5937L5.3958 42.4191L7.17697 42.1047H7.42144L7.87546 42.2794H8.11993L8.74858 42.2444L8.95813 42.1746L9.3423 41.8952L9.51693 41.8603H9.69155L9.83125 42L10.1106 42.3492L10.3202 42.5588L10.5297 42.5937L12.0315 42.6985L12.0664 42.6286L11.8918 42.1397V41.5459L11.9267 41.3364L11.9966 41.1618L12.2061 41.0919L12.4157 41.1967L12.5205 41.3713L12.5903 41.6158L12.6951 41.8603L12.7999 42L12.8697 42.1746L12.9396 42.3143L13.0793 42.4191L13.4634 42.3492L14.8953 41.6856L15.2446 41.4062L15.4541 41.057L15.3144 40.6728L15.07 40.2537L15.1747 39.8695L15.4541 39.6949L15.8034 39.7648L16.3622 40.3236L16.6416 40.4982H16.9908L17.2353 40.2188L17.4449 39.8346L17.6544 39.5552H18.0037L18.4577 39.2409L19.4006 38.9266L20.0293 38.5773L20.2388 38.4027L20.3436 38.1582L20.2388 37.8788L20.0642 37.7741L19.6102 37.5296L19.5054 37.355V37.2153L19.6451 37.0406V36.866L19.6102 36.7962L19.4356 36.6215L19.3657 36.5168V36.3421L19.4356 35.7484L19.4705 35.6087L19.5753 35.5039L19.8896 35.2246L20.4135 35.015L21.8454 34.9801L22.4042 34.8404L22.8931 34.5959L23.1376 34.2117V34.0371Z" fill="#A0B6BA" stroke="white" stroke-width="0.174624" stroke-linecap="round" stroke-linejoin="round"/>
<path d="M33.4754 83.2818L34.1739 83.4564L34.8026 83.7358H35.1169L35.3963 83.7009H35.7106L35.9202 83.9104L36.3043 84.5391L36.5488 84.8534L36.8631 85.0629L37.1774 85.1328L37.4219 85.0629L37.5966 84.8534L37.7712 84.3295L37.9109 84.085L38.0156 83.9803L38.2252 83.9104L38.5046 84.12L38.6792 84.1898L39.9016 84.0501L41.3335 84.2596L41.5081 84.1549L41.7526 83.9453L41.8224 83.6659V83.3167L41.0192 82.7928L40.3207 81.78L39.3079 80.837L38.5046 80.2782L38.1204 80.1385L37.841 79.929L37.387 79.5448L37.1774 79.1606L37.0727 78.8463V78.532L37.1076 78.2177L37.1774 77.9033L37.6315 76.7159L37.6664 76.227L37.0378 75.2491L35.6757 73.5727L35.4312 73.1536L35.3963 72.8742L35.4661 72.6646L35.536 72.49L35.6058 72.2455V71.9661V71.582L35.536 71.2676L34.8724 69.242L34.6978 68.8578L34.4882 68.5784L34.2787 68.3339L33.9993 67.8101L33.196 65.3653L32.8118 63.9683L32.7071 63.7239L32.6023 63.5842L32.288 63.2349L32.1483 63.0603L31.6593 62.7111L31.4847 62.5364L31.4149 62.292L31.3799 62.0824L31.345 61.7332L31.1355 60.4409L31.0307 60.0568L30.9958 59.6027V59.2186L31.1355 58.9043L31.5196 58.3105L31.5546 58.101L31.5196 57.7867L31.1704 56.6691L31.0307 56.3897L30.8561 56.25L30.1576 55.9356L30.0528 55.8309L29.9829 55.6912L29.948 55.5515L29.9829 55.3768L31.0307 55.1673L33.9993 53.7703L35.0121 53.5608L35.99 53.8052L36.479 53.7703L36.933 53.5957L37.4918 53.1067L38.4347 51.8145L39.0634 50.7668L39.3777 50.4525L40.3556 49.8587L40.8096 49.6841L41.1589 49.6143L41.5081 49.6841L41.7526 49.8587L41.9272 50.0334L42.032 50.2778L42.6956 52.8623L42.9051 53.002H43.0797L43.3242 52.8972L43.4988 52.8623L43.7433 52.8972L44.0227 53.2115L44.2323 53.6306L44.5815 54.6434L44.7911 55.0625L44.9657 55.2022L45.2102 55.1673L45.6642 54.8181L45.8039 54.7482L49.4011 55.6213L50.4838 55.9007L50.9727 55.6912L51.4268 55.307L51.8459 54.8181L52.3348 54.4339L52.719 54.2942L53.0333 54.2593L53.5223 54.364L53.627 54.399L53.6969 54.4688L53.7318 54.5037L53.8715 54.6085L54.6748 55.0276L54.8494 55.2371L54.9192 55.3419L54.9542 55.4118L54.9891 55.5165V55.5864L55.059 55.9706L55.1288 56.3547L55.1637 56.5294L55.1986 56.5992L55.2685 56.704L55.3034 56.7738L55.5479 56.9485L56.1765 57.647L56.3861 57.8216L57.2941 58.3105L57.6085 58.555L57.7132 58.6598L57.7482 58.7296V58.8344V58.9043L57.7132 58.9392L57.6783 58.9741V59.044L57.6085 59.1837V59.2884V59.4281V59.7075L57.5735 59.8472L57.5386 59.952L57.3989 60.2663L57.0846 60.7203L55.8971 61.9776L55.3733 62.4317L54.6748 62.8857L55.0939 64.2477L55.3034 64.8065L55.4082 65.3304L55.4431 65.7495V66.1337L55.5479 66.4131L56.7353 68.0545L57.6085 69.6262L57.6434 70.3945L57.6783 70.639L57.7132 70.9184L58.1323 71.4772L58.8658 72.1757L60.9263 74.0616L62.3233 74.9697L62.9869 75.284L63.1266 75.5285L63.1964 75.8079L63.1615 76.192V76.6111L63.3012 77.135L63.4758 77.6938L64.0346 78.7066L64.9427 80.0338L65.2919 80.7672L65.257 81.291L65.1871 81.5704L64.9077 81.9546L64.4886 82.2689L62.4979 83.177L61.5899 83.7358L60.5072 84.7835L59.9833 84.9581L59.669 85.028L58.6562 84.9232L58.4117 84.8534H58.2022L58.0625 84.9931L58.0974 85.2725L58.2022 85.5519L58.8308 86.7742L58.9705 87.2283L59.0404 87.7172L59.0054 88.1712L58.8658 88.5554L57.7132 90.581L56.7703 92.9908L56.7353 93.2353L56.8401 93.9688V94.2132L56.7004 94.4577L56.4559 94.6323L56.3162 94.8069L55.967 95.6102L55.7574 95.8896L55.513 96.0992L54.3954 96.7977L54.1509 97.0421L53.9414 97.3564L53.8715 97.8454L54.116 100.954L54.0811 102.63L53.5572 107.1V107.17H53.3127L53.1032 107.135L52.9285 107.1H52.719L52.6142 107.135L52.1253 106.961H51.8459L51.4268 106.716L51.2871 106.681L50.9727 106.751H50.7981L50.3441 106.681L49.2265 106.996L48.5629 107.031L47.62 107.275L47.4453 107.24L46.9913 107.066L46.8167 107.031L46.3627 107.135L46.0833 107.031L46.0134 107.066L45.734 106.961H45.5594L45.0705 107.1L44.9657 107.066L44.826 106.926L44.372 106.437L43.883 106.367L43.6735 106.262L43.3591 106.192L43.0099 106.158L42.6606 106.192L42.1368 106.297L40.4255 106.227H40.2159L39.7968 106.367L39.5873 106.402L38.6094 106.158L38.5046 106.192L38.3998 106.227H38.3649L38.1553 106.018L37.9109 105.669L37.5966 105.354L37.5616 105.319L37.387 105.18H37.1774L37.0028 105.319L36.8282 105.494L36.6885 105.634L36.3742 105.459H36.0249L35.6058 105.389H35.4312L34.8724 105.075L34.7327 104.97V104.691L34.4533 104.516L34.3835 104.446L34.0342 104.272L33.6151 104.202L33.1611 104.167L32.8118 104.237L32.1134 104.621H31.799L31.7641 104.516L32.0435 104.132L31.8689 103.468L31.3101 103.154L31.2053 102.805L31.1005 102.176L30.7862 101.547L30.8211 101.478L30.5417 101.163L30.4719 101.093L30.3322 100.954L30.1226 100.674L30.0528 100.639L29.8083 100.15L29.948 98.5788L30.402 96.9374L31.834 94.4228L32.9516 93.375L32.9865 93.2353L33.3008 92.5718L33.3357 91.9431V91.9082V91.8733L33.0563 91.1398L32.7769 90.7906L32.742 90.4763L32.7071 90.3715L32.5325 90.0222L32.3578 89.6031L32.3229 89.4984L32.0435 89.0094L32.288 88.5205L32.6722 88.276L32.9166 87.368L33.1611 87.0536L33.196 86.5298L33.4056 86.3551L33.6151 85.5169L33.65 85.482V85.3423L33.5802 85.1328L33.5103 85.0979V85.0629L33.3706 84.8534L33.1611 84.7835L33.4754 83.3167V83.2818Z" fill="#A0B6BA" stroke="white" stroke-width="0.174624" stroke-linecap="round" stroke-linejoin="round"/>
<path d="M247.11 67.0059L247.215 68.333L247.11 70.0792L248.787 69.1712L249.136 69.0664L249.415 69.0315H249.695L250.219 69.1363L252.139 70.0443L258.112 71.3715L262.617 75.0036L264.363 75.9466L264.573 76.1212L264.712 76.2959L264.782 76.68L264.468 79.3343L264.433 80.4868L264.468 80.871L264.573 81.1504L264.677 81.36L264.852 81.4996L265.027 81.6044L266.109 82.0584L266.424 82.2331L266.703 82.4426L267.017 82.722L267.297 83.0363L267.89 83.9095L269.078 86.1097L270.754 85.2715L271.627 85.0271L276.168 84.8524L278.019 84.4683L282.21 84.2587L282.419 84.3286L282.559 84.4683L282.699 84.6429L284.724 87.9258L285.562 88.9037L285.423 89.0085L285.213 89.4625V89.4974L284.759 90.161L284.724 90.1959L283.327 91.6278L281.93 94.4567L281.86 94.8409L282 95.26L282.21 95.6093L282.279 95.9236L282.07 96.4125L281.476 97.2507L281.232 97.4603L280.848 97.6698L280.568 97.7048H280.359L280.289 97.7397L279.94 97.7048L279.835 97.7397L279.625 97.9492L279.276 98.2635L279.206 98.3334L277.53 99.8002L276.831 100.604L276.622 100.778L273.932 101.581L273.269 101.686H272.256H272.081H272.047L271.488 101.721L271.453 101.686L271.069 101.721L270.58 101.756L270.126 101.861L269.951 101.896H269.707L269.497 101.966H269.183L269.008 101.931L267.332 101.267H267.297L267.157 101.162L266.982 101.197L266.878 101.267L266.668 101.302L265.9 101.616H265.655L265.481 101.756L265.341 101.826L265.236 101.896L265.201 102.035L265.131 102.664L265.027 102.978L264.747 103.607L264.188 104.41L262.163 106.366L261.674 106.68L261.534 106.82L261.429 106.96L261.255 107.309L260.94 107.763L260.626 108.042L260.451 108.147H260.277L260.032 108.287L259.788 108.357L259.229 108.392L258.985 108.497L258.88 108.601L258.845 108.636L258.775 108.706L258.461 109.055L258.356 109.16L258.042 109.265L257.658 109.439L257.553 109.544L257.169 110.033L256.295 110.802L255.737 110.662H255.387H255.213L255.038 110.487L254.864 110.417L253.187 110.278L253.047 110.243H252.733L251.231 110.103L250.358 109.719H249.939L247.704 109.09L246.377 108.497L246.097 108.287L245.888 108.008L245.504 107.309L244.7 106.506L244.386 106.296L244.072 106.226L241.383 106.296L240.44 106.017H240.3L240.16 105.982V105.947L240.125 105.144V104.515L240.16 103.817L240.125 103.502L240.055 103.258L239.776 102.909L239.566 102.734L239.322 102.559L239.112 102.35L238.903 102.07L238.798 101.197L238.693 100.848L238.379 100.534L238.1 100.394L237.96 100.219L237.89 100.115V99.6605L238.065 95.9236L237.925 95.1902L237.715 94.5266L236.842 92.6057L236.668 92.012L236.563 91.7675L236.388 91.558L232.721 89.8816L232.686 89.4276L232.721 89.253L232.826 89.0085L233.455 88.1004L233.524 87.856L233.594 87.5766L233.559 87.2972L233.49 86.9828L233.175 85.9002L233.07 85.4462V85.1318L233.105 84.0142L233.245 83.4554L233.49 82.9316L234.398 81.325L235.096 79.963L235.341 78.9501L235.69 76.2609L235.795 75.8418L235.934 75.4577L236.284 74.8639L237.296 73.7114L237.576 73.432L238.03 73.1526L238.449 72.978L238.589 72.9431H238.798L240.055 73.1876L241.208 73.2574L241.033 72.3843L240.963 71.7207V71.2667L241.033 70.5333L241.068 70.2539L241.138 70.0094L241.208 69.7998L241.313 69.5903L241.452 69.3807L241.627 69.1712L241.837 68.9616L242.395 68.5775L245.434 67.425L245.958 67.3551L246.097 67.3202L246.342 67.1456L246.412 67.1106L247.11 67.0059Z" fill="#A0B6BA" stroke="white" stroke-width="0.174624" stroke-linecap="round" stroke-linejoin="round"/>
<path d="M232.721 89.8835L236.388 91.5599L236.563 91.7694L236.668 92.0139L236.842 92.6076L237.715 94.5285L237.925 95.1921L238.065 95.9255L237.89 99.6624V100.116L237.96 100.221L238.1 100.396L238.379 100.536L238.693 100.85L238.798 101.199L238.903 102.072L239.112 102.352L239.322 102.561L239.566 102.736L239.776 102.91L240.055 103.26L240.125 103.504L240.16 103.818L240.125 104.517V105.146L240.16 105.949V105.984H240.125L240.02 106.019L239.916 106.054L239.811 106.158L239.357 106.473L238.973 106.578L238.798 106.682L238.204 107.101L237.96 107.381L237.75 107.695L235.899 111.502L235.795 111.851V112.061L235.829 112.55V112.759L235.76 113.039L235.69 113.213L235.48 113.528L235.236 114.086L235.131 114.226L235.096 114.261L234.852 114.505L234.642 114.89L234.467 115.344L234.363 115.728V116.287L234.502 116.566L235.131 116.95L235.306 117.195L235.375 117.439L235.445 117.963L235.585 118.487L235.829 118.906L236.703 120.163L237.052 120.513L238.169 121.246L238.449 121.56L238.728 121.91L239.636 123.516L239.776 124.005L239.811 124.389L239.776 124.843L239.671 125.227L239.427 125.367L239.287 125.402L238.798 125.612L238.1 125.577L237.89 125.681L236.353 127.567L236.074 127.882L235.725 128.021L234.677 128.126L234.432 128.231L233.804 128.755L231.394 129.698L230.207 130.396L229.787 130.78L228.46 132.666L227.308 133.889L227.168 134.168L226.924 134.832L226.574 135.425L226.19 135.879L225.247 136.648L225.038 136.857L224.793 137.556L224.584 137.8L221.964 138.953L221.615 139.162L221.51 139.267L221.406 139.372L221.336 139.477L221.196 139.547L221.021 139.581H220.463L219.729 139.686L219.345 139.826L219.205 139.861L218.681 140.14L217.913 140.455L217.389 140.664L217.319 140.734L215.818 141.852H215.783H215.713L215.643 141.886L215.538 141.921L215.398 141.956L215.259 142.061L215.189 142.096L213.967 142.201L213.478 142.341L213.233 142.375L210.649 142.061L210.334 142.096L209.356 142.62L209.007 142.725L208.728 142.76L206.143 142.271H204.886H204.851H204.816L204.013 142.306L203.175 142.061L202.581 141.991L201.324 142.201L201.009 135.775L201.044 135.46L201.184 134.902L201.324 134.273L201.359 133.644V133.12L201.324 132.597L200.835 130.012L200.73 128.755L200.695 127.113L200.625 125.088L198.565 118.766L197.692 116.985L197.587 116.671L197.552 116.426V116.007L197.971 114.017L198.495 113.632L198.635 113.388L198.774 112.969L199.054 110.734L199.193 110.175L199.403 109.93L199.647 109.826L200.381 109.756L203.873 109.302L204.851 108.708L205.305 107.835L205.619 107.346L205.969 107.066L206.143 106.997L206.318 106.962L206.702 106.997L206.912 106.927L206.982 106.752V106.473L206.772 105.704L206.039 101.164L205.864 98.3004L205.899 97.2177L206.143 95.7858L206.702 94.1094L206.318 94.0745L204.991 94.5634L204.711 94.4237L204.432 94.1443L204.083 93.4807L203.943 93.3061L203.838 93.0966L203.734 92.6076L203.768 92.1885L204.048 90.0581L204.083 89.1151L204.048 88.8008L203.943 88.3817L203.699 87.6832L203.349 87.0895L201.778 85.4131L201.603 85.1686L201.568 84.9591L201.673 84.7495L201.883 84.4701L202.826 83.6669L202.93 83.5272L202.441 83.4573H201.778L201.359 83.3525L201.044 83.2478L200.765 82.9684L200.555 82.689L200.416 82.0603L200.87 81.8159L201.359 81.6762L201.987 81.5365H202.86L204.362 81.8159L205.585 81.9905L207.156 81.2221L207.855 80.838L208.204 80.4887L208.344 80.3141L209.007 78.6377L210.23 79.1965L210.404 79.7553L210.439 79.9648L210.474 80.2792L210.439 81.292V81.3968L210.544 81.5015L210.649 81.4666L210.719 81.4317L211.068 80.9078L211.242 80.7332L211.417 80.6284L211.592 80.6983L211.731 80.9078L211.836 81.292L211.871 81.7111L211.906 82.0953L211.871 82.3746L211.801 82.7588L211.627 83.2128L210.893 84.6098L210.788 84.8892L210.719 85.2036V85.3782V85.6576V85.7973L210.788 86.0418L210.858 86.1465L211.173 86.8101L212.081 87.7181L212.325 88.1722L212.639 89.0104L212.849 89.3247L213.128 89.5692L214.595 90.6169L215.573 90.7217L218.018 90.4772L218.472 90.3026L218.926 90.0232L220.497 88.731L220.567 88.5913L220.882 87.8928L221.266 86.5656L221.301 86.3212L221.266 86.0418L221.021 84.7146V84.2955L221.126 84.1209L221.545 84.051L222.104 84.086L222.348 84.2257L222.628 84.5051L222.907 85.0639L223.466 85.937L225.073 87.6134L225.282 87.8928L225.457 88.3119L225.736 89.185L226.05 89.7089L226.889 90.547L228.949 91.8393L229.613 92.0837H230.172L230.835 91.6297L232.721 89.8835Z" fill="#A0B6BA" stroke="white" stroke-width="0.174624" stroke-linecap="round" stroke-linejoin="round"/>
<path d="M53.5573 107.17V107.101L54.0812 102.63L54.1161 100.954L53.8717 97.8455L53.9415 97.3566L54.1511 97.0422L54.3955 96.7978L55.5131 96.0993L55.7576 95.8897L55.9672 95.6103L56.3164 94.8071L56.4561 94.6324L56.7006 94.4578L56.8403 94.2133V93.9689L56.7355 93.2354L56.7704 92.991L57.7134 90.5812L58.8659 88.5555L59.0056 88.1713L59.0405 87.7173L58.9707 87.2284L58.831 86.7744L58.2023 85.552L58.0976 85.2726L58.0626 84.9932L58.2023 84.8535H58.4119L58.6564 84.9233L59.6692 85.0281L59.9835 84.9583L60.5074 84.7836L61.59 83.7359L62.4981 83.1771L64.4888 82.2691L64.9079 81.9547L65.1873 81.5706L65.2571 81.2912L65.2921 80.7673L64.9428 80.0339L64.0348 78.7067L63.476 77.6939L63.3014 77.1351L63.1617 76.6112V76.1921L63.1966 75.808L63.1267 75.5286L62.987 75.2841L62.3235 74.9698L60.9265 74.0617L58.8659 72.1758L58.1325 71.4773L57.7134 70.9185L57.6785 70.6391L57.6435 70.3946L57.6086 69.6263L60.0184 69.3469L61.2408 68.8579L62.533 68.1594L63.476 67.5308L63.7554 67.4609H64.1046L64.6285 67.5657L65.0476 67.7403L65.2921 67.915L65.6064 68.1944L65.7461 68.2642L65.8509 68.2991L66.5494 68.4039L67.7019 68.7881L68.9941 68.9278L70.1466 68.8929L70.3212 68.8579L70.6705 68.7182L70.7753 68.6833L71.0896 68.7182L71.369 68.6833L72.2072 68.9627L72.5215 69.1024L72.6961 69.312L72.9057 69.6263L73.0803 69.9057L73.22 70.1851L73.3248 70.3597L73.4296 70.4645L73.6042 70.6391L73.9534 70.674L74.3725 70.4295L74.6519 70.3248L77.1665 70.4645L77.5856 70.7788L77.9349 70.9534L78.2492 71.0582L78.3539 71.0931L78.9477 71.6868L79.6112 72.1758L83.2085 74.4808L83.4879 74.6205L83.6276 74.6554L83.9768 74.8301L84.1864 75.0745L84.3261 75.2841L84.5356 76.0175L84.7801 76.5414L85.3389 77.2748L85.5485 77.659L85.758 78.6718L85.9676 79.2655L86.1073 79.5798L86.212 80.453H86.5613L89.1108 79.6497L89.46 79.7195L89.8093 79.9291L90.6475 80.3482L90.7522 81.2562L90.8221 81.6404L90.9967 82.0944L91.2761 82.5834L91.9746 83.3517L92.0794 83.5962L92.0445 84.0851L92.0794 84.2947L92.1492 84.4344L92.6382 84.5042L93.6859 84.5392H93.7558L93.9304 84.609L94.14 84.7487L94.2447 84.7836H94.3844L94.6289 84.7487L94.8035 84.7138L95.1178 84.5042L95.6417 84.0153L95.7465 83.9105L95.8862 83.666L95.9211 83.5962L95.991 83.5613L96.1656 83.5264H96.5847L97.0736 83.8407L97.7721 84.2947L98.5754 84.5042L98.6802 85.4821L98.6103 86.6696V87.0188L98.6802 87.3332L98.7849 87.6824L98.9945 88.311L99.0993 88.4857L99.239 88.6603L99.693 88.9048L99.9025 89.0794L100.042 89.3588L100.252 90.0224L100.461 90.2668L101.3 90.8955L101.579 91.1749L101.963 91.6988L102.173 91.8734L102.382 92.0131L102.871 92.1528L103.185 92.2226L103.465 92.2925L103.64 92.3972L103.989 92.8163L105.875 95.4706L106.154 96.0644L106.329 96.9375L106.888 100.919L106.818 101.478L106.713 102.211L105.56 106.123L105.246 106.751L105.106 106.891L104.757 107.24L104.582 107.38L104.443 107.659L104.373 107.974L104.338 108.463V108.917L104.513 110.733V112.165L104.443 112.584L104.303 113.212L104.128 113.632L103.884 114.016L103.744 114.225L103.535 114.435L103.046 114.784L101.788 115.448L101.649 115.657L101.579 115.937V117.194L101.928 120.721V121.105L101.474 124.877L101.579 126.1L101.544 126.519L101.474 126.973L100.706 129.487L100.217 130.535L100.147 130.919V131.338L100.671 138.393L97.4229 137.974L96.1656 137.799L94.14 137.415L93.9653 137.45L93.5462 137.555L93.3367 137.625L90.6125 137.904L87.0851 138.288L86.2819 138.428L86.212 138.114L86.2469 137.45L86.0723 136.577L86.0374 135.809L84.9198 134.691L84.4309 134.272L83.4879 133.434L83.1736 133.015L82.6148 132.491L82.1258 132.107L81.8115 131.723L81.3924 131.164L81.1829 130.884L81.1479 130.605L81.0781 129.767L80.9384 129.243L80.9035 128.894L79.9954 126.868L79.9256 126.728L79.7509 126.379L79.716 126.17L78.8778 124.074L78.773 123.131L78.7032 122.956L78.4937 122.607L78.0047 121.385L77.7952 121.036H76.7125L75.8743 120.651V120.547L75.7346 120.442V120.302L75.9092 120.058V119.918L75.9791 119.499L76.0489 118.661L76.1188 118.416L76.1537 118.067V117.927L76.2585 117.822L76.6077 117.543L76.7125 117.438V117.054H76.5728L75.56 117.229L74.163 117.403L73.8486 117.334L73.2549 117.508L73.0105 117.543L72.6263 117.508L72.277 117.159L71.7532 116.984L71.5436 117.019L70.9848 116.845L70.4959 116.6L70.2863 116.53L69.8323 116.391L69.6926 116.111L69.483 115.762L69.4481 115.622L68.9941 115.098L68.6099 114.854L68.2607 114.644L67.9813 114.4L67.7717 114.295L67.667 114.19L67.2129 113.946L67.0383 113.911L66.5494 113.946L66.3049 113.911L66.0604 113.806L66.0255 113.352L65.9556 113.003L65.7112 112.863L65.3968 112.723L65.2921 112.514L64.9428 111.99L64.3491 111.606L64.0697 111.396L63.6855 111.117L63.1267 110.768L62.6029 110.453L62.1488 110.209L61.7647 110.069L61.3106 109.79L60.8566 109.51L60.0184 109.126L59.8438 108.847L59.4596 108.672L59.3199 108.602L58.1325 107.799L57.888 107.904H57.8531L57.434 107.869L57.0149 107.694L56.5609 107.45L56.2466 107.485L56.1418 107.45L55.9322 107.415L55.7576 107.45L55.5131 107.38L55.0242 107.205L54.8146 107.17H54.5003L54.4305 107.136L54.1511 107.101L53.5573 107.17Z" fill="#A0B6BA" stroke="white" stroke-width="0.174624" stroke-linecap="round" stroke-linejoin="round"/>
<path d="M100.671 138.394L100.147 131.34V130.921L100.216 130.536L100.705 129.489L101.474 126.974L101.544 126.52L101.579 126.101L101.474 124.879L101.928 121.107V120.722L101.579 117.195V115.938L101.648 115.658L101.788 115.449L103.045 114.785L103.534 114.436L103.744 114.226L103.884 114.017L104.128 113.633L104.303 113.214L104.442 112.585L104.512 112.166V110.734L104.338 108.918V108.464L104.373 107.975L104.442 107.661L104.582 107.381L104.757 107.242L105.106 106.892L105.246 106.753L105.56 106.124L106.713 102.212L106.817 101.479L106.887 100.92L106.328 96.9387L106.154 96.0656L105.874 95.4719L103.988 92.8176L103.639 92.3985L103.464 92.2937L103.185 92.2239L102.871 92.154L102.382 92.0143L102.172 91.8746L101.963 91.7L101.579 91.1761L101.299 90.8967L100.461 90.2681L100.251 90.0236L100.042 89.36L99.9022 89.0806L99.6926 88.906L99.2386 88.6615L99.0989 88.4869L98.9941 88.3123L98.7846 87.6836L98.6798 87.3344L98.6099 87.0201V86.6708L98.6798 85.4834L98.575 84.5055L98.5401 83.7022L98.6099 83.3879L99.029 82.3401L100.566 77.5554L100.636 77.1363L100.671 76.6823L100.74 76.2632L100.915 75.9838L101.194 75.8092L101.544 75.7743L102.487 75.7393L103.08 75.5997L103.674 75.3552L104.477 74.1328L104.757 73.5391L104.896 73.12L104.827 72.8406L104.757 72.5612V72.2119L104.896 72.0024L105.35 71.5135L105.63 71.0245L105.804 70.6753L105.909 70.3959L105.979 70.1165L106.049 69.7323V69.5577V69.4529L106.014 69.3481L106.643 68.7544L107.027 68.5099L108.005 68.1956L108.808 68.0908L108.983 68.1257L109.157 68.1956L109.332 68.2654L109.437 68.4051L109.576 68.5448L109.821 69.1735V70.1165L109.961 70.3959L110.135 70.6054L111.881 71.7579L112.126 71.8627H112.44L113.628 71.8278L114.466 71.6881L114.745 71.5833L114.92 71.4785L115.129 71.3388L115.618 70.6753L115.828 70.5356L116.072 70.4657L116.701 70.3609L116.911 70.2212L117.085 70.0815L117.26 69.8371L117.504 69.5926L118.203 69.1735L118.447 69.1386V70.2911L118.517 70.7451L118.657 71.0944L118.831 71.3388L119.111 71.6182L119.844 72.2119L120.089 72.5612L120.228 72.9454L120.263 73.2946L120.228 73.6788L120.159 74.4122V74.7615L120.193 75.1806L120.298 75.425L120.403 75.7044L120.438 75.914L120.473 76.1235L120.438 76.4029V76.6823L120.508 77.0316L120.613 77.276L120.787 77.4157H120.997L121.87 77.2062L125.327 76.1585L125.642 76.0886L125.851 76.1235L125.956 76.2632L126.061 77.1713L126.201 77.5205L126.445 77.9047L126.585 78.2539L126.724 78.7778L126.794 78.9175L126.899 78.9874L127.423 79.1271L127.737 79.2318L128.052 79.5112L128.226 79.7906L128.436 80.4542L128.575 80.7685L128.715 80.9781L128.925 81.1178L129.658 81.0828L130.392 80.8384H130.741L131.823 81.013L132.277 80.9781L133.5 80.6987L133.744 80.8034L134.338 81.4321L134.722 82.1655L134.827 82.3401L135.945 83.4577L136.888 84.6452L136.957 85.7977L137.027 86.0422L137.097 86.2866L137.237 86.4613L137.272 86.6708L137.237 86.9502L136.364 88.0678L136.189 88.452L136.294 88.6964L136.434 88.8361L136.573 89.0806L136.678 89.4299L136.748 90.1633V90.7221L136.678 91.0015L136.608 91.1761L136.434 91.4206L136.189 91.6301L135.875 91.7698L135.351 91.9794L135.141 92.154L134.967 92.3985L134.827 92.7128L134.687 93.0271L134.617 93.3764L134.652 94.5987L134.792 95.3322L134.827 95.8211L134.792 96.3799L134.373 97.8817L134.408 98.6151L134.373 98.9643L134.024 99.8724L133.57 100.501L133.011 101.06L132.906 101.234L132.836 101.444V101.723L132.976 102.457V102.771L132.941 103.19L132.976 103.4L133.046 103.609L133.151 105.111L133.22 105.635L133.36 106.264L133.465 106.578L133.57 106.857L133.779 107.067L134.024 107.242L135.246 107.626L135.875 108.01L136.259 108.359L137.167 108.918L137.376 109.302L137.097 110.07L136.713 111.048L136.678 111.188V111.398L136.713 111.642L136.853 111.991L137.307 113.004L137.586 113.807L139.193 120.303L134.303 123.307L133.814 123.482L133.605 123.516L125.991 123.412L125.118 123.586L124.419 123.342L122.987 121.875L121.87 120.373L120.193 118.837L120.054 118.732L119.914 118.697L119.774 118.732L116.806 119.5L116.736 119.605L116.701 119.78L116.666 120.653L117.12 131.968L118.133 140.106H118.168L116.701 140.525L112.685 140.001L108.668 139.477L104.687 138.953L100.671 138.394Z" fill="#A0B6BA" stroke="white" stroke-width="0.174624" stroke-linecap="round" stroke-linejoin="round"/>
<path d="M197.971 114.017L197.552 116.007V116.426L197.587 116.671L197.692 116.985L198.565 118.766L200.626 125.088L200.695 127.113L200.73 128.755L200.835 130.012L201.324 132.597L201.359 133.12V133.644L201.324 134.273L201.184 134.902L201.045 135.46L201.01 135.775L201.324 142.201L198.076 142.725L197.552 142.69L197.203 142.83L196.679 142.899L196.05 142.795L195.422 142.201L194.863 142.271L194.514 142.445L194.025 142.515L193.676 142.795L193.396 143.249L193.012 143.353L192.872 143.458L192.593 143.633L188.681 144.261L184.246 146.217L179.81 148.138L175.899 150.199L175.2 150.548L174.781 150.897L174.642 150.967L174.467 151.037L173.943 151.316L173.384 151.386L173.21 151.456L171.394 153.412L171.079 153.517L170.905 153.272L170.52 152.888H170.416L170.381 152.853L170.171 152.783L167.307 152.748L166.749 152.678V152.539L166.469 152.469V150.024H166.295V149.78L162.453 150.548L159.799 151.072L157.843 150.618L157.354 150.443L156.062 150.024L155.433 149.71L152.534 148.138L152.22 147.998L151.696 147.894L151.591 147.824L151.452 147.754L150.578 147.37L150.02 147.021L149.88 146.951L149.426 146.636L148.727 146.357L147.889 146.252H147.226L146.772 146.078L146.457 146.357L146.108 146.252L145.724 146.182H145.235L144.641 146.078L143.943 145.693L143.454 145.554L143.139 145.624L142.616 145.414L142.371 145.1L141.882 144.436L141.638 144.052L139.717 141.433L139.263 141.258L137.726 141.118L137.517 141.083H137.482L137.272 141.048L136.12 140.839L135.666 140.734L135.037 140.525L131.44 139.547L130.427 139.197L129.903 139.093L128.995 139.128L127.982 139.267L127.004 139.093L125.258 139.128L124.804 139.477L122.045 139.023H121.591L118.168 140.105H118.133L117.12 131.968L116.666 120.652L116.701 119.779L116.736 119.605L116.806 119.5L119.775 118.731L119.914 118.697L120.054 118.731L120.194 118.836L121.87 120.373L122.988 121.875L124.42 123.342L125.118 123.586L125.991 123.411L133.605 123.516L133.815 123.481L134.303 123.307L139.193 120.303L139.961 119.954L142.86 119.046L147.819 118.662L151.486 118.941L151.521 118.731L151.417 118.347L150.823 116.671V116.217L150.928 115.833L151.417 115.414L151.556 115.169L151.731 114.785L151.906 114.121L152.045 113.667L153.757 109.965L154.036 109.441L156.097 108.324L157.773 107.032L158.052 106.717L158.262 106.403L158.96 105.076L159.065 104.831L159.1 104.587L162.348 104.657L162.558 104.936L162.627 105.041V105.111V105.181L162.593 105.46V105.635L162.627 106.193V106.263V106.333L162.593 106.438L162.488 106.613V106.717V106.787V106.892V106.962L162.523 107.136L162.558 107.241V107.346V107.521L162.523 107.835L162.488 108.01L162.453 108.114L162.488 108.254L162.872 109.092L163.116 109.372L163.361 109.581L164.094 109.826L168.495 110.524L172.546 110.978L175.34 111.258L175.934 111.397L176.143 111.537L177.401 113.842L178.029 114.75L178.309 115.309L178.448 115.658V115.937V116.217L178.588 116.566L178.763 116.846L179.566 117.509L180.299 117.963L181.068 118.277L181.382 118.347L184.455 117.858L185.329 117.719L185.783 117.579L186.516 117.265L187.389 116.566L188.088 116.182L193.745 114.226H194.025L194.479 114.296L195.177 114.645L195.387 114.68L196.365 114.54L197.971 114.017Z" fill="#A0B6BA" stroke="white" stroke-width="0.174624" stroke-linecap="round" stroke-linejoin="round"/>
<path d="M147.749 27.9616H147.714L147.191 28.2759L146.562 28.6252L146.143 29.0442L145.759 29.4633L145.654 29.603L145.549 29.9523L145.479 30.1269L145.374 30.7556L145.165 31.2445L145.095 31.3842L144.746 31.7684L144.536 31.943L144.327 32.1526L144.082 32.397L143.803 32.7812L143.768 32.9908L143.349 33.5845L142.93 34.0385L142.72 34.3877L142.65 34.6671V34.9116L142.685 35.1561L142.72 35.2958L142.825 35.4355L143 35.5752L143.523 35.8895L144.327 36.2388L145.165 36.5182L146.422 37.1119L147.121 37.3214L147.924 37.7056L148.727 38.1596L149.007 38.439L149.356 38.8232L148.553 39.4518L148.238 39.6265L148.099 39.6614H147.889L147.33 39.5566H147.156L146.946 39.5915L146.737 39.7312L146.667 39.8011L146.562 39.9757L146.248 40.8838L145.968 41.4426L145.863 41.6172L145.479 42.0712L145.025 42.4554L144.851 42.5601L144.397 42.7697L143.593 43.0491L143.174 43.084L142.72 43.2586L141.987 43.4333L141.393 43.6777L141.183 43.8174L141.009 43.9921L140.625 44.4461L140.171 44.7953L140.101 45.0049L139.961 45.2494L139.717 45.5288L139.472 45.6685L139.332 45.7034L138.913 45.7732L138.564 46.1574L138.424 46.4019L138.075 47.3448L138.005 47.5893V47.8338V48.218L138.18 49.1959L138.215 49.3006L136.189 49.7197L135.107 49.6499L134.792 49.4753L132.487 47.7989L129.449 46.1574L129.169 46.0177L128.925 46.0526L128.82 46.1923L128.75 46.2622L128.715 46.332L128.68 46.4019V46.4717L128.645 46.786L128.611 46.8908L128.471 47.1004L128.331 47.3099L127.947 47.5893L127.772 47.7639V47.8687V48.0084L127.703 48.1132L126.55 48.3926H126.34L126.166 48.183L126.026 48.3227L125.991 48.4974L125.956 48.7069L125.921 48.7768L125.956 48.9514L126.026 49.0562L126.131 49.126L127.318 49.7896L127.528 50.069V50.1388V50.2087L127.423 50.3484L127.388 50.4532L127.144 50.6278L127.074 50.6627L127.004 50.6976H126.969L126.829 50.7326L126.725 50.8024L126.306 51.0818L126.166 51.1516L125.956 51.2564V51.3263V51.3961L125.991 51.466V51.5707L125.921 51.6406L125.817 51.8152L125.607 51.9898L125.467 52.2343L125.397 52.374L125.432 52.4439L125.572 52.5137L125.607 52.5486L125.642 52.6185L125.572 52.6883L125.397 52.863L125.363 52.9328L125.328 53.0027L125.363 53.0725L125.397 53.1424V53.2821L125.293 53.4218L125.223 53.7012L125.153 53.8758V54.0504V54.1552L125.258 54.3997V54.5743L125.293 54.7838L125.363 54.9235L125.467 55.1331L125.537 55.2378L125.572 55.3077L125.642 55.3426L125.747 55.3776L125.956 55.4125L126.026 55.4474L126.061 55.4823L126.166 55.5871L126.375 55.9014L125.956 56.2507L125.083 56.5301L124.175 56.7047L123.896 56.8793L123.791 57.1587L123.861 57.473V57.7524L123.756 58.1017L123.442 58.2414L123.092 58.3112L122.778 58.2414L122.534 58.1366L121.032 57.2635L120.683 57.0889L119.74 57.0539L119.53 57.1238L119.321 57.2984L119.216 57.508L119.111 57.8223L119.006 59.0447L118.867 59.359L118.727 59.5336L118.552 59.5685L116.352 59.7781L116.107 59.7082L115.898 59.6384L115.688 59.4987L115.479 59.4288L115.374 59.4637L115.234 59.6034L115.095 59.813L114.92 60.0575L114.641 60.267L114.361 60.3369L114.117 60.3019L113.802 60.1273L112.964 59.1844L112.894 58.2065L112.301 56.076L112.196 55.5522L112.161 55.0982L112.196 54.7838L112.231 54.5394L112.301 54.3298L112.999 53.1773L113.174 52.7931L113.348 52.3391L113.523 51.6755V51.466L113.453 51.1866L113.209 50.4182L113.069 49.5102L112.859 47.6941L112.79 47.3448L112.72 47.1353L112.545 46.9607L109.472 47.275L108.983 48.3227L108.459 49.0562L107.9 49.4403L107.656 49.5102L107.271 49.5451L107.062 49.4753L106.852 49.3705L106.398 49.0212L106.049 48.8117L105.351 48.5672L103.989 48.3926L103.011 48.4624L102.731 48.5323L102.417 48.672L101.788 48.8815L101.334 48.8466L101.09 48.7418L98.0863 46.5066L97.5275 46.2622L96.5147 46.2272L94.6287 46.0876L93.8255 45.878L93.3365 45.5637L91.2759 43.6079L91.0315 43.2586L90.8568 42.6998V42.4554V42.0712L90.9616 41.6172L91.0315 41.3727L91.1712 41.0235L91.3109 40.8139L91.7649 40.2202L92.5682 39.4868L93.4413 38.893L93.6508 38.6486L93.7556 38.4739L93.6858 38.2993L93.3365 37.7754L93.2667 37.6008L93.1968 37.4611L93.1619 37.2865L93.127 37.1468V37.077L93.2667 37.1468L93.4413 37.2516L93.546 37.531L93.7905 37.9151L94.2795 38.1596L94.8732 38.2993H95.2574L95.6765 38.1596L96.1305 37.9501L96.9687 37.3214L97.6323 36.8325L97.9466 36.4483L98.0164 35.9594L97.9116 35.68L97.8418 35.5053L97.8767 35.3656L98.6101 35.191L99.5182 34.737L99.7277 34.7021L99.9373 34.7719L100.287 35.1561L100.461 35.2609L100.636 35.1561L100.915 34.8068L101.23 34.5274L102.626 33.7591L103.185 33.1305L104.722 29.7427L104.792 29.4983L104.827 29.1839L104.792 28.9395L104.722 28.4505L104.757 27.9267L105.071 26.9837L105.106 26.4947L105.036 26.1106L104.862 25.7962L104.617 25.5867L104.373 25.4819L103.744 25.3771L103.5 25.2724L102.731 24.6786L102.522 24.4691L102.382 24.1897L101.893 22.8975L101.579 22.0942L101.614 21.7799L102.033 21.1512L101.998 20.9766L101.684 20.7321L101.544 20.5575L101.439 20.348L101.334 20.1734L100.88 19.894L100.531 19.5098L100.252 19.0558L100.217 18.5668L100.845 17.2047L101.02 16.6809L101.09 16.157L101.16 15.9474L101.439 15.214L101.474 14.9696L101.439 14.6203L101.299 14.0964V13.852L101.369 13.5726L101.474 13.363L101.753 12.9788L101.893 12.7693L102.347 11.7216L102.522 11.3723L102.661 11.2326L102.801 11.1977L103.255 10.9532L103.5 10.9183L104.303 11.0929L104.408 10.8135L104.443 10.4293L104.373 9.73084L104.408 9.38159L104.512 9.10219L104.757 8.54339L104.827 8.22907L105.42 7.21625L106.329 6.79715L108.249 6.23836L108.564 5.95896L108.878 5.60971L109.157 5.19061L109.821 3.82855L109.961 3.09513L110.031 2.85065L110.415 2.32678L110.485 2.08231L110.52 1.83783V1.27904L110.589 0.999639L110.904 0.650391H111.288L111.393 0.72024L111.637 0.929789L111.777 1.41874L111.951 1.80291L112.266 2.01246L113.977 2.60618L114.326 2.81573L114.536 3.09513L114.71 3.37453L114.92 3.619L115.199 3.79362L117.504 4.45719L118.727 4.49212L119.006 4.63182L119.74 5.33031L120.403 6.09866L121.067 6.7273L121.94 7.0067L122.848 6.90193L123.966 7.11148L126.934 7.07655L127.528 7.4258L128.191 7.63535L132.452 9.83561L132.906 10.2547L133.325 10.3595H133.744L134.129 10.4643L134.513 10.8135L134.862 11.2675L135.211 11.4771H135.596L136.504 11.1278L136.958 11.0929L137.377 11.1628L138.11 11.4771L138.634 11.4422L138.913 11.4771L139.088 11.5819L139.612 11.966L139.856 12.0708L140.66 12.0009L140.834 12.0708L141.183 12.3851L141.358 12.4899L142.126 12.5248L142.371 12.6645L142.511 12.8391L143.454 13.4678L143.523 13.7472L143.384 14.0615L142.965 14.7949L142.93 14.9696L143 15.1093L143.069 15.3887L143.104 15.6681V15.9474L143.034 16.4713L143.069 17.065L143.244 17.6937L143.523 18.2525L143.803 18.7065L143.908 18.9161V19.1256L143.838 19.3701L143.733 19.5447L143.977 19.9638L143.908 20.3829L143.733 20.8369L143.628 21.256L143.768 21.745L144.047 22.0593L144.676 22.5133L144.886 22.9673L144.781 23.3166L144.536 23.6658L144.362 24.05L144.292 24.504L144.397 24.958L144.606 25.3771L144.851 25.6915L145.305 25.8661L146.282 26.0058L146.702 26.3201L147.4 27.6822L147.714 27.9267L147.749 27.9616Z" fill="#A0B6BA" stroke="white" stroke-width="0.174624" stroke-linecap="round" stroke-linejoin="round"/>
<path d="M138.215 49.3L138.18 49.1952L138.005 48.2173V47.8331V47.5887L138.075 47.3442L138.424 46.4012L138.564 46.1568L138.913 45.7726L139.332 45.7027L139.472 45.6678L139.716 45.5281L139.961 45.2487L140.101 45.0042L140.17 44.7947L140.624 44.4454L141.009 43.9914L141.183 43.8168L141.393 43.6771L141.986 43.4326L142.72 43.258L143.174 43.0834L143.593 43.0485L144.396 42.7691L144.85 42.5595L145.025 42.4547L145.479 42.0706L145.863 41.6165L145.968 41.4419L146.247 40.8831L146.562 39.9751L146.666 39.8004L146.736 39.7306L146.946 39.5909L147.155 39.556H147.33L147.889 39.6607H148.098L148.238 39.6258L148.552 39.4512L149.356 38.8225L149.006 38.4384L148.727 38.159L147.924 37.705L147.12 37.3208L146.422 37.1112L145.165 36.5175L144.326 36.2381L143.523 35.8889L142.999 35.5745L142.825 35.4348L142.72 35.2951L142.685 35.1554L142.65 34.911V34.6665L142.72 34.3871L142.929 34.0379L143.349 33.5838L143.768 32.9901L143.803 32.7806L144.082 32.3964L144.326 32.1519L144.536 31.9424L144.746 31.7677L145.095 31.3836L145.165 31.2439L145.374 30.7549L145.479 30.1263L145.549 29.9517L145.654 29.6024L145.758 29.4627L146.143 29.0436L146.562 28.6245L147.19 28.2753L147.714 27.9609H147.749L149.146 28.3102L150.368 29.2532L150.788 29.4278L151.242 29.5326L152.778 29.323L153.477 29.5326L153.861 30.3358L154.001 30.7898L154.21 31.0692L154.524 31.174L155.502 31.0692L155.817 31.1391L156.166 31.3137L156.76 31.7328L157.423 32.0471L158.087 32.0821L159.239 31.2439H159.833L161.09 31.8027L161.754 31.9424L162.557 31.8027L163.326 31.4883L163.814 30.9295L164.024 30.5803L164.548 30.1961L164.827 29.9167L165.77 30.7549L166.539 31.8027L166.643 32.0471L166.783 32.5361L166.818 32.8155L166.853 33.3394L167.447 33.968L167.377 34.0728L167.307 34.2125L167.132 34.2823L166.923 34.3522L166.469 34.3871L166.434 35.1904L166.469 35.7142L166.539 36.0286L166.643 36.308L167.028 36.8318L168.145 38.0542L168.355 38.4035L168.599 38.8924L168.005 39.521V41.0927L167.971 41.6165L167.901 41.9309L167.691 42.7691L167.447 43.2231L167.237 43.8168L167.062 44.7947L166.818 45.8075L166.678 46.96L166.504 47.6935L166.015 47.449L165.735 47.3791L165.351 47.3093L165.107 47.3442L164.862 47.4141L164.757 47.4839L164.164 48.0776L162.767 47.6236L162.383 47.4839L161.963 47.8681L161.37 48.6713V49.5095L163.186 50.0334L163.745 50.1033L164.338 50.3827L164.653 50.5922L165.107 50.8018L165.561 51.2558L166.015 51.6399L166.329 52.059L166.713 52.4432L166.678 52.548L166.574 52.7575L166.469 52.8972L166.539 53.002L166.399 53.2465L166.504 54.3292L166.574 54.9229L166.678 56.2151V57.3676L166.643 57.9963L166.469 58.6598L166.364 58.8694L166.259 58.9742L165.735 59.3583L165.316 59.7774L164.967 60.4061L164.723 61.1046L164.618 61.384L164.199 62.0825L164.618 62.5365L165.107 63.2699L165.177 63.5842L165.246 64.3526L165.666 64.632L166.259 64.8415L166.818 64.9463L167.831 64.9812L167.936 64.9463L168.04 64.8764L168.18 64.9114L168.25 64.9463L168.32 65.0161L168.355 65.1558L168.39 65.54L168.18 65.7496L168.215 66.4481L168.25 66.9021L168.669 68.5086L168.879 69.1722L167.866 69.277H166.574L166.434 69.6262L166.154 70.0802H165.386L164.862 70.1152L164.618 70.1501L164.164 70.3247L162.906 71.1629L162.487 71.582L162.033 72.0011L162.208 72.5599L162.313 72.7345L162.452 72.9092L162.662 73.1187L162.976 73.4679L163.046 73.6077L163.081 73.8172V74.0267L162.837 74.4808L162.103 74.6903L160.881 74.9697L160.043 75.0745L159.833 75.0396L159.484 75.0046L159.239 74.9697L158.89 75.0046L158.192 75.1793L158.122 74.5855L158.017 73.887L157.353 73.2235L156.934 72.9092L156.306 72.3154L155.852 72.0011L155.433 71.6169L155.118 71.1629L154.874 70.8486L154.559 70.3247L154.35 69.8008L154.036 69.277L153.547 68.6134L153.302 68.4388L153.093 68.334L152.848 68.2991L152.394 68.2642L152.15 67.8451L151.835 67.1466L151.765 66.937L151.626 66.5179L151.067 66.2385L150.403 65.9242L150.229 65.7845L150.054 65.6099L149.984 65.5051L149.949 65.2257L149.845 64.143L149.705 63.4096L149.6 63.0254L149.321 62.5365L149.041 62.1174L148.832 61.6634L148.343 60.9649L147.854 60.4759L147.295 60.4061H146.806L146.597 60.3362L146.352 60.2664L145.723 59.7774L145.549 59.6377L145.269 59.2885L145.165 58.4503L145.025 58.0661L144.78 57.7867L144.292 57.4375L144.117 57.2628L143.977 57.0533L143.872 56.8437L143.803 56.5294L143.838 56.1103V55.8659L143.593 54.1545L143.209 52.8274L142.929 52.1289L142.51 52.3734L142.091 52.6528L141.812 52.7226H141.602L141.393 52.6528L141.218 52.548L141.113 52.3384L141.009 52.059L140.904 51.8495L140.659 51.5701L140.45 51.4304L140.345 51.3606L140.101 51.3256L139.716 51.2907L139.227 50.9764L139.018 50.7668L138.808 50.5922L138.459 50.1382L138.319 49.8588L138.215 49.3Z" fill="#A0B6BA" stroke="white" stroke-width="0.174624" stroke-linecap="round" stroke-linejoin="round"/>
<path d="M36.4787 53.7706V53.4912L36.5136 53.107V53.0022L36.4787 52.8975L36.4437 52.7578L36.0945 51.5354L35.9548 51.1861L35.9199 51.1163L35.8151 50.9766L35.5008 50.6623L35.2912 50.2781L35.2214 50.1733L35.1515 50.1035L35.0118 50.0336L34.2784 49.7892L34.0339 49.6145L33.8942 49.4748L33.3005 48.1477L33.091 47.4841L33.056 47.4492L32.9513 47.3793L32.8814 47.2746L32.2528 46.2967L32.1829 46.1919L32.148 46.0522V45.9824V45.8776V45.8077L32.1829 45.6331V45.5633V45.4585L32.148 45.0394L32.1131 44.8648L32.0432 44.7949L31.9734 44.76L31.7289 44.7251L30.751 44.5854L30.1922 44.5504L29.9128 44.4107L29.8779 44.3758L29.8429 44.306L29.6683 43.9218L29.6334 43.7472L29.5985 43.7122V43.5725V43.5027L29.6334 43.3281L29.5636 43.0836L29.4588 42.8391L28.411 41.966L26.56 41.058L26.3155 40.7786L26.2108 40.6738L26.1409 40.6039L26.0711 40.4293L26.0361 40.2547L25.9663 40.115L25.8964 39.9404L25.8615 39.8705L25.6869 39.1371L25.5472 38.7878L24.8836 37.7401L24.8487 37.6004L24.8138 37.4258L24.7789 37.321V36.9368V36.867L24.6741 36.378L24.3947 35.4351L24.1502 34.7715L24.0804 34.6667L24.0105 34.5969L23.9057 34.4921L23.3819 34.1778L23.1374 34.0381L23.1723 33.7238L23.2422 33.3047L23.3819 33.0253L23.6962 32.8157L24.9884 32.5363L25.3726 32.3268L26.56 31.4187L26.7696 31.3489L27.1887 31.279L27.3633 31.2092L27.8522 30.7901L28.3063 30.7551L29.1445 30.9298H29.5636L29.7731 30.8599L29.9128 30.7901L30.0874 30.6504L30.2271 30.4408L30.2621 30.2313V29.7773L30.3668 29.6026L30.7161 29.3931L31.4844 29.1486L31.8337 28.8692L32.5322 27.9612L32.8116 27.7167L33.1608 27.5421H34.3133L34.6626 27.4373L35.6055 26.9134H35.9897L36.8279 27.088L37.1422 26.9833L37.3169 26.7388L37.3867 26.3895L37.4915 26.0752L37.736 25.8307L38.7488 25.4117L38.9932 25.1323L39.4822 24.1893L39.7616 23.9448L40.4601 23.5257L41.1935 23.2463L41.9269 23.1765L43.5335 23.4908L44.4764 23.4559L45.3146 22.9669L45.8385 21.8493V21.5699V21.2905L45.9084 21.0461L46.0481 20.8365L46.2227 20.7317L46.4672 20.627L46.7116 20.6968L46.8513 20.9064L47.0609 21.535L47.3053 21.9192L47.6197 22.1636L48.0038 22.3383L48.388 22.6177L48.9468 23.4559L49.331 23.6654H49.5405L49.785 23.5606L49.9946 23.386L50.1692 23.1765L50.274 22.932L50.3438 22.4081L50.4137 22.1636L50.7629 21.8842L51.3916 21.7795L52.0202 21.8144L52.4044 22.0589L52.5441 22.6177V23.3511L52.7187 23.9797L52.8235 24.2941L52.8933 24.4687L53.033 24.5735L53.2076 24.6782L53.8363 24.8529H54.1506L54.6396 24.8179L56.9446 24.6782L58.0971 25.0624L61.5547 25.2021L65.0122 25.3767L65.2218 25.4815L65.3615 25.691L65.3964 25.9355L65.4313 26.4943L65.8155 27.4722L65.8853 27.8564L65.9552 29.4629L66.06 30.2662L66.1647 30.6504L66.3044 30.9647L66.514 31.2441L67.3522 31.5933L67.5268 31.768L67.5967 31.9426L67.6316 32.1871L67.7014 32.3966L67.8062 32.6062L68.2253 33.0253L68.3301 33.1999L68.5047 33.6539L68.6095 33.7936L68.819 33.8635L69.0984 33.8285L70.0414 33.4793L71.7527 33.4094L72.067 33.4793L72.3464 33.7238L72.556 34.2127L72.7306 34.5619L72.8004 34.6667L73.2894 34.9461L76.0485 34.9112L76.4675 35.0509L76.9216 35.4001L77.0962 35.6097L77.2359 35.7145L77.0613 35.9939L77.0962 36.4828L77.2359 37.1464L77.3057 37.9846V38.1941L77.2708 38.264L77.2359 38.4037L77.0613 38.9275L76.9914 39.2768V39.661L77.0962 40.115L77.3407 40.7087L77.4454 41.023L77.5851 41.6168L77.655 41.8263L77.8296 42.0708L78.109 42.2803L78.7027 42.6296L78.9472 42.8391L79.1218 43.1185L79.2615 43.3979L79.3314 43.817L79.2965 44.6552L78.4583 46.3665L78.3535 46.8206V47.3095L78.4233 47.7286L78.4932 48.1128L78.4233 48.462L78.2836 48.8462L78.2138 49.1954L78.1789 49.5098V49.9987V50.1384L78.0392 50.7321L77.6899 51.4306L77.3756 51.5703L76.5723 51.6052L76.1183 51.6751L75.35 52.4085L74.6515 52.7927L73.464 53.4563L72.1718 53.8055L70.4954 53.9801L69.5874 53.8754L69.5175 53.8404L69.0635 53.561L68.7841 53.4563L67.5967 53.4912L67.1776 53.4213L64.3486 52.2688H63.9296L59.8433 54.4342L59.5989 54.7485L59.1449 55.5168L58.7956 55.8311L58.4114 56.1105L57.8876 56.7043L57.2938 58.3108L56.3858 57.8219L56.1762 57.6472L55.5476 56.9487L55.3031 56.7741L55.2682 56.7043L55.1984 56.5995L55.1634 56.5296L55.1285 56.355L55.0587 55.9708L54.9888 55.5867V55.5168L54.9539 55.412L54.919 55.3422L54.8491 55.2374L54.6745 55.0279L53.8712 54.6088L53.7315 54.504L53.6966 54.4691L53.6267 54.3992L53.522 54.3643L53.033 54.2595L52.7187 54.2945L52.3345 54.4342L51.8456 54.8183L51.4265 55.3073L50.9724 55.6914L50.4835 55.901L49.4008 55.6216L45.8036 54.7485L45.6639 54.8183L45.2099 55.1676L44.9654 55.2025L44.7908 55.0628L44.5812 54.6437L44.232 53.6309L44.0224 53.2118L43.743 52.8975L43.4985 52.8625L43.3239 52.8975L43.0794 53.0022H42.9048L42.6953 52.8625L42.0317 50.2781L41.9269 50.0336L41.7523 49.859L41.5078 49.6844L41.1586 49.6145L40.8093 49.6844L40.3553 49.859L39.3774 50.4527L39.0631 50.767L38.4345 51.8148L37.4915 53.107L36.9327 53.596L36.4787 53.7706Z" fill="#A0B6BA" stroke="white" stroke-width="0.174624" stroke-linecap="round" stroke-linejoin="round"/>
<path d="M166.504 47.6941L166.679 46.9607L166.819 45.8082L167.063 44.7954L167.238 43.8175L167.447 43.2238L167.692 42.7697L167.901 41.9315L167.971 41.6172L168.006 41.0933V39.5217L168.6 38.8931L168.355 38.4041L168.146 38.0549L167.028 36.8325L166.644 36.3087L166.539 36.0293L166.469 35.7149L166.434 35.1911L166.469 34.3878L166.923 34.3529L167.133 34.283L167.307 34.2132L167.377 34.0735L167.447 33.9687L166.853 33.34L166.819 32.8162L166.784 32.5368L166.644 32.0478L166.539 31.8034L165.771 30.7556L164.828 29.9174L165.072 29.638L165.387 29.4634L166.05 29.2888L167.063 29.3237L167.377 29.2538L167.622 29.1141L168.006 28.73L168.25 28.6601H169.158L169.438 28.5903L170.032 28.1712L170.276 28.1013L170.59 28.0315L171.743 28.1712H172.022L172.267 28.1013L172.546 27.9616L173.594 27.0187L173.978 26.8091L174.467 26.7393L177.54 27.5775L178.937 27.4727L179.182 27.5425L179.671 27.7521L180.16 27.8569L180.684 27.8918L180.963 27.9267L181.487 28.3807L181.522 28.4855V28.6252L181.557 28.7649L181.592 28.9046L181.662 28.9744L182.43 29.0443L182.709 29.184L183.093 29.4983L183.303 29.6031L183.513 29.638L185.433 29.0443L186.516 28.9395L187.599 29.0792L188.472 29.3586L188.891 29.6031L190.358 30.8953L190.707 31.0699L190.812 31.2096L190.952 31.8034L191.021 31.9431L191.231 32.1526L191.301 32.2574L191.371 32.432L191.44 32.8162L191.545 32.9559L191.685 33.0956L191.964 33.2353L192.104 33.34L192.593 33.7941L192.872 34.0036L193.187 34.1433L193.501 34.1084L193.746 33.9687L193.99 33.9338L194.584 34.4576L198.181 34.5275L198.321 34.5973L198.391 34.6323L198.74 34.9117L198.949 34.9466L199.264 34.9117H199.368L199.857 35.0863L200.311 35.1212L200.416 35.2609L200.381 35.68L200.311 35.9245L200.207 36.134L200.172 36.3785V36.6928L200.346 37.4262L200.416 37.985V38.1946L200.346 38.3692L200.137 38.9629V39.1376L200.242 39.2423L200.486 39.2773L200.87 39.2423L201.01 39.382L200.905 39.6964V39.9408L201.01 40.1853L201.185 40.3949L201.883 40.9187L202.093 41.0235L202.931 41.1283L203.175 41.2331L203.315 41.4077L203.42 41.5823L203.49 41.7918L203.594 42.0014L204.153 42.6999L205.515 43.9223L206.144 44.3414L206.458 44.3763L206.144 45.878L206.004 47.4497L205.62 47.4147H205.306L204.153 47.5894L203.804 47.6941L203.105 48.0085L202.477 48.3926L202.337 48.5673L202.093 48.8467L201.708 49.161L200.8 48.4974L200.556 48.3926L200.207 48.2529L199.927 48.1831L199.543 48.1482H198.81L198.53 48.1831L197.937 48.3577L197.622 48.4625L196.924 48.9864L196.225 49.6499L196.749 50.6278L196.889 50.8024L197.168 51.0469L197.797 51.3612L198.006 51.466L198.076 51.5708L198.181 51.7803L198.251 52.0248L198.216 52.3741L197.971 52.9678L197.797 53.5615L197.622 54.0504L197.448 54.5045L197.343 54.6791L197.273 54.7839L197.063 54.8886L196.854 54.9236L196.33 54.8537H196.155L195.981 54.9236L195.666 55.1331L195.247 55.3427L194.654 55.5522L193.466 55.9364L193.047 55.4125L192.907 55.2728L192.698 55.168L192.453 55.0633L192.104 55.0283L191.72 55.0633L190.952 55.2728H190.777L190.044 55.2379L189.729 55.3077L189.555 55.3776L189.275 55.6221L189.031 55.9015L188.612 56.2856L188.332 56.4253L187.983 56.5301H187.669L186.761 56.3206L186.376 56.1809L185.818 55.8665L185.713 55.6221L185.538 55.4474L184.002 54.714L182.814 53.9806L182.5 54.2251L182.255 54.3997L181.766 54.5743L181.277 54.26L181.103 54.0854L180.998 53.9806L181.208 53.4218L181.382 52.8281V52.4439L181.312 52.1994L181.242 52.0947L181.068 51.8851L180.754 51.6406L180.439 51.5359L179.461 51.3263L177.645 51.7803L177.017 51.9899L176.772 52.1296L176.283 52.4439L175.62 52.9678L175.759 53.352L175.934 54.1552L176.109 54.6442L175.445 54.9934L174.781 55.3077L174.223 55.6221L173.908 55.8316L173.699 55.9015L173.105 56.0062L172.895 56.0761L172.232 56.4253L172.022 56.6L171.813 56.6698L171.603 56.7047H171.359L170.835 56.565L170.206 56.2856L169.508 56.0761L169.019 55.9015L168.32 55.5871L166.574 54.9236L166.504 54.3298L166.399 53.2472L166.539 53.0027L166.469 52.8979L166.574 52.7582L166.679 52.5487L166.714 52.4439L166.33 52.0597L166.015 51.6406L165.561 51.2565L165.107 50.8024L166.015 50.2087L166.469 49.8245L166.784 49.5102L166.923 49.3356L166.993 49.1261V48.9165L166.888 48.672L166.609 48.1132L166.504 47.6941ZM184.7 41.3727L184.386 41.3029L183.897 41.1632L183.478 40.9537L183.059 40.6393L182.605 40.4298L182.29 40.2202L181.871 40.0456L181.487 39.9408L181.592 39.5916L181.766 39.1376L182.325 38.474L182.43 38.2994L182.465 38.2295L182.5 38.02V37.6707L182.43 36.7976L181.627 37.077L181.522 37.1468L181.487 37.1818L181.208 37.7755L180.998 38.0898L180.858 38.2295L180.719 38.2994L180.125 38.7185L180.055 38.8232L179.811 39.2773L179.706 39.4519L179.461 39.6614L179.531 40.1504L179.706 40.5695L179.741 40.8838L179.811 41.1632L179.985 41.4775L180.055 41.6521L180.09 41.8268V41.8617V42.2109L180.055 42.8745L179.985 43.1539L179.741 44.6557L179.601 45.8431L179.391 46.9258L179.217 47.31L179.811 47.5544L180.195 47.6941L181.277 47.8688H181.487L181.731 47.8338L181.976 47.764L182.081 47.7291L182.29 47.5544L182.639 47.1703L183.268 46.7861L183.862 46.5765L184.106 46.5416L184.63 46.5067L184.944 46.9607L185.433 47.31L185.748 47.4846L187.04 47.9735L188.158 47.6592L188.996 47.31L188.961 46.1574L188.821 45.3193L188.891 44.516L188.996 43.7127L189.031 42.7697L188.996 42.176L188.926 41.8966L188.786 41.6172L188.681 41.4426L188.402 41.1632L188.227 41.0584L187.878 40.8838L187.564 40.6743L187.25 40.5346L186.097 40.1155L185.748 40.7092L185.538 40.9537L185.154 41.268L184.944 41.3378L184.7 41.3727Z" fill="#416D74" stroke="white" stroke-width="0.174624" stroke-linecap="round" stroke-linejoin="round"/>
<path d="M57.6085 69.6268L56.7354 68.0552L55.548 66.4137L55.4432 66.1343V65.7501L55.4083 65.331L55.3035 64.8072L55.094 64.2484L54.6749 62.8863L55.3734 62.4323L55.8972 61.9783L57.0847 60.721L57.399 60.2669L57.5387 59.9526L57.5736 59.8478L57.6085 59.7081V59.4287V59.289V59.1843L57.6784 59.0446V58.9747L57.7133 58.9398L57.7482 58.9049V58.835V58.7302L57.7133 58.6604L57.6085 58.5556L57.2942 58.3112L57.8879 56.7046L58.4118 56.1109L58.796 55.8315L59.1452 55.5172L59.5993 54.7488L59.8437 54.4345L63.9299 52.2692H64.349L67.1779 53.4217L67.597 53.4915L68.7845 53.4566L69.0639 53.5614L69.5179 53.8408L69.5878 53.8757L70.4958 53.9805L72.1722 53.8059L73.4644 53.4566L74.6519 52.793L75.3504 52.4089L76.1187 51.6754L76.5727 51.6056L77.376 51.5707L77.6903 51.431L78.0396 50.7325L78.1793 50.1388V49.999V49.5101L78.2142 49.1958L78.284 48.8465L78.4237 48.4624L78.4936 48.1131L78.4237 47.7289L78.3539 47.3098V46.8209L78.4587 46.3669L79.2968 44.6556L79.3318 43.8174L79.2619 43.3983L79.1222 43.1189L78.9476 42.8395L78.7031 42.6299L78.1094 42.2807L77.83 42.0711L77.6554 41.8266L77.5855 41.6171L77.4458 41.0234L77.3411 40.7091L77.0966 40.1153L76.9918 39.6613V39.2771L77.0617 38.9279L77.2363 38.404L77.2712 38.2643L77.3061 38.1945V37.9849L77.2363 37.1467L77.0966 36.4832L77.0617 35.9942L77.2363 35.7148L77.2712 35.7497L77.4808 35.8545L77.6554 35.7847L77.83 35.61L78.0745 35.2259L78.284 35.0862L79.2619 34.9465L79.6461 34.7369L80.0303 34.213L80.3097 33.9336L80.6938 33.7939L81.078 33.8638L81.3225 34.213L81.4622 34.6321L81.6368 34.9465L81.8813 35.0512L82.1607 34.8417L82.2655 34.6321L82.3702 34.4575L82.5099 34.3178L82.6496 34.213L82.7893 34.1432L82.964 34.1083L83.1037 34.1432L83.2433 34.213L84.7102 34.8766L85.1642 35.2259L85.5833 35.6799L85.8278 35.8196L86.0723 35.8545L86.3517 35.7497L86.8406 35.4354L87.0851 35.2957H87.3645L87.574 35.4005L87.7137 35.61L87.8534 35.9593L87.9931 36.2038L88.1677 36.2736L88.3773 36.2038L88.5868 36.0291L89.1107 35.4703L89.3203 35.4354L91.9745 35.8545L92.3238 36.1688L92.673 36.7975L92.8477 36.9721L93.1271 37.0769V37.1467L93.162 37.2864L93.1969 37.461L93.2668 37.6007L93.3366 37.7754L93.6859 38.2992L93.7557 38.4739L93.6509 38.6485L93.4414 38.893L92.5683 39.4867L91.765 40.2201L91.311 40.8138L91.1713 41.0234L91.0316 41.3726L90.9617 41.6171L90.857 42.0711V42.4553V42.6998L91.0316 43.2586L91.2761 43.6078L93.3366 45.5636L93.8256 45.8779L94.6288 46.0875L96.5148 46.2272L97.5276 46.2621L98.0864 46.5066L101.09 48.7418L101.334 48.8465L101.788 48.8815L102.417 48.6719L102.731 48.5322L103.011 48.4624L103.989 48.3925L105.351 48.5671L106.049 48.8116L106.398 49.0212L106.853 49.3704L107.062 49.4752L107.272 49.545L107.656 49.5101L107.9 49.4403L108.459 49.0561L108.983 48.3227L109.472 47.2749L112.545 46.9606L112.72 47.1352L112.79 47.3448L112.86 47.694L113.069 49.5101L113.209 50.4181L113.453 51.1865L113.523 51.4659V51.6754L113.349 52.339L113.174 52.793L112.999 53.1772L112.301 54.3297L112.231 54.5393L112.196 54.7837L112.161 55.0981L112.196 55.5521L112.301 56.076L112.895 58.2064L112.964 59.1843L109.891 60.6162L109.332 60.686L109.018 60.8257L108.738 61.1401L108.389 61.8386L108.11 62.1878L107.691 62.4672L106.922 62.7117L104.827 62.7466L104.547 62.8514L104.303 62.9911L104.128 63.2006L103.989 63.3752L103.744 64.1436L103.814 64.5278L104.163 65.4009L104.303 65.9248L104.338 66.3089L104.268 66.6233L103.849 68.0202L103.814 68.3695L103.849 68.6489L103.954 68.8934L104.268 69.068L104.547 69.1728L106.014 69.3474L106.049 69.4522V69.5569V69.7316L105.979 70.1157L105.91 70.3951L105.805 70.6745L105.63 71.0238L105.351 71.5127L104.897 72.0017L104.757 72.2112V72.5605L104.827 72.8399L104.897 73.1193L104.757 73.5384L104.478 74.1321L103.674 75.3545L103.081 75.5989L102.487 75.7386L101.544 75.7735L101.195 75.8085L100.915 75.9831L100.741 76.2625L100.671 76.6816L100.636 77.1356L100.566 77.5547L99.0294 82.3394L98.6103 83.3871L98.5404 83.7015L98.5753 84.5047L97.7721 84.2952L97.0736 83.8412L96.5846 83.5269H96.1655L95.9909 83.5618L95.9211 83.5967L95.8861 83.6666L95.7464 83.911L95.6417 84.0158L95.1178 84.5047L94.8035 84.7143L94.6288 84.7492L94.3844 84.7841H94.2447L94.1399 84.7492L93.9303 84.6095L93.7557 84.5397H93.6859L92.6381 84.5047L92.1492 84.4349L92.0793 84.2952L92.0444 84.0856L92.0793 83.5967L91.9745 83.3522L91.2761 82.5839L90.9967 82.0949L90.822 81.6409L90.7522 81.2567L90.6474 80.3487L89.8092 79.9296L89.46 79.7201L89.1107 79.6502L86.5612 80.4535H86.212L86.1072 79.5803L85.9675 79.266L85.7579 78.6723L85.5484 77.6595L85.3388 77.2753L84.78 76.5419L84.5356 76.018L84.326 75.2846L84.1863 75.0751L83.9768 74.8306L83.6275 74.656L83.4878 74.621L83.2084 74.4813L79.6112 72.1763L78.9476 71.6873L78.3539 71.0936L78.2491 71.0587L77.9348 70.9539L77.5855 70.7793L77.1664 70.465L74.6519 70.3253L74.3724 70.4301L73.9534 70.6745L73.6041 70.6396L73.4295 70.465L73.3247 70.3602L73.2199 70.1856L73.0802 69.9062L72.9056 69.6268L72.6961 69.3125L72.5214 69.1029L72.2071 68.9632L71.3689 68.6838L71.0895 68.7187L70.7752 68.6838L70.6704 68.7187L70.3212 68.8584L70.1466 68.8934L68.994 68.9283L67.7018 68.7886L66.5493 68.4044L65.8508 68.2996L65.746 68.2647L65.6063 68.1949L65.292 67.9155L65.0475 67.7408L64.6284 67.5662L64.1046 67.4614H63.7553L63.4759 67.5313L62.5329 68.1599L61.2407 68.8584L60.0184 69.3474L57.6085 69.6268Z" fill="#A0B6BA" stroke="white" stroke-width="0.174624" stroke-linecap="round" stroke-linejoin="round"/>
<path d="M241.592 42.665V42.7L242.325 43.7477L242.36 43.8525V43.9223L242.325 44.0271L242.255 44.1668L242.081 44.3065L242.046 44.3764L242.011 44.4462L242.046 45.1447L242.36 47.1703L242.744 48.2879L242.779 48.707V48.9864L242.535 49.7198L242.43 50.0691L242.605 50.593L242.989 51.501L244.91 55.0983L245.504 56.6L245.678 57.1938L245.783 58.032V58.9051L245.538 59.5337L245.399 60.5465L245.643 63.0611L246.167 64.0739L246.272 64.2835L246.691 65.1566L247.11 67.0076L246.412 67.1124L246.342 67.1473L246.097 67.3219L245.958 67.3569L245.434 67.4267L242.395 68.5792L241.836 68.9634L241.627 69.173L241.452 69.3825L241.313 69.5921L241.208 69.8016L241.138 70.0112L241.068 70.2556L241.033 70.535L240.963 71.2685V71.7225L241.033 72.386L241.208 73.2592L240.055 73.1893L238.798 72.9448H238.588L238.449 72.9798L238.03 73.1544L237.576 73.4338L237.296 73.7132L236.283 74.8657L235.934 75.4594L235.794 75.8436L235.69 76.2627L235.34 78.9519L235.096 79.9647L234.397 81.3268L233.489 82.9333L233.245 83.4572L233.105 84.016L233.07 85.1336V85.4479L233.175 85.9019L233.489 86.9846L233.559 87.2989L233.594 87.5783L233.524 87.8577L233.454 88.1022L232.826 89.0102L232.721 89.2547L232.686 89.4293L232.721 89.8834L230.835 91.6296L230.172 92.0836H229.613L228.949 91.8392L226.889 90.5469L226.05 89.7087L225.736 89.1849L225.457 88.3118L225.282 87.8927L225.073 87.6133L223.466 85.9369L222.907 85.0637L222.628 84.505L222.348 84.2256L222.104 84.0858L221.545 84.0509L221.126 84.1208L221.021 84.2954V84.7145L221.266 86.0416L221.301 86.321L221.266 86.5655L220.882 87.8927L220.567 88.5912L220.497 88.7309L218.926 90.0231L218.472 90.3025L218.018 90.4771L215.573 90.7216L214.595 90.6168L213.128 89.569L212.849 89.3246L212.639 89.0102L212.325 88.1721L212.08 87.718L211.172 86.81L210.858 86.1464L210.788 86.0416L210.718 85.7972V85.6575V85.3781V85.2034L210.788 84.8891L210.893 84.6097L211.626 83.2127L211.801 82.7587L211.871 82.3745L211.906 82.0951L211.871 81.711L211.836 81.2919L211.731 80.9077L211.592 80.6981L211.417 80.6283L211.242 80.7331L211.068 80.9077L210.718 81.4316L210.649 81.4665L210.544 81.5014L210.439 81.3966V81.2919L210.474 80.279L210.439 79.9647L210.404 79.7552L210.229 79.1964L209.007 78.6376L208.344 78.1137L208.029 77.7994L207.68 77.3803L207.575 77.1009L207.401 76.5421L207.016 75.3896L206.877 75.215L206.562 74.8657L206.458 74.6911L206.248 73.8529V73.7132L206.178 73.6084L205.584 72.9448L205.48 72.8401L205.375 72.5607L205.2 71.8971L205.13 71.7923L205.026 71.7225L204.921 71.6526L204.816 71.5828L204.746 71.4081L204.816 71.1637L204.956 70.9541L205.061 70.7097L205.096 70.3604L205.026 70.1858L204.921 69.9762L204.886 69.8016L204.921 69.6619L205.026 69.5571L205.096 69.4873L205.2 69.3825L205.55 68.684L205.619 68.4395L205.654 68.2998V67.9506V67.8807L205.724 67.741L205.654 67.6363L205.55 67.5315L205.48 67.3918L205.515 66.9029L205.48 66.7282L205.375 66.1345L205.41 65.9599L205.584 65.6805L205.619 65.4709L206.283 65.3312L206.772 65.1915L207.016 65.0868L207.435 64.8423L207.61 64.7026L208.029 64.3184L208.623 63.7247L208.972 63.4104L209.112 63.3056L209.461 63.131L209.566 63.0611L209.706 62.9214L209.845 62.5722L209.985 61.8737L210.195 61.28L210.404 60.9307L210.579 60.7561L210.718 60.6513L210.893 60.3021L211.068 59.8131L211.103 59.4289L211.068 59.0797L210.893 58.2066L210.614 57.4732L210.474 56.8794L210.229 56.0063L209.915 54.2601L209.741 53.7711L209.531 53.2822L209.461 53.0377L209.356 52.3043L209.287 52.0598L208.902 51.3613L208.483 50.3136L208.134 49.6849L207.75 49.2658L207.156 48.6721L206.947 48.4626L206.737 48.2879L206.562 48.0435L206.283 47.8339L206.004 47.4497L206.143 45.8781L206.458 44.3764L206.842 44.4113L208.274 44.1319L209.321 44.1668L210.02 44.0271L211.033 44.3414H211.277L212.29 44.062L213.547 44.2017L213.792 44.2716L214.036 44.4113L214.56 44.6208L214.77 44.7256L215.154 44.6907L215.294 44.7605L215.328 44.8653L215.363 45.1098L215.398 45.2495L215.573 45.3193L215.817 45.4241L217.913 45.2844L218.472 45.4939L218.786 45.8781H218.926L219.729 46.0877L222.383 46.856L222.802 46.8211L223.221 46.6465L223.641 46.3321L223.99 45.9829L224.164 45.7733L224.234 45.6686H224.374L224.863 46.2274L225.038 46.3671L225.596 46.5068L226.539 47.1005L226.958 47.2402L227.378 47.2751L227.797 47.2402L228.879 46.856L230.102 46.1575L231.813 44.9002L233.14 44.4113L233.35 44.3065L233.629 43.9223L233.804 43.7826L234.048 43.7477L234.258 43.8176L234.712 44.062L234.956 44.1319H235.201L235.41 44.062L236.528 43.4683L236.982 43.3286L240.614 43.0841L241.592 42.665Z" fill="#A0B6BA" stroke="white" stroke-width="0.174624" stroke-linecap="round" stroke-linejoin="round"/>
<path d="M184.7 41.373L184.944 41.3381L185.154 41.2682L185.538 40.9539L185.747 40.7094L186.097 40.1157L187.249 40.5348L187.564 40.6745L187.878 40.8841L188.227 41.0587L188.402 41.1634L188.681 41.4428L188.786 41.6175L188.926 41.8969L188.995 42.1763L189.03 42.77L188.995 43.713L188.891 44.5162L188.821 45.3195L188.961 46.1577L188.995 47.3102L188.157 47.6595L187.04 47.9738L185.747 47.4848L185.433 47.3102L184.944 46.961L184.63 46.5069L184.106 46.5419L183.862 46.5768L183.268 46.7863L182.639 47.1705L182.29 47.5547L182.08 47.7293L181.976 47.7642L181.731 47.8341L181.487 47.869H181.277L180.194 47.6944L179.81 47.5547L179.217 47.3102L179.391 46.926L179.601 45.8434L179.74 44.6559L179.985 43.1542L180.055 42.8748L180.09 42.2112V41.8619V41.827L180.055 41.6524L179.985 41.4778L179.81 41.1634L179.74 40.8841L179.705 40.5697L179.531 40.1506L179.461 39.6617L179.705 39.4521L179.81 39.2775L180.055 38.8235L180.125 38.7187L180.718 38.2996L180.858 38.2298L180.998 38.0901L181.207 37.7757L181.487 37.182L181.522 37.1471L181.626 37.0772L182.43 36.7979L182.499 37.671V38.0202L182.465 38.2298L182.43 38.2996L182.325 38.4742L181.766 39.1378L181.591 39.5918L181.487 39.9411L181.871 40.0459L182.29 40.2205L182.604 40.43L183.058 40.6396L183.477 40.9539L183.896 41.1634L184.385 41.3032L184.7 41.373Z" fill="#144E5A" stroke="white" stroke-width="0.174624" stroke-linecap="round" stroke-linejoin="round"/>
<path d="M209.008 78.6368L208.344 80.3132L208.204 80.4878L207.855 80.8371L207.157 81.2213L205.585 81.9896L204.363 81.815L202.861 81.5356H201.988L201.359 81.6753L200.87 81.815L200.416 82.0595L199.438 82.269L199.368 82.8278L199.299 83.3866L199.229 84.2597L199.194 84.4693L199.089 84.7137L199.019 84.8185L198.845 84.9931L198.74 85.063L198.495 85.1328L197.657 85.2376L197.203 85.4122L196.994 85.5519L196.924 85.6218L196.4 86.3901L196.26 86.5298L196.085 86.6695L195.073 87.0537L194.584 87.1934L194.339 87.2283L192.768 87.2982L191.964 87.403L191.371 86.9839L190.952 86.5997L190.358 86.006L189.974 85.6218L189.345 85.2725L188.996 85.1678L188.018 84.9582H187.354H186.481H184.595L182.709 84.9233L182.604 84.6439L182.535 84.5391L182.36 84.3645L182.15 84.2248L181.103 83.9105L180.753 83.7708L180.299 83.4565L179.671 82.8627L179.496 82.723L179.391 82.6881L179.147 82.6532L178.798 82.6881L178.134 82.8278L177.75 83.0024L176.877 84.2248L176.667 84.4693L175.934 85.4472L175.166 86.8791L174.677 86.46L174.292 86.1806L174.048 85.971L173.454 85.6218L172.791 85.3773L171.813 85.063L170.905 84.7137L170.032 85.8313L169.682 86.1806L169.124 86.5648L167.796 87.7173L167.587 87.5077L167.342 87.1585L166.888 86.7394L165.631 85.8663L165.456 85.7266L165.387 85.5869L165.282 85.3773L165.247 85.1328V83.7708L165.212 83.5263L165.142 83.2469L165.037 82.9675L164.758 82.5833L164.548 82.1293L164.374 81.8848L164.059 81.4308L163.675 80.9419L164.094 80.4878L164.339 80.2783L164.513 80.2084L164.793 80.1735L164.863 79.5449L164.898 79.1607L164.863 78.8464L164.793 78.6019L164.723 78.3924L164.618 78.2177L164.234 77.7986L163.605 77.2398L163.256 76.8207L163.151 76.6461L162.977 76.1921L162.837 75.3539L162.802 74.9697L162.837 74.4808L163.082 74.0268V73.8172L163.047 73.6077L162.977 73.468L162.662 73.1187L162.453 72.9092L162.313 72.7345L162.208 72.5599L162.034 72.0011L162.488 71.582L162.907 71.1629L164.164 70.3247L164.618 70.1501L164.863 70.1152L165.387 70.0803H166.155L166.434 69.6262L166.574 69.277H167.866L168.879 69.1722L168.67 68.5086L168.25 66.9021L168.215 66.4481L168.181 65.7496L168.39 65.54L168.355 65.1559L168.32 65.0162L168.25 64.9463L168.181 64.9114L168.041 64.8765L167.936 64.9463L167.831 64.9812L166.818 64.9463L166.26 64.8415L165.666 64.632L165.247 64.3526L165.177 63.5842L165.107 63.2699L164.618 62.5365L164.199 62.0825L164.618 61.384L164.723 61.1046L164.967 60.4061L165.317 59.7774L165.736 59.3583L166.26 58.9742L166.364 58.8694L166.469 58.6598L166.644 57.9963L166.679 57.3676V56.2151L166.574 54.9229L168.32 55.5865L169.019 55.9008L169.508 56.0754L170.206 56.285L170.835 56.5644L171.359 56.7041H171.603L171.813 56.6691L172.022 56.5993L172.232 56.4247L172.895 56.0754L173.105 56.0056L173.699 55.9008L173.908 55.8309L174.223 55.6214L174.781 55.3071L175.445 54.9927L176.108 54.6435L175.934 54.1545L175.759 53.3513L175.62 52.9671L176.283 52.4432L176.772 52.1289L177.017 51.9892L177.645 51.7797L179.461 51.3256L180.439 51.5352L180.753 51.64L181.068 51.8844L181.242 52.094L181.312 52.1988L181.382 52.4432V52.8274L181.207 53.4211L180.998 53.9799L181.103 54.0847L181.277 54.2593L181.766 54.5736L182.255 54.399L182.5 54.2244L182.814 53.9799L184.001 54.7133L185.538 55.4468L185.713 55.6214L185.818 55.8659L186.376 56.1802L186.761 56.3199L187.669 56.5294H187.983L188.332 56.4247L188.612 56.285L189.031 55.9008L189.275 55.6214L189.555 55.3769L189.729 55.3071L190.043 55.2372L190.777 55.2721H190.952L191.72 55.0626L192.104 55.0277L192.453 55.0626L192.698 55.1674L192.907 55.2721L193.047 55.4118L193.466 55.9357L194.654 55.5515L195.247 55.342L195.666 55.1324L195.981 54.9229L196.155 54.853H196.33L196.854 54.9229L197.063 54.888L197.273 54.7832L197.343 54.6784L197.448 54.5038L197.622 54.0498L197.797 53.5608L197.971 52.9671L198.216 52.3734L198.251 52.0241L198.181 51.7797L198.076 51.5701L198.006 51.4653L197.797 51.3606L197.168 51.0462L196.889 50.8018L196.749 50.6271L196.225 49.6492L196.924 48.9857L197.622 48.4618L197.936 48.357L198.53 48.1824L198.81 48.1475H199.543L199.927 48.1824L200.207 48.2523L200.556 48.392L200.8 48.4967L201.708 49.1603L202.093 48.846L202.337 48.5666L202.477 48.392L203.105 48.0078L203.804 47.6935L204.153 47.5887L205.306 47.4141H205.62L206.004 47.449L206.283 47.8332L206.563 48.0427L206.738 48.2872L206.947 48.4618L207.157 48.6714L207.75 49.2651L208.135 49.6842L208.484 50.3128L208.903 51.3606L209.287 52.0591L209.357 52.3035L209.462 53.037L209.532 53.2814L209.741 53.7704L209.916 54.2593L210.23 56.0056L210.474 56.8787L210.614 57.4724L210.894 58.2058L211.068 59.0789L211.103 59.4282L211.068 59.8124L210.894 60.3013L210.719 60.6506L210.579 60.7553L210.405 60.93L210.195 61.2792L209.986 61.8729L209.846 62.5714L209.706 62.9207L209.566 63.0604L209.462 63.1302L209.112 63.3048L208.973 63.4096L208.623 63.7239L208.03 64.3177L207.611 64.7018L207.436 64.8415L207.017 65.086L206.772 65.1908L206.283 65.3305L205.62 65.4702L204.328 65.4003L203.629 66.0988L203.315 66.483L203.175 66.7624L202.966 67.391L202.826 67.88L202.791 68.2642L202.826 68.5436L203.001 69.1722L203.105 69.731L203.42 70.22L203.629 70.3946L203.839 70.4993L205.061 70.7089L204.956 70.9534L204.817 71.1629L204.747 71.4074L204.817 71.582L204.921 71.6519L205.026 71.7217L205.131 71.7916L205.201 71.8963L205.375 72.5599L205.48 72.8393L205.585 72.9441L206.179 73.6077L206.249 73.7124V73.8521L206.458 74.6903L206.563 74.8649L206.877 75.2142L207.017 75.3888L207.401 76.5413L207.576 77.1001L207.68 77.3795L208.03 77.7986L208.344 78.113L209.008 78.6368ZM189.799 61.6634L189.589 61.5935L188.996 61.3491L188.751 61.2792L187.913 61.1046L186.9 60.8601H186.935L184.63 60.4061L184.805 61.0697L184.979 61.7682L185.259 62.746L185.364 64.6669L185.608 65.0162L185.748 65.2257L185.887 65.6797L186.027 66.1687V67.3212L186.097 67.6006L186.167 67.8451L186.272 67.9498L186.481 68.0895L187.319 68.2991L187.669 68.4388L189.135 68.2991L190.288 68.0895H190.532L191.301 68.1245L191.685 68.1943L192.069 68.334L192.418 68.6134L193.187 69.277L193.431 69.4167L193.711 69.4865L194.304 69.5564L195.038 69.5215L195.492 69.4516L196.016 69.3119L196.051 68.9627L196.33 67.6006L196.435 66.9021L196.679 65.9242V65.6797L196.609 65.4702L196.47 65.2606L196.19 65.086L195.562 64.8765L194.933 64.7368L194.688 64.6669L194.444 64.5272L194.269 64.3526L194.095 64.178L193.815 63.7938L193.536 63.4795L192.942 62.5016L192.418 61.8729L192.209 61.4888L191.964 60.9649L190.986 61.384L190.183 61.6285L189.799 61.6634Z" fill="#A0B6BA" stroke="white" stroke-width="0.174624" stroke-linecap="round" stroke-linejoin="round"/>
<path d="M134.338 81.4303L133.745 80.8017L133.5 80.6969L132.278 80.9763L131.824 81.0112L130.741 80.8366H130.392L129.658 81.0811L128.925 81.116L128.715 80.9763L128.576 80.7668L128.436 80.4524L128.226 79.7889L128.052 79.5095L127.737 79.2301L127.423 79.1253L126.899 78.9856L126.794 78.9158L126.725 78.7761L126.585 78.2522L126.445 77.9029L126.201 77.5188L126.061 77.1695L125.956 76.2615L125.852 76.1218L125.642 76.0868L125.328 76.1567L121.87 77.2044L120.997 77.414H120.787L120.613 77.2743L120.508 77.0298L120.438 76.6806V76.4012L120.473 76.1218L120.438 75.9122L120.403 75.7027L120.298 75.4233L120.194 75.1788L120.159 74.7597V74.4105L120.229 73.677L120.264 73.2929L120.229 72.9436L120.089 72.5594L119.844 72.2102L119.111 71.6165L118.832 71.3371L118.657 71.0926L118.517 70.7434L118.447 70.2893V69.1368L118.203 69.1717L117.504 69.5908L117.26 69.8353L117.085 70.0798L116.911 70.2195L116.701 70.3592L116.073 70.464L115.828 70.5338L115.619 70.6735L115.13 71.3371L114.92 71.4768L114.745 71.5815L114.466 71.6863L113.628 71.826L112.44 71.8609H112.126L111.882 71.7562L110.135 70.6037L109.961 70.3941L109.821 70.1147V69.1717L109.577 68.5431L109.437 68.4034L109.332 68.2637L109.157 68.1938L108.983 68.124L108.808 68.0891L108.005 68.1938L107.027 68.5082L106.643 68.7526L106.014 69.3464L104.547 69.1717L104.268 69.067L103.954 68.8923L103.849 68.6479L103.814 68.3685L103.849 68.0192L104.268 66.6222L104.338 66.3079L104.303 65.9237L104.163 65.3999L103.814 64.5267L103.744 64.1426L103.989 63.3742L104.128 63.1996L104.303 62.99L104.547 62.8504L104.827 62.7456L106.922 62.7107L107.691 62.4662L108.11 62.1868L108.389 61.8375L108.738 61.139L109.018 60.8247L109.332 60.685L109.891 60.6152L112.964 59.1832L113.802 60.1262L114.117 60.3008L114.361 60.3358L114.641 60.2659L114.92 60.0564L115.095 59.8119L115.234 59.6023L115.374 59.4626L115.479 59.4277L115.688 59.4976L115.898 59.6373L116.107 59.7071L116.352 59.777L118.552 59.5674L118.727 59.5325L118.867 59.3579L119.006 59.0436L119.111 57.8212L119.216 57.5069L119.321 57.2973L119.53 57.1227L119.74 57.0528L120.683 57.0878L121.032 57.2624L122.534 58.1355L122.778 58.2403L123.092 58.3101L123.442 58.2403L123.756 58.1006L123.861 57.7513V57.4719L123.791 57.1576L123.896 56.8782L124.175 56.7036L125.083 56.529L125.956 56.2496L126.375 55.9003L126.166 55.586L126.061 55.4812L126.026 55.4463L125.956 55.4114L125.747 55.3764L125.642 55.3415L125.572 55.3066L125.537 55.2367L125.467 55.132L125.363 54.9224L125.293 54.7827L125.258 54.5732V54.3986L125.153 54.1541V54.0493V53.8747L125.223 53.7001L125.293 53.4207L125.397 53.281V53.1413L125.363 53.0714L125.328 53.0016L125.363 52.9317L125.397 52.8619L125.572 52.6872L125.642 52.6174L125.607 52.5475L125.572 52.5126L125.432 52.4428L125.397 52.3729L125.467 52.2332L125.607 51.9887L125.817 51.8141L125.921 51.6395L125.991 51.5696V51.4649L125.956 51.395V51.3252V51.2553L126.166 51.1505L126.306 51.0807L126.725 50.8013L126.829 50.7314L126.969 50.6965H127.004L127.074 50.6616L127.144 50.6267L127.388 50.452L127.423 50.3473L127.528 50.2076V50.1377V50.0679L127.318 49.7885L126.131 49.1249L126.026 49.0551L125.956 48.9503L125.921 48.7757L125.956 48.7058L125.991 48.4963L126.026 48.3216L126.166 48.1819L126.34 48.3915H126.55L127.703 48.1121L127.772 48.0073V47.8676V47.7628L127.947 47.5882L128.331 47.3088L128.471 47.0993L128.611 46.8897L128.645 46.7849L128.68 46.4706V46.4008L128.715 46.3309L128.75 46.2611L128.82 46.1912L128.925 46.0515L129.169 46.0166L129.449 46.1563L132.487 47.7978L134.792 49.4742L135.107 49.6488L136.189 49.7186L138.215 49.2995L138.32 49.8583L138.459 50.1377L138.809 50.5917L139.018 50.7664L139.228 50.9759L139.717 51.2902L140.101 51.3252L140.345 51.3601L140.45 51.4299L140.66 51.5696L140.904 51.849L141.009 52.0586L141.114 52.338L141.218 52.5475L141.393 52.6523L141.603 52.7222H141.812L142.092 52.6523L142.511 52.3729L142.93 52.1284L143.209 52.8269L143.593 54.1541L143.838 55.8654V56.1099L143.803 56.529L143.873 56.8433L143.977 57.0528L144.117 57.2624L144.292 57.437L144.781 57.7863L145.025 58.0657L145.165 58.4498L145.27 59.288L145.549 59.6373L145.724 59.777L146.352 60.2659L146.597 60.3358L146.806 60.4056H147.295L147.854 60.4755L148.343 60.9644L148.832 61.6629L149.042 62.1169L149.321 62.536L149.6 63.025L149.705 63.4091L149.845 64.1426L149.95 65.2252L149.985 65.5046L150.054 65.6094L150.229 65.784L150.404 65.9237L151.067 66.2381L151.626 66.5175L151.766 66.9366L151.836 67.1461L152.15 67.8446L152.394 68.2637L152.848 68.2986L153.093 68.3335L153.302 68.4383L153.547 68.6129L154.036 69.2765L154.35 69.8004L154.56 70.3243L154.874 70.8481L155.118 71.1625L155.433 71.6165L155.852 72.0006L156.306 72.315L156.935 72.9087L157.354 73.223L158.017 73.8866L158.122 74.5851L158.192 75.1788L157.144 75.8424L156.69 75.9471L155.153 76.017L153.407 75.8075L153.023 75.6677L152.813 75.4931L152.29 74.3406L152.08 73.9914L151.801 73.712L150.089 73.0833L149.845 73.0484H149.286L148.483 72.5944L148.378 72.5594L148.099 72.5245L147.959 72.6642L147.854 72.8738L147.889 73.1881L147.994 73.4675L148.134 73.677L148.308 73.8866L148.483 73.9914L148.727 74.0961L148.867 74.2009L148.832 74.6549L148.238 75.9821L147.854 76.6456L147.086 77.1695L146.981 77.3791L146.876 77.6585L146.841 78.3919L146.667 79.1952L146.143 79.4047L145.898 79.3349L145.654 79.1602L145.444 78.9507L145.06 78.322L144.816 78.0776L144.571 78.0077H144.292L143.139 78.4967L141.079 79.0904L140.38 79.6143L140.101 79.9286L139.647 80.2429L134.338 81.4303Z" fill="#A0B6BA" stroke="white" stroke-width="0.174624" stroke-linecap="round" stroke-linejoin="round"/>
<path d="M165.107 50.802L164.653 50.5925L164.339 50.383L163.745 50.1036L163.186 50.0337L161.37 49.5098V48.6716L161.964 47.8684L162.383 47.4842L162.767 47.6239L164.164 48.0779L164.758 47.4842L164.863 47.4143L165.107 47.3445L165.351 47.3096L165.736 47.3794L166.015 47.4493L166.504 47.6937L166.609 48.1128L166.888 48.6716L166.993 48.9161V49.1257L166.923 49.3352L166.783 49.5098L166.469 49.8242L166.015 50.2083L165.107 50.802Z" fill="#A0B6BA" stroke="white" stroke-width="0.174624" stroke-linecap="round" stroke-linejoin="round"/>
<path d="M200.416 82.0605L200.556 82.6892L200.765 82.9686L201.045 83.248L201.359 83.3528L201.778 83.4575H202.442L202.931 83.5274L202.826 83.6671L201.883 84.4704L201.673 84.7498L201.568 84.9593L201.603 85.1689L201.778 85.4133L203.35 87.0897L203.699 87.6834L203.943 88.3819L204.048 88.801L204.083 89.1154L204.048 90.0583L203.769 92.1887L203.734 92.6078L203.839 93.0968L203.943 93.3063L204.083 93.481L204.432 94.1445L204.712 94.4239L204.991 94.5636L206.318 94.0747L206.702 94.1096L206.144 95.786L205.899 97.2179L205.864 98.3006L206.039 101.164L206.772 105.705L206.982 106.473V106.752L206.912 106.927L206.702 106.997L206.318 106.962L206.144 106.997L205.969 107.067L205.62 107.346L205.305 107.835L204.851 108.708L203.874 109.302L200.381 109.756L199.648 109.826L199.403 109.931L199.194 110.175L199.054 110.734L198.775 112.969L198.635 113.388L198.495 113.633L197.971 114.017L196.365 114.541L195.387 114.68L195.177 114.645L194.479 114.296L194.025 114.226H193.745L188.088 116.182L187.389 116.566L186.516 117.265L185.783 117.579L185.328 117.719L184.455 117.858L181.382 118.347L181.068 118.278L180.299 117.963L179.566 117.509L178.763 116.846L178.588 116.566L178.448 116.217V115.938V115.658L178.309 115.309L178.029 114.75L177.401 113.842L176.143 111.537L175.934 111.397L175.34 111.258L172.546 110.978L168.495 110.524L164.094 109.826L163.361 109.581L163.116 109.372L162.872 109.092L162.488 108.254L162.453 108.114L162.488 108.01L162.523 107.835L162.558 107.521V107.346V107.241L162.523 107.137L162.488 106.962V106.892V106.787V106.717V106.613L162.592 106.438L162.627 106.333V106.263V106.194L162.592 105.635V105.46L162.627 105.181V105.111V105.041L162.558 104.936L162.348 104.657L159.1 104.587V103.679L159.17 103.365L159.275 103.085L159.519 102.561L159.379 102.177L158.332 101.164L157.913 100.606L157.738 100.256L157.598 99.977L157.563 99.6277L157.493 99.2785V98.9991L157.563 98.7546L157.668 98.5101L158.052 97.9513L158.611 97.4275L158.821 97.2528L159.065 97.1481L159.729 97.0433L161.964 96.7639L162.418 95.9606L162.488 94.9827L162.907 92.8872L162.942 92.7126L163.012 91.6998L163.046 91.5601L163.151 91.3855L163.326 91.3156L163.605 91.2108L164.863 91.1061L165.491 90.8616L165.701 90.6171L165.84 90.3377L165.98 90.0234L166.574 89.29L166.644 88.9407L166.679 88.2772L166.748 87.9279L166.818 87.7184L167.342 87.1596L167.587 87.5088L167.796 87.7184L169.123 86.5658L169.682 86.1817L170.031 85.8324L170.905 84.7148L171.813 85.0641L172.79 85.3784L173.454 85.6229L174.048 85.9721L174.292 86.1817L174.676 86.4611L175.165 86.8802L175.934 85.4483L176.667 84.4704L176.877 84.2259L177.75 83.0035L178.134 82.8289L178.798 82.6892L179.147 82.6543L179.391 82.6892L179.496 82.7241L179.671 82.8638L180.299 83.4575L180.753 83.7719L181.103 83.9116L182.15 84.2259L182.36 84.3656L182.534 84.5402L182.604 84.645L182.709 84.9244L184.595 84.9593H186.481H187.354H188.018L188.996 85.1689L189.345 85.2736L189.973 85.6229L190.358 86.007L190.951 86.6008L191.37 86.9849L191.964 87.404L192.767 87.2993L194.339 87.2294L194.584 87.1945L195.072 87.0548L196.085 86.6706L196.26 86.5309L196.4 86.3912L196.924 85.6229L196.993 85.553L197.203 85.4133L197.657 85.2387L198.495 85.1339L198.74 85.0641L198.844 84.9942L199.019 84.8196L199.089 84.7148L199.194 84.4704L199.229 84.2608L199.298 83.3877L199.368 82.8289L199.438 82.2701L200.416 82.0605Z" fill="#A0B6BA" stroke="white" stroke-width="0.174624" stroke-linecap="round" stroke-linejoin="round"/>
<path d="M139.193 120.303L137.586 113.807L137.307 113.003L136.853 111.99L136.713 111.641L136.678 111.397V111.187L136.713 111.047L137.097 110.07L137.377 109.301L137.167 108.917L136.259 108.358L135.875 108.009L135.246 107.625L134.024 107.241L133.78 107.066L133.57 106.856L133.465 106.577L133.361 106.263L133.221 105.634L133.151 105.11L133.046 103.608L132.976 103.399L132.941 103.189L132.976 102.77V102.456L132.837 101.723V101.443L132.907 101.234L133.011 101.059L133.57 100.5L134.024 99.8715L134.373 98.9635L134.408 98.6142L134.373 97.8808L134.792 96.379L134.827 95.8202L134.792 95.3313L134.653 94.5979L134.618 93.3755L134.688 93.0262L134.827 92.7119L134.967 92.3976L135.142 92.1531L135.351 91.9785L135.875 91.769L136.189 91.6293L136.434 91.4197L136.609 91.1752L136.678 91.0006L136.748 90.7212V90.1624L136.678 89.429L136.574 89.0797L136.434 88.8353L136.294 88.6956L136.189 88.4511L136.364 88.0669L137.237 86.9493L137.272 86.6699L137.237 86.4604L137.097 86.2858L137.028 86.0413L136.958 85.7968L136.888 84.6443L135.945 83.4569L134.827 82.3393L134.723 82.1646L134.338 81.4312L139.647 80.2438L140.101 79.9294L140.38 79.6151L141.079 79.0913L143.139 78.4975L144.292 78.0086H144.571L144.816 78.0784L145.06 78.3229L145.445 78.9516L145.654 79.1611L145.899 79.3357L146.143 79.4056L146.667 79.196L146.842 78.3928L146.876 77.6593L146.981 77.3799L147.086 77.1704L147.854 76.6465L148.239 75.9829L148.832 74.6558L148.867 74.2018L148.727 74.097L148.483 73.9922L148.308 73.8875L148.134 73.6779L147.994 73.4684L147.889 73.189L147.854 72.8746L147.959 72.6651L148.099 72.5254L148.378 72.5603L148.483 72.5952L149.286 73.0493H149.845L150.09 73.0842L151.801 73.7128L152.08 73.9922L152.29 74.3415L152.814 75.494L153.023 75.6686L153.407 75.8083L155.154 76.0179L156.69 75.948L157.144 75.8432L158.192 75.1797L158.891 75.0051L159.24 74.9701L159.484 75.0051L159.834 75.04L160.043 75.0749L160.881 74.9701L162.104 74.6907L162.837 74.4812L162.802 74.9701L162.837 75.3543L162.977 76.1925L163.151 76.6465L163.256 76.8211L163.605 77.2402L164.234 77.799L164.618 78.2181L164.723 78.3928L164.793 78.6023L164.863 78.8468L164.898 79.1611L164.863 79.5453L164.793 80.1739L164.513 80.2088L164.339 80.2787L164.094 80.4882L163.675 80.9423L164.059 81.4312L164.374 81.8852L164.548 82.1297L164.758 82.5837L165.037 82.9679L165.142 83.2473L165.212 83.5267L165.247 83.7712V85.1332L165.282 85.3777L165.387 85.5873L165.456 85.727L165.631 85.8667L166.888 86.7398L167.342 87.1589L166.818 87.7177L166.749 87.9272L166.679 88.2765L166.644 88.9401L166.574 89.2893L165.98 90.0227L165.841 90.337L165.701 90.6164L165.491 90.8609L164.863 91.1054L163.605 91.2102L163.326 91.3149L163.151 91.3848L163.047 91.5594L163.012 91.6991L162.942 92.7119L162.907 92.8865L162.488 94.982L162.418 95.9599L161.964 96.7632L159.729 97.0426L159.065 97.1474L158.821 97.2521L158.611 97.4268L158.052 97.9506L157.668 98.5094L157.563 98.7539L157.494 98.9984V99.2778L157.563 99.627L157.598 99.9763L157.738 100.256L157.913 100.605L158.332 101.164L159.38 102.177L159.519 102.561L159.275 103.085L159.17 103.364L159.1 103.678V104.586L159.065 104.831L158.96 105.075L158.262 106.402L158.052 106.717L157.773 107.031L156.097 108.323L154.036 109.441L153.757 109.965L152.045 113.667L151.906 114.121L151.731 114.784L151.556 115.169L151.417 115.413L150.928 115.832L150.823 116.216V116.67L151.417 118.347L151.521 118.731L151.487 118.94L147.819 118.661L142.86 119.045L139.961 119.953L139.193 120.303Z" fill="#A0B6BA" stroke="white" stroke-width="0.174624" stroke-linecap="round" stroke-linejoin="round"/>
<path d="M205.62 65.4702L205.585 65.6798L205.41 65.9592L205.375 66.1338L205.48 66.7275L205.515 66.9022L205.48 67.3911L205.55 67.5308L205.654 67.6356L205.724 67.7404L205.654 67.88V67.9499V68.2991L205.62 68.4388L205.55 68.6833L205.2 69.3818L205.096 69.4866L205.026 69.5564L204.921 69.6612L204.886 69.8009L204.921 69.9755L205.026 70.1851L205.096 70.3597L205.061 70.709L203.838 70.4994L203.629 70.3946L203.419 70.22L203.105 69.7311L203 69.1723L202.826 68.5436L202.791 68.2642L202.826 67.88L202.965 67.3911L203.175 66.7625L203.315 66.4831L203.629 66.0989L204.327 65.4004L205.62 65.4702Z" fill="#A0B6BA" stroke="white" stroke-width="0.174624" stroke-linecap="round" stroke-linejoin="round"/>
<path d="M189.799 61.6645L190.183 61.6296L190.986 61.3851L191.964 60.966L192.208 61.4899L192.418 61.8741L192.942 62.5027L193.535 63.4806L193.815 63.7949L194.094 64.1791L194.269 64.3537L194.444 64.5284L194.688 64.668L194.932 64.7379L195.561 64.8776L196.19 65.0871L196.469 65.2618L196.609 65.4713L196.679 65.6809V65.9253L196.434 66.9032L196.329 67.6017L196.05 68.9638L196.015 69.313L195.491 69.4527L195.037 69.5226L194.304 69.5575L193.71 69.4877L193.431 69.4178L193.186 69.2781L192.418 68.6146L192.069 68.3352L191.684 68.1955L191.3 68.1256L190.532 68.0907H190.287L189.135 68.3002L187.668 68.4399L187.319 68.3002L186.481 68.0907L186.271 67.951L186.166 67.8462L186.097 67.6017L186.027 67.3223V66.1698L185.887 65.6809L185.747 65.2268L185.608 65.0173L185.363 64.668L185.258 62.7472L184.979 61.7693L184.804 61.0708L184.63 60.4072L186.935 60.8612H186.9L187.913 61.1057L188.751 61.2803L188.995 61.3502L189.589 61.5947L189.799 61.6645Z" fill="#144E5A" stroke="white" stroke-width="0.174624" stroke-linecap="round" stroke-linejoin="round"/>
</svg>
