<svg width="271" height="56" viewBox="0 0 271 56" fill="none" xmlns="http://www.w3.org/2000/svg">
<path d="M70.9469 33.5519C71.487 32.2916 71.8471 31.5265 72.1171 30.7163L73.6924 30.5813L77.0231 38.0977C77.4281 38.9979 78.0133 40.1681 78.4183 41.0683L75.8979 41.2033L74.9077 38.8629H71.0369C70.8119 39.403 70.3618 40.6632 70.1368 41.1583H67.5713L70.9469 33.5519ZM71.577 37.2426H74.2775L72.8823 33.8219L71.577 37.2426Z" fill="#00256C"/>
<path d="M82.1985 41.3378C81.0733 41.3378 79.7681 40.9778 79.0029 40.4827L79.093 38.3223C79.7231 38.8624 81.0283 39.4475 82.2885 39.4475C83.1437 39.4475 83.6838 39.0424 83.6838 38.2773C83.6838 36.702 79.363 36.4769 79.363 33.6864C79.363 31.751 80.8033 30.5808 82.8286 30.5808C83.8638 30.5808 84.9891 30.9409 85.6192 31.346L85.1241 33.1463C84.494 32.7862 83.6838 32.4712 82.9187 32.4712C82.1535 32.4712 81.6584 32.8762 81.6584 33.5964C81.6584 35.1267 85.9792 35.2617 85.9792 38.1872C85.8442 40.0776 84.4039 41.3378 82.1985 41.3378Z" fill="#00256C"/>
<path d="M87.5996 41.0681C87.6896 40.393 87.6896 38.5026 87.6896 37.5124V34.3168C87.6896 33.4167 87.6896 31.4813 87.5996 30.7612C88.1397 30.7612 89.625 30.7612 90.1201 30.6711C90.0301 31.0762 90.0301 32.2464 90.0301 32.8315V38.8627C90.0301 39.4028 90.0301 40.528 90.1201 40.9331H87.5996V41.0681Z" fill="#00256C"/>
<path d="M94.6658 33.5514C95.2059 32.2911 95.566 31.526 95.836 30.7158L97.4113 30.5808L100.742 38.0972C101.147 38.9974 101.732 40.1676 102.137 41.0678L99.6167 41.2028L98.6266 38.8624H94.8008C94.5758 39.4025 94.1257 40.6627 93.9007 41.1578H91.4702L94.6658 33.5514ZM95.3859 37.2421H98.0865L96.6912 33.8214L95.3859 37.2421Z" fill="#00256C"/>
<path d="M103.443 37.5124V34.0918C103.443 33.1916 103.443 31.3913 103.353 30.6712L104.793 30.5361L110.284 37.1524V34.2268C110.284 33.3267 110.284 31.3913 110.149 30.6712C110.689 30.6712 112.085 30.6712 112.58 30.5811C112.49 30.9862 112.49 32.1564 112.49 32.7416L112.4 38.8627C112.4 39.4028 112.4 40.618 112.4 41.0231L111.004 41.1581L105.513 34.5419V38.7727C105.513 39.3128 105.513 40.438 105.603 40.8431H103.173C103.353 40.348 103.443 38.4576 103.443 37.5124Z" fill="#00256C"/>
<path d="M121.536 41.0679H117.98C118.07 40.3928 118.07 38.5024 118.07 37.5123V34.3167C118.07 33.4165 118.07 31.5261 117.98 30.851C118.52 30.851 119.645 30.761 121.176 30.761C124.911 30.761 127.027 32.7864 127.027 35.7119C127.027 38.9075 124.821 41.0679 121.536 41.0679ZM121.401 32.5163C121.041 32.5163 120.771 32.5163 120.41 32.6063C120.41 32.8314 120.41 33.1464 120.41 33.3715V38.5024C120.41 38.7275 120.41 38.9975 120.41 39.1776C120.771 39.2676 120.951 39.2676 121.401 39.2676C123.741 39.2676 124.641 37.7373 124.641 35.847C124.686 33.7766 123.471 32.5163 121.401 32.5163Z" fill="#00256C"/>
<path d="M135.443 41.1129C134.543 41.0229 133.373 41.0229 132.248 41.0229C131.078 41.0229 129.817 41.0229 128.782 41.1129C128.872 40.4378 128.872 38.4574 128.872 37.5573V34.3617C128.872 33.4615 128.872 31.4361 128.782 30.761C129.772 30.851 130.853 30.851 132.023 30.851C133.148 30.851 134.228 30.851 135.128 30.761C135.038 31.3911 134.993 31.9312 134.993 32.6964C134.228 32.6964 133.418 32.6964 132.428 32.6964C132.023 32.6964 131.528 32.6964 131.123 32.6964C131.123 32.9214 131.123 33.2365 131.123 33.4615V34.8568H134.453C134.453 35.3519 134.363 35.982 134.363 36.6121H131.123V38.5024C131.123 38.7275 131.123 39.0426 131.123 39.2676C131.528 39.2676 132.023 39.2676 132.428 39.2676C133.553 39.2676 134.453 39.2676 135.353 39.1776C135.443 39.8077 135.443 40.3478 135.443 41.1129Z" fill="#00256C"/>
<path d="M138.549 30.7161L141.205 37.7824L142.87 33.1915C143.14 32.3364 143.5 31.5262 143.725 30.7611H146.246L143.14 38.2775C142.6 39.5377 142.285 40.3029 142.015 41.113L140.484 41.248L137.379 33.8216C137.019 32.9215 136.479 31.7513 136.119 30.8511L138.549 30.7161Z" fill="#00256C"/>
<path d="M154.032 41.1129C153.132 41.0229 151.962 41.0229 150.837 41.0229C149.667 41.0229 148.406 41.0229 147.371 41.1129C147.461 40.4378 147.461 38.4574 147.461 37.5573V34.3617C147.461 33.4615 147.461 31.4361 147.371 30.761C148.361 30.851 149.441 30.851 150.612 30.851C151.737 30.851 152.817 30.851 153.717 30.761C153.627 31.3911 153.582 31.9312 153.582 32.6964C152.817 32.6964 152.007 32.6964 151.017 32.6964C150.612 32.6964 150.117 32.6964 149.712 32.6964C149.712 32.9214 149.712 33.2365 149.712 33.4615V34.8568H153.042C153.042 35.3519 152.952 35.982 152.952 36.6121H149.712V38.5024C149.712 38.7275 149.712 39.0426 149.712 39.2676C150.117 39.2676 150.612 39.2676 151.017 39.2676C152.142 39.2676 153.042 39.2676 153.942 39.1776C154.122 39.8077 154.032 40.3478 154.032 41.1129Z" fill="#00256C"/>
<path d="M162.314 41.1131C161.324 41.0231 160.243 41.0231 159.118 41.0231C157.948 41.0231 156.778 41.0231 155.788 41.1131C155.878 40.438 155.878 38.4576 155.878 37.5124V34.3168C155.878 33.4167 155.878 31.4813 155.788 30.7612C156.328 30.7612 157.813 30.7612 158.308 30.6711C158.218 31.0762 158.218 32.2464 158.218 32.8315V38.3226C158.218 38.5476 158.218 38.8627 158.218 39.1777C158.578 39.1777 158.983 39.1777 159.388 39.1777C160.513 39.1777 161.459 39.1777 162.359 39.0877C162.359 39.7178 162.314 40.348 162.314 41.1131Z" fill="#00256C"/>
<path d="M163.079 36.2069C163.079 33.0113 165.239 30.5808 168.435 30.5808C171.495 30.5808 173.521 32.8762 173.521 35.7118C173.521 38.9074 171.36 41.3378 168.165 41.3378C165.059 41.3378 163.079 38.9524 163.079 36.2069ZM171.09 35.9818C171.09 33.7764 169.83 32.4262 168.165 32.4262C166.409 32.4262 165.239 34.0015 165.239 35.8918C165.239 38.0972 166.499 39.4475 168.165 39.4475C170.01 39.4475 171.09 37.8722 171.09 35.9818Z" fill="#00256C"/>
<path d="M177.616 38.9525C177.616 39.4926 177.616 40.6179 177.707 41.0229H175.186C175.276 40.3478 175.276 38.4575 175.276 37.4673V34.2717C175.276 33.3715 175.276 31.4361 175.186 30.716C175.726 30.716 177.526 30.626 178.427 30.626C181.262 30.626 182.747 32.0212 182.747 33.8666C182.747 35.937 181.352 37.6023 178.247 37.6023C178.022 37.6023 177.887 37.6023 177.707 37.6023V38.8625H177.616V38.9525ZM178.472 32.5613C178.202 32.5613 177.977 32.5613 177.616 32.5613V35.982C177.842 35.982 178.022 35.982 178.247 35.982C179.642 35.982 180.407 35.3519 180.407 34.2267C180.407 33.1014 179.777 32.5613 178.472 32.5613Z" fill="#00256C"/>
<path d="M184.098 37.5121L184.503 34.2715C184.638 33.3713 184.863 31.481 184.908 30.7158L186.349 30.6258C186.619 31.2559 186.979 32.0661 187.339 32.6962L189.634 37.6471L191.84 32.6512C192.11 32.0211 192.515 31.1209 192.74 30.5808H194.18C194.27 31.436 194.54 33.2813 194.675 34.2715L195.17 37.5121C195.305 38.5023 195.575 40.3026 195.8 41.0678L193.46 41.2028C193.46 40.7977 193.325 39.5375 193.19 38.9974L192.695 35.2617C192.02 36.927 190.354 40.7527 190.129 41.2478L189.094 41.3378L186.529 35.3517L186.034 39.0424C185.944 39.5825 185.809 40.7077 185.809 41.1128H183.513C183.693 40.3026 183.963 38.4573 184.098 37.5121Z" fill="#00256C"/>
<path d="M204.082 41.1129C203.181 41.0229 202.011 41.0229 200.886 41.0229C199.716 41.0229 198.456 41.0229 197.42 41.1129C197.51 40.4378 197.51 38.4574 197.51 37.5573V34.3617C197.51 33.4615 197.51 31.4361 197.42 30.761C198.411 30.851 199.491 30.851 200.661 30.851C201.786 30.851 202.866 30.851 203.767 30.761C203.677 31.3911 203.632 31.9312 203.632 32.6964C202.866 32.6964 202.056 32.6964 201.066 32.6964C200.661 32.6964 200.166 32.6964 199.761 32.6964C199.761 32.9214 199.761 33.2365 199.761 33.4615V34.8568H203.091C203.091 35.3519 203.001 35.982 203.001 36.6121H199.761V38.5024C199.761 38.7275 199.761 39.0426 199.761 39.2676C200.166 39.2676 200.661 39.2676 201.066 39.2676C202.191 39.2676 203.091 39.2676 203.992 39.1776C204.082 39.8077 204.082 40.3478 204.082 41.1129Z" fill="#00256C"/>
<path d="M205.836 37.5124V34.0918C205.836 33.1916 205.836 31.3913 205.746 30.6712L207.187 30.5361L212.678 37.1524V34.2268C212.678 33.3267 212.678 31.3913 212.543 30.6712C213.083 30.6712 214.478 30.6712 214.973 30.5811C214.883 30.9862 214.883 32.1564 214.883 32.7416L214.793 38.8627C214.793 39.4028 214.793 40.618 214.793 41.0231L213.398 41.1581L207.907 34.5419V38.7727C207.907 39.3128 207.907 40.438 207.997 40.8431H205.566C205.746 40.348 205.836 38.4576 205.836 37.5124Z" fill="#00256C"/>
<path d="M225.325 32.6962C224.29 32.6962 223.39 32.6962 222.129 32.6962C222.129 33.0563 222.129 33.3713 222.129 33.5964V38.9524C222.129 39.4925 222.129 40.6177 222.219 41.0228H219.699C219.789 40.3477 219.789 38.4573 219.789 37.4671V34.9016C219.789 34.3615 219.789 33.3713 219.789 32.6062C218.619 32.6062 217.584 32.6062 216.548 32.6062C216.638 32.0661 216.638 31.3009 216.638 30.5808C218.034 30.6708 219.339 30.6708 221.004 30.6708C222.669 30.6708 224.065 30.6708 225.46 30.5808C225.415 31.346 225.325 31.9311 225.325 32.6962Z" fill="#00256C"/>
<path d="M230.051 41.0679C230.141 40.3928 230.141 38.5024 230.141 37.5123V34.3167C230.141 33.4165 230.141 31.5261 230.051 30.851C230.546 30.851 232.212 30.761 233.517 30.761C236.307 30.761 237.253 32.1563 237.253 33.4165C237.253 34.5417 236.577 35.3068 235.587 35.6219C236.983 35.982 237.658 36.9272 237.658 38.0524C237.658 39.7177 236.352 41.0229 233.697 41.0229C233.742 41.0679 230.051 41.0679 230.051 41.0679ZM233.292 34.9918C234.417 34.9918 235.047 34.4967 235.047 33.7315C235.047 32.8764 234.417 32.4713 233.292 32.4713C232.887 32.4713 232.617 32.4713 232.302 32.5613V35.0818C232.572 34.9468 233.112 34.9918 233.292 34.9918ZM233.607 39.3126C234.777 39.3126 235.497 38.9075 235.497 37.9173C235.497 37.0622 234.867 36.5221 233.337 36.5221C232.977 36.5221 232.662 36.5221 232.347 36.6121V39.3126C232.752 39.2226 233.157 39.3126 233.607 39.3126Z" fill="#00256C"/>
<path d="M241.664 33.5514C242.204 32.2911 242.564 31.526 242.834 30.7158L244.41 30.5808L247.74 38.0972C248.145 38.9974 248.73 40.1676 249.135 41.0678L246.615 41.2028L245.625 38.8624H241.754C241.529 39.4025 241.079 40.6627 240.854 41.1578H238.378L241.664 33.5514ZM242.249 37.2421H244.95L243.554 33.8214L242.249 37.2421Z" fill="#00256C"/>
<path d="M250.396 37.5124V34.0918C250.396 33.1916 250.396 31.3913 250.306 30.6712L251.746 30.5361L257.237 37.1524V34.2268C257.237 33.3267 257.237 31.3913 257.102 30.6712C257.642 30.6712 259.037 30.6712 259.532 30.5811C259.442 30.9862 259.442 32.1564 259.442 32.7416L259.352 38.8627C259.352 39.4028 259.352 40.618 259.352 41.0231L257.957 41.1581L252.466 34.5419V38.7727C252.466 39.3128 252.466 40.438 252.556 40.8431H250.125C250.306 40.348 250.396 38.4576 250.396 37.5124Z" fill="#00256C"/>
<path d="M264.348 36.3419V38.9074C264.348 39.4475 264.348 40.5727 264.438 40.9778H261.918C262.008 40.3026 262.008 38.4123 262.008 37.4221V34.2265C262.008 33.3263 262.008 31.391 261.918 30.6708C262.458 30.6708 263.943 30.6708 264.438 30.5808C264.348 30.9859 264.348 32.1561 264.348 32.7412V35.1717L265.879 33.2813C266.509 32.6062 267.319 31.481 268.039 30.6258H270.83L266.509 35.5768L268.849 38.4123C269.389 39.0424 270.425 40.2126 271.01 40.9328L268.309 41.1578L264.348 36.3419Z" fill="#00256C"/>
<path d="M0.958008 0.155518H56.4985V55.696H0.958008V0.155518Z" fill="#002569"/>
<path d="M37.6848 27.5658C36.6496 26.0355 35.1643 24.8653 33.2289 24.2352C32.7338 24.1002 32.1937 23.9652 31.6986 23.8751C31.2035 23.7851 30.6634 23.7401 30.1233 23.7401C29.8533 23.7401 29.4932 23.7401 29.1331 23.7401C28.7731 23.7401 28.503 23.7401 28.143 23.7401C27.8729 23.7401 27.6029 23.7401 27.2428 23.7401C26.9727 23.7401 26.6127 23.7401 26.3426 23.7401C26.0726 23.7401 25.7125 23.7401 25.4425 23.7401C25.1724 23.7401 24.8123 23.7401 24.5423 23.7401C24.2722 23.7401 24.0022 23.7401 23.6421 23.7401C23.3721 23.7401 23.012 23.7401 22.7419 23.7401C22.4719 23.7401 22.1118 23.7401 21.8418 23.7401C21.5717 23.7401 21.2117 23.7401 20.9416 23.7401V24.5953C20.9416 24.5953 20.9416 24.5953 21.0316 24.5953C21.0316 24.5953 21.0316 24.5953 21.1216 24.5953C21.9768 24.6853 22.6519 24.7303 23.057 24.9553C23.5521 25.1804 23.7321 25.8105 23.7321 26.7557V38.8179C23.7321 39.8081 23.5071 40.3932 23.057 40.6183C22.6969 40.7533 22.2018 40.8883 21.6617 40.9783C21.2567 40.8883 20.8066 40.7533 20.5365 40.5733C20.1765 40.3032 19.8614 39.8081 19.5463 39.268L12.7501 23.425H11.7599L5.23366 39.178C4.9636 39.8531 4.60354 40.3482 4.10844 40.6183C3.70337 40.8433 3.07325 40.9783 2.30811 40.9783V41.8335H8.56428V40.9783H8.02418C7.93416 40.9783 7.88916 40.9783 7.79914 40.9783C7.70912 40.9783 7.66411 40.9783 7.5741 40.9783C7.30405 40.9783 6.94398 40.8883 6.71893 40.7083C6.44888 40.5733 6.31386 40.3032 6.31386 39.9432C6.31386 39.8081 6.31386 39.6731 6.40387 39.5831C6.49389 39.4481 6.49389 39.358 6.5389 39.223L7.93416 35.6674H15.1355L16.5758 39.223C16.6658 39.358 16.7108 39.4931 16.8008 39.7181C16.8908 39.8531 16.8908 40.0782 16.8908 40.2132C16.8908 40.4833 16.7558 40.7083 16.6208 40.7533C16.3958 40.8883 16.2157 40.9783 15.9457 40.9783C15.8106 40.9783 15.7206 40.9783 15.5856 40.9783C15.4956 40.9783 15.3606 40.9783 15.3156 40.9783H14.6854V41.8335H21.0766H22.2018H30.3034C33.0039 41.8335 35.1643 40.9783 36.8296 39.4031C38.4949 37.7377 39.3501 35.5773 39.3501 32.9668C39.2601 30.8965 38.72 29.1861 37.6848 27.5658ZM8.29423 34.5421L11.2198 27.2508C11.2198 27.1608 11.3098 27.1157 11.3098 27.1157C11.3098 27.0257 11.3998 26.9807 11.3998 26.9807C11.3998 26.8907 11.4898 26.8457 11.4898 26.7557C11.4898 26.6657 11.5798 26.6206 11.5798 26.5306C11.6699 26.8007 11.7149 27.0707 11.8499 27.4308C11.9849 27.7009 12.0749 27.9709 12.21 28.331C12.21 28.421 12.3 28.466 12.3 28.556C12.39 28.646 12.39 28.691 12.39 28.7811L14.7304 34.5421C14.6404 34.5421 8.29423 34.5421 8.29423 34.5421ZM34.6242 38.4579C33.724 40.0332 32.0587 40.8883 29.6282 40.8883C28.368 40.8883 27.4678 40.7533 27.0628 40.3932C26.6577 40.0332 26.4326 39.223 26.4326 37.8728V24.5953C26.5677 24.5953 26.7927 24.5953 26.9277 24.5052C27.0628 24.5052 27.2878 24.5052 27.4228 24.5052C27.5579 24.5052 27.6929 24.5052 27.9179 24.5052C28.0529 24.5052 28.278 24.5052 28.413 24.5052C31.0685 24.5052 33.0039 25.2704 34.2641 26.7107C35.5243 28.1509 36.0645 30.1763 36.0645 32.8318C36.0645 34.9472 35.6144 36.7926 34.6242 38.4579Z" fill="white"/>
<path d="M48.0814 32.0215C49.5217 32.1116 50.872 32.5166 52.0872 33.2818C53.2574 34.0469 53.8875 35.3072 53.8875 36.8825C53.8875 38.4127 53.3474 39.673 52.3122 40.4831C51.277 41.3833 50.0168 41.7884 48.5765 41.7884H39.2598V40.9782C39.2598 40.9782 39.2598 40.9782 39.3498 40.9782C39.3498 40.9782 39.3498 40.9782 39.4398 40.9782C40.34 40.8882 40.9701 40.8432 41.3752 40.6182C41.7802 40.3931 42.0503 39.763 42.0503 38.8178V26.7555C42.0503 25.7654 41.8253 25.1803 41.3752 24.9552C40.8801 24.7302 40.25 24.5951 39.4398 24.5951C39.4398 24.5951 39.4398 24.5951 39.3498 24.5951C39.3498 24.5951 39.3498 24.5951 39.2598 24.5951V23.74H47.9914C49.2516 23.74 50.3318 24.1 51.322 24.7302C52.3122 25.3603 52.8523 26.3955 52.8523 27.7007C52.8523 29.141 52.3572 30.2212 51.4121 30.8063C50.4669 31.3914 49.3417 31.7965 48.0814 32.0215ZM44.7508 32.5616V38.8178C44.7508 39.718 45.0208 40.2581 45.5159 40.4831C46.011 40.7532 46.6412 40.8432 47.4063 40.8432C48.7115 40.8432 49.6117 40.4381 50.1068 39.5379C50.6019 38.6828 50.8719 37.6476 50.8719 36.4774C50.8719 34.452 50.2418 33.3718 48.9816 33.0117C47.6763 32.6967 46.2811 32.5616 44.7508 32.5616ZM44.7508 31.6615C46.1461 31.6615 47.4063 31.5265 48.4415 31.1664C49.4767 30.8063 49.9718 29.8611 49.9718 28.1058C49.9718 26.9806 49.7467 26.1704 49.3417 25.5403C48.9366 24.9102 48.0814 24.5501 46.9112 24.5501H44.7508V31.6615Z" fill="white"/>
</svg>
